<svg xmlns="http://www.w3.org/2000/svg" xmlns:xlink="http://www.w3.org/1999/xlink" width="144" zoomAndPan="magnify" viewBox="0 0 108 107.999999" height="144" preserveAspectRatio="xMidYMid meet" version="1.0"><defs><filter x="0%" y="0%" width="100%" height="100%" id="4cac6d4669"><feColorMatrix values="0 0 0 0 1 0 0 0 0 1 0 0 0 0 1 0 0 0 1 0" color-interpolation-filters="sRGB"/></filter><clipPath id="8e641d67c8"><path d="M 4.96875 0 L 103.03125 0 C 104.347656 0 105.613281 0.523438 106.542969 1.457031 C 107.476562 2.386719 108 3.652344 108 4.96875 L 108 103.03125 C 108 104.347656 107.476562 105.613281 106.542969 106.542969 C 105.613281 107.476562 104.347656 108 103.03125 108 L 4.96875 108 C 3.652344 108 2.386719 107.476562 1.457031 106.542969 C 0.523438 105.613281 0 104.347656 0 103.03125 L 0 4.96875 C 0 3.652344 0.523438 2.386719 1.457031 1.457031 C 2.386719 0.523438 3.652344 0 4.96875 0 Z M 4.96875 0 " clip-rule="nonzero"/></clipPath><linearGradient x1="0.000000000000025264" gradientTransform="matrix(0.421875, 0, 0, 0.421875, 0.00000075, 0.000002)" y1="0" x2="255.999989" gradientUnits="userSpaceOnUse" y2="0" id="af86df4cb6"><stop stop-opacity="1" stop-color="rgb(100%, 39.99939%, 76.899719%)" offset="0"/><stop stop-opacity="1" stop-color="rgb(100%, 40.182495%, 76.734924%)" offset="0.0078125"/><stop stop-opacity="1" stop-color="rgb(100%, 40.550232%, 76.40686%)" offset="0.015625"/><stop stop-opacity="1" stop-color="rgb(100%, 40.917969%, 76.078796%)" offset="0.0234375"/><stop stop-opacity="1" stop-color="rgb(100%, 41.287231%, 75.750732%)" offset="0.03125"/><stop stop-opacity="1" stop-color="rgb(100%, 41.654968%, 75.422668%)" offset="0.0390625"/><stop stop-opacity="1" stop-color="rgb(100%, 42.022705%, 75.093079%)" offset="0.046875"/><stop stop-opacity="1" stop-color="rgb(100%, 42.390442%, 74.765015%)" offset="0.0546875"/><stop stop-opacity="1" stop-color="rgb(100%, 42.758179%, 74.436951%)" offset="0.0625"/><stop stop-opacity="1" stop-color="rgb(100%, 43.125916%, 74.108887%)" offset="0.0703125"/><stop stop-opacity="1" stop-color="rgb(100%, 43.493652%, 73.780823%)" offset="0.078125"/><stop stop-opacity="1" stop-color="rgb(100%, 43.862915%, 73.452759%)" offset="0.0859375"/><stop stop-opacity="1" stop-color="rgb(100%, 44.230652%, 73.124695%)" offset="0.09375"/><stop stop-opacity="1" stop-color="rgb(100%, 44.598389%, 72.796631%)" offset="0.101563"/><stop stop-opacity="1" stop-color="rgb(100%, 44.966125%, 72.468567%)" offset="0.109375"/><stop stop-opacity="1" stop-color="rgb(100%, 45.333862%, 72.140503%)" offset="0.117188"/><stop stop-opacity="1" stop-color="rgb(100%, 45.701599%, 71.812439%)" offset="0.125"/><stop stop-opacity="1" stop-color="rgb(100%, 46.069336%, 71.484375%)" offset="0.132812"/><stop stop-opacity="1" stop-color="rgb(100%, 46.438599%, 71.156311%)" offset="0.140625"/><stop stop-opacity="1" stop-color="rgb(100%, 46.806335%, 70.828247%)" offset="0.148437"/><stop stop-opacity="1" stop-color="rgb(100%, 47.174072%, 70.500183%)" offset="0.15625"/><stop stop-opacity="1" stop-color="rgb(100%, 47.541809%, 70.172119%)" offset="0.164062"/><stop stop-opacity="1" stop-color="rgb(100%, 47.909546%, 69.844055%)" offset="0.171875"/><stop stop-opacity="1" stop-color="rgb(100%, 48.277283%, 69.515991%)" offset="0.179687"/><stop stop-opacity="1" stop-color="rgb(100%, 48.646545%, 69.187927%)" offset="0.1875"/><stop stop-opacity="1" stop-color="rgb(100%, 49.014282%, 68.859863%)" offset="0.195312"/><stop stop-opacity="1" stop-color="rgb(100%, 49.382019%, 68.531799%)" offset="0.203125"/><stop stop-opacity="1" stop-color="rgb(100%, 49.749756%, 68.203735%)" offset="0.210938"/><stop stop-opacity="1" stop-color="rgb(100%, 50.117493%, 67.875671%)" offset="0.21875"/><stop stop-opacity="1" stop-color="rgb(100%, 50.485229%, 67.547607%)" offset="0.226562"/><stop stop-opacity="1" stop-color="rgb(100%, 50.852966%, 67.219543%)" offset="0.234375"/><stop stop-opacity="1" stop-color="rgb(100%, 51.222229%, 66.889954%)" offset="0.242188"/><stop stop-opacity="1" stop-color="rgb(100%, 51.589966%, 66.56189%)" offset="0.25"/><stop stop-opacity="1" stop-color="rgb(100%, 51.957703%, 66.233826%)" offset="0.257812"/><stop stop-opacity="1" stop-color="rgb(100%, 52.325439%, 65.905762%)" offset="0.265625"/><stop stop-opacity="1" stop-color="rgb(100%, 52.693176%, 65.577698%)" offset="0.273437"/><stop stop-opacity="1" stop-color="rgb(100%, 53.060913%, 65.249634%)" offset="0.28125"/><stop stop-opacity="1" stop-color="rgb(100%, 53.430176%, 64.92157%)" offset="0.289062"/><stop stop-opacity="1" stop-color="rgb(100%, 53.797913%, 64.593506%)" offset="0.296875"/><stop stop-opacity="1" stop-color="rgb(100%, 54.165649%, 64.265442%)" offset="0.304687"/><stop stop-opacity="1" stop-color="rgb(100%, 54.533386%, 63.937378%)" offset="0.3125"/><stop stop-opacity="1" stop-color="rgb(100%, 54.901123%, 63.609314%)" offset="0.320312"/><stop stop-opacity="1" stop-color="rgb(100%, 55.26886%, 63.28125%)" offset="0.328125"/><stop stop-opacity="1" stop-color="rgb(100%, 55.636597%, 62.953186%)" offset="0.335937"/><stop stop-opacity="1" stop-color="rgb(100%, 56.005859%, 62.625122%)" offset="0.34375"/><stop stop-opacity="1" stop-color="rgb(100%, 56.373596%, 62.297058%)" offset="0.351562"/><stop stop-opacity="1" stop-color="rgb(100%, 56.741333%, 61.968994%)" offset="0.359375"/><stop stop-opacity="1" stop-color="rgb(100%, 57.10907%, 61.64093%)" offset="0.367187"/><stop stop-opacity="1" stop-color="rgb(100%, 57.476807%, 61.312866%)" offset="0.375"/><stop stop-opacity="1" stop-color="rgb(100%, 57.844543%, 60.984802%)" offset="0.382812"/><stop stop-opacity="1" stop-color="rgb(100%, 58.21228%, 60.656738%)" offset="0.390625"/><stop stop-opacity="1" stop-color="rgb(100%, 58.581543%, 60.328674%)" offset="0.398438"/><stop stop-opacity="1" stop-color="rgb(100%, 58.94928%, 60.00061%)" offset="0.40625"/><stop stop-opacity="1" stop-color="rgb(100%, 59.317017%, 59.672546%)" offset="0.414062"/><stop stop-opacity="1" stop-color="rgb(100%, 59.684753%, 59.344482%)" offset="0.421875"/><stop stop-opacity="1" stop-color="rgb(100%, 60.05249%, 59.016418%)" offset="0.429688"/><stop stop-opacity="1" stop-color="rgb(100%, 60.420227%, 58.686829%)" offset="0.4375"/><stop stop-opacity="1" stop-color="rgb(100%, 60.78949%, 58.358765%)" offset="0.445312"/><stop stop-opacity="1" stop-color="rgb(100%, 61.157227%, 58.030701%)" offset="0.453125"/><stop stop-opacity="1" stop-color="rgb(100%, 61.524963%, 57.702637%)" offset="0.460938"/><stop stop-opacity="1" stop-color="rgb(100%, 61.8927%, 57.374573%)" offset="0.46875"/><stop stop-opacity="1" stop-color="rgb(100%, 62.260437%, 57.046509%)" offset="0.476562"/><stop stop-opacity="1" stop-color="rgb(100%, 62.628174%, 56.718445%)" offset="0.484375"/><stop stop-opacity="1" stop-color="rgb(100%, 62.995911%, 56.390381%)" offset="0.492188"/><stop stop-opacity="1" stop-color="rgb(100%, 63.365173%, 56.062317%)" offset="0.5"/><stop stop-opacity="1" stop-color="rgb(100%, 63.73291%, 55.734253%)" offset="0.507812"/><stop stop-opacity="1" stop-color="rgb(100%, 64.100647%, 55.406189%)" offset="0.515625"/><stop stop-opacity="1" stop-color="rgb(100%, 64.468384%, 55.078125%)" offset="0.523438"/><stop stop-opacity="1" stop-color="rgb(100%, 64.836121%, 54.750061%)" offset="0.53125"/><stop stop-opacity="1" stop-color="rgb(100%, 65.203857%, 54.421997%)" offset="0.539062"/><stop stop-opacity="1" stop-color="rgb(100%, 65.57312%, 54.093933%)" offset="0.546875"/><stop stop-opacity="1" stop-color="rgb(100%, 65.940857%, 53.765869%)" offset="0.554688"/><stop stop-opacity="1" stop-color="rgb(100%, 66.308594%, 53.437805%)" offset="0.5625"/><stop stop-opacity="1" stop-color="rgb(100%, 66.676331%, 53.109741%)" offset="0.570312"/><stop stop-opacity="1" stop-color="rgb(100%, 67.044067%, 52.781677%)" offset="0.578125"/><stop stop-opacity="1" stop-color="rgb(100%, 67.411804%, 52.453613%)" offset="0.585938"/><stop stop-opacity="1" stop-color="rgb(100%, 67.779541%, 52.125549%)" offset="0.59375"/><stop stop-opacity="1" stop-color="rgb(100%, 68.148804%, 51.797485%)" offset="0.601562"/><stop stop-opacity="1" stop-color="rgb(100%, 68.516541%, 51.469421%)" offset="0.609375"/><stop stop-opacity="1" stop-color="rgb(100%, 68.884277%, 51.141357%)" offset="0.617188"/><stop stop-opacity="1" stop-color="rgb(100%, 69.252014%, 50.813293%)" offset="0.625"/><stop stop-opacity="1" stop-color="rgb(100%, 69.619751%, 50.483704%)" offset="0.632812"/><stop stop-opacity="1" stop-color="rgb(100%, 69.987488%, 50.15564%)" offset="0.640625"/><stop stop-opacity="1" stop-color="rgb(100%, 70.35675%, 49.827576%)" offset="0.648438"/><stop stop-opacity="1" stop-color="rgb(100%, 70.724487%, 49.499512%)" offset="0.65625"/><stop stop-opacity="1" stop-color="rgb(100%, 71.092224%, 49.171448%)" offset="0.664062"/><stop stop-opacity="1" stop-color="rgb(100%, 71.459961%, 48.843384%)" offset="0.671875"/><stop stop-opacity="1" stop-color="rgb(100%, 71.827698%, 48.51532%)" offset="0.679688"/><stop stop-opacity="1" stop-color="rgb(100%, 72.195435%, 48.187256%)" offset="0.6875"/><stop stop-opacity="1" stop-color="rgb(100%, 72.563171%, 47.859192%)" offset="0.695312"/><stop stop-opacity="1" stop-color="rgb(100%, 72.932434%, 47.531128%)" offset="0.703125"/><stop stop-opacity="1" stop-color="rgb(100%, 73.300171%, 47.203064%)" offset="0.710938"/><stop stop-opacity="1" stop-color="rgb(100%, 73.667908%, 46.875%)" offset="0.71875"/><stop stop-opacity="1" stop-color="rgb(100%, 74.035645%, 46.546936%)" offset="0.726562"/><stop stop-opacity="1" stop-color="rgb(100%, 74.403381%, 46.218872%)" offset="0.734375"/><stop stop-opacity="1" stop-color="rgb(100%, 74.771118%, 45.890808%)" offset="0.742188"/><stop stop-opacity="1" stop-color="rgb(100%, 75.138855%, 45.562744%)" offset="0.75"/><stop stop-opacity="1" stop-color="rgb(100%, 75.508118%, 45.23468%)" offset="0.757813"/><stop stop-opacity="1" stop-color="rgb(100%, 75.875854%, 44.906616%)" offset="0.765625"/><stop stop-opacity="1" stop-color="rgb(100%, 76.243591%, 44.578552%)" offset="0.773438"/><stop stop-opacity="1" stop-color="rgb(100%, 76.611328%, 44.250488%)" offset="0.78125"/><stop stop-opacity="1" stop-color="rgb(100%, 76.979065%, 43.922424%)" offset="0.789063"/><stop stop-opacity="1" stop-color="rgb(100%, 77.346802%, 43.59436%)" offset="0.796875"/><stop stop-opacity="1" stop-color="rgb(100%, 77.716064%, 43.266296%)" offset="0.804688"/><stop stop-opacity="1" stop-color="rgb(100%, 78.083801%, 42.938232%)" offset="0.8125"/><stop stop-opacity="1" stop-color="rgb(100%, 78.451538%, 42.610168%)" offset="0.820313"/><stop stop-opacity="1" stop-color="rgb(100%, 78.819275%, 42.280579%)" offset="0.828125"/><stop stop-opacity="1" stop-color="rgb(100%, 79.187012%, 41.952515%)" offset="0.835938"/><stop stop-opacity="1" stop-color="rgb(100%, 79.554749%, 41.624451%)" offset="0.84375"/><stop stop-opacity="1" stop-color="rgb(100%, 79.922485%, 41.296387%)" offset="0.851563"/><stop stop-opacity="1" stop-color="rgb(100%, 80.291748%, 40.968323%)" offset="0.859375"/><stop stop-opacity="1" stop-color="rgb(100%, 80.659485%, 40.640259%)" offset="0.867188"/><stop stop-opacity="1" stop-color="rgb(100%, 81.027222%, 40.312195%)" offset="0.875"/><stop stop-opacity="1" stop-color="rgb(100%, 81.394958%, 39.984131%)" offset="0.882813"/><stop stop-opacity="1" stop-color="rgb(100%, 81.762695%, 39.656067%)" offset="0.890625"/><stop stop-opacity="1" stop-color="rgb(100%, 82.130432%, 39.328003%)" offset="0.898438"/><stop stop-opacity="1" stop-color="rgb(100%, 82.499695%, 38.999939%)" offset="0.90625"/><stop stop-opacity="1" stop-color="rgb(100%, 82.867432%, 38.671875%)" offset="0.914063"/><stop stop-opacity="1" stop-color="rgb(100%, 83.235168%, 38.343811%)" offset="0.921875"/><stop stop-opacity="1" stop-color="rgb(100%, 83.602905%, 38.015747%)" offset="0.929688"/><stop stop-opacity="1" stop-color="rgb(100%, 83.970642%, 37.687683%)" offset="0.9375"/><stop stop-opacity="1" stop-color="rgb(100%, 84.338379%, 37.359619%)" offset="0.945313"/><stop stop-opacity="1" stop-color="rgb(100%, 84.706116%, 37.031555%)" offset="0.953125"/><stop stop-opacity="1" stop-color="rgb(100%, 85.075378%, 36.703491%)" offset="0.960938"/><stop stop-opacity="1" stop-color="rgb(100%, 85.443115%, 36.375427%)" offset="0.96875"/><stop stop-opacity="1" stop-color="rgb(100%, 85.810852%, 36.047363%)" offset="0.976563"/><stop stop-opacity="1" stop-color="rgb(100%, 86.178589%, 35.719299%)" offset="0.984375"/><stop stop-opacity="1" stop-color="rgb(100%, 86.546326%, 35.391235%)" offset="0.992188"/><stop stop-opacity="1" stop-color="rgb(100%, 86.914062%, 35.063171%)" offset="1"/></linearGradient><clipPath id="584984b710"><path d="M 1.929688 6.179688 L 106.179688 6.179688 L 106.179688 61 L 1.929688 61 Z M 1.929688 6.179688 " clip-rule="nonzero"/></clipPath><clipPath id="e7b585a28b"><path d="M 79.929688 6.179688 L 28.058594 6.179688 C 13.5625 6.179688 1.808594 17.933594 1.808594 32.429688 L 1.808594 75.570312 C 1.808594 90.066406 13.5625 101.820312 28.058594 101.820312 L 79.929688 101.820312 C 94.429688 101.820312 106.179688 90.066406 106.179688 75.570312 L 106.179688 32.429688 C 106.179688 17.933594 94.429688 6.179688 79.929688 6.179688 Z M 79.929688 6.179688 " clip-rule="nonzero"/></clipPath><mask id="55da27aeea"><g filter="url(#4cac6d4669)"><rect x="-10.8" width="129.6" fill="#000000" y="-10.8" height="129.599998" fill-opacity="0.3"/></g></mask><clipPath id="dde0db929f"><path d="M 0.929688 0.179688 L 105.179688 0.179688 L 105.179688 54.960938 L 0.929688 54.960938 Z M 0.929688 0.179688 " clip-rule="nonzero"/></clipPath><clipPath id="9a5ede61f8"><path d="M 78.929688 0.179688 L 27.058594 0.179688 C 12.5625 0.179688 0.808594 11.933594 0.808594 26.429688 L 0.808594 69.570312 C 0.808594 84.066406 12.5625 95.820312 27.058594 95.820312 L 78.929688 95.820312 C 93.429688 95.820312 105.179688 84.066406 105.179688 69.570312 L 105.179688 26.429688 C 105.179688 11.933594 93.429688 0.179688 78.929688 0.179688 Z M 78.929688 0.179688 " clip-rule="nonzero"/></clipPath><clipPath id="d9d11dfae0"><rect x="0" width="106" y="0" height="55"/></clipPath><clipPath id="586ea3252b"><path d="M 7 49 L 103 49 L 103 99 L 7 99 Z M 7 49 " clip-rule="nonzero"/></clipPath><clipPath id="148c6047ae"><path d="M 79.929688 6.179688 L 28.058594 6.179688 C 13.5625 6.179688 1.808594 17.933594 1.808594 32.429688 L 1.808594 75.570312 C 1.808594 90.066406 13.5625 101.820312 28.058594 101.820312 L 79.929688 101.820312 C 94.429688 101.820312 106.179688 90.066406 106.179688 75.570312 L 106.179688 32.429688 C 106.179688 17.933594 94.429688 6.179688 79.929688 6.179688 Z M 79.929688 6.179688 " clip-rule="nonzero"/></clipPath><mask id="5f68a5cc1a"><g filter="url(#4cac6d4669)"><rect x="-10.8" width="129.6" fill="#000000" y="-10.8" height="129.599998" fill-opacity="0.2"/></g></mask><clipPath id="8a788b0696"><path d="M 0.679688 0.679688 L 95.238281 0.679688 L 95.238281 49.640625 L 0.679688 49.640625 Z M 0.679688 0.679688 " clip-rule="nonzero"/></clipPath><clipPath id="0d7b146c8e"><path d="M 72.929688 -42.820312 L 21.058594 -42.820312 C 6.5625 -42.820312 -5.191406 -31.066406 -5.191406 -16.570312 L -5.191406 26.570312 C -5.191406 41.066406 6.5625 52.820312 21.058594 52.820312 L 72.929688 52.820312 C 87.429688 52.820312 99.179688 41.066406 99.179688 26.570312 L 99.179688 -16.570312 C 99.179688 -31.066406 87.429688 -42.820312 72.929688 -42.820312 Z M 72.929688 -42.820312 " clip-rule="nonzero"/></clipPath><clipPath id="cf0524a222"><rect x="0" width="96" y="0" height="50"/></clipPath><clipPath id="9372f96a40"><path d="M 46 48 L 51 48 L 51 65 L 46 65 Z M 46 48 " clip-rule="nonzero"/></clipPath><clipPath id="e35943e193"><path d="M 79.929688 6.179688 L 28.058594 6.179688 C 13.5625 6.179688 1.808594 17.933594 1.808594 32.429688 L 1.808594 75.570312 C 1.808594 90.066406 13.5625 101.820312 28.058594 101.820312 L 79.929688 101.820312 C 94.429688 101.820312 106.179688 90.066406 106.179688 75.570312 L 106.179688 32.429688 C 106.179688 17.933594 94.429688 6.179688 79.929688 6.179688 Z M 79.929688 6.179688 " clip-rule="nonzero"/></clipPath><clipPath id="95443fa634"><path d="M 20 48 L 30 48 L 30 62 L 20 62 Z M 20 48 " clip-rule="nonzero"/></clipPath><clipPath id="1406d4e0e2"><path d="M 79.929688 6.179688 L 28.058594 6.179688 C 13.5625 6.179688 1.808594 17.933594 1.808594 32.429688 L 1.808594 75.570312 C 1.808594 90.066406 13.5625 101.820312 28.058594 101.820312 L 79.929688 101.820312 C 94.429688 101.820312 106.179688 90.066406 106.179688 75.570312 L 106.179688 32.429688 C 106.179688 17.933594 94.429688 6.179688 79.929688 6.179688 Z M 79.929688 6.179688 " clip-rule="nonzero"/></clipPath><clipPath id="efec98f567"><path d="M 24 58 L 42 58 L 42 86 L 24 86 Z M 24 58 " clip-rule="nonzero"/></clipPath><clipPath id="1050904ab6"><path d="M 79.929688 6.179688 L 28.058594 6.179688 C 13.5625 6.179688 1.808594 17.933594 1.808594 32.429688 L 1.808594 75.570312 C 1.808594 90.066406 13.5625 101.820312 28.058594 101.820312 L 79.929688 101.820312 C 94.429688 101.820312 106.179688 90.066406 106.179688 75.570312 L 106.179688 32.429688 C 106.179688 17.933594 94.429688 6.179688 79.929688 6.179688 Z M 79.929688 6.179688 " clip-rule="nonzero"/></clipPath><clipPath id="e95fdb230e"><path d="M 41 48 L 45 48 L 45 68 L 41 68 Z M 41 48 " clip-rule="nonzero"/></clipPath><clipPath id="5ae252239c"><path d="M 79.929688 6.179688 L 28.058594 6.179688 C 13.5625 6.179688 1.808594 17.933594 1.808594 32.429688 L 1.808594 75.570312 C 1.808594 90.066406 13.5625 101.820312 28.058594 101.820312 L 79.929688 101.820312 C 94.429688 101.820312 106.179688 90.066406 106.179688 75.570312 L 106.179688 32.429688 C 106.179688 17.933594 94.429688 6.179688 79.929688 6.179688 Z M 79.929688 6.179688 " clip-rule="nonzero"/></clipPath><clipPath id="70340c03e4"><path d="M 63 47 L 67 47 L 67 61 L 63 61 Z M 63 47 " clip-rule="nonzero"/></clipPath><clipPath id="b8d0cbbe07"><path d="M 79.929688 6.179688 L 28.058594 6.179688 C 13.5625 6.179688 1.808594 17.933594 1.808594 32.429688 L 1.808594 75.570312 C 1.808594 90.066406 13.5625 101.820312 28.058594 101.820312 L 79.929688 101.820312 C 94.429688 101.820312 106.179688 90.066406 106.179688 75.570312 L 106.179688 32.429688 C 106.179688 17.933594 94.429688 6.179688 79.929688 6.179688 Z M 79.929688 6.179688 " clip-rule="nonzero"/></clipPath><clipPath id="3476f51a94"><path d="M 85 45 L 96 45 L 96 67 L 85 67 Z M 85 45 " clip-rule="nonzero"/></clipPath><clipPath id="2285e37890"><path d="M 79.929688 6.179688 L 28.058594 6.179688 C 13.5625 6.179688 1.808594 17.933594 1.808594 32.429688 L 1.808594 75.570312 C 1.808594 90.066406 13.5625 101.820312 28.058594 101.820312 L 79.929688 101.820312 C 94.429688 101.820312 106.179688 90.066406 106.179688 75.570312 L 106.179688 32.429688 C 106.179688 17.933594 94.429688 6.179688 79.929688 6.179688 Z M 79.929688 6.179688 " clip-rule="nonzero"/></clipPath><clipPath id="3edfb0f126"><path d="M 47 89 L 72 89 L 72 96 L 47 96 Z M 47 89 " clip-rule="nonzero"/></clipPath><clipPath id="579459e59f"><path d="M 79.929688 6.179688 L 28.058594 6.179688 C 13.5625 6.179688 1.808594 17.933594 1.808594 32.429688 L 1.808594 75.570312 C 1.808594 90.066406 13.5625 101.820312 28.058594 101.820312 L 79.929688 101.820312 C 94.429688 101.820312 106.179688 90.066406 106.179688 75.570312 L 106.179688 32.429688 C 106.179688 17.933594 94.429688 6.179688 79.929688 6.179688 Z M 79.929688 6.179688 " clip-rule="nonzero"/></clipPath><clipPath id="b95b5496b1"><path d="M 6 45 L 103 45 L 103 102 L 6 102 Z M 6 45 " clip-rule="nonzero"/></clipPath><clipPath id="c215462dca"><path d="M 79.929688 6.179688 L 28.058594 6.179688 C 13.5625 6.179688 1.808594 17.933594 1.808594 32.429688 L 1.808594 75.570312 C 1.808594 90.066406 13.5625 101.820312 28.058594 101.820312 L 79.929688 101.820312 C 94.429688 101.820312 106.179688 90.066406 106.179688 75.570312 L 106.179688 32.429688 C 106.179688 17.933594 94.429688 6.179688 79.929688 6.179688 Z M 79.929688 6.179688 " clip-rule="nonzero"/></clipPath><clipPath id="67b803c9d1"><path d="M 33 78 L 39 78 L 39 84 L 33 84 Z M 33 78 " clip-rule="nonzero"/></clipPath><clipPath id="8188f2714e"><path d="M 79.929688 6.179688 L 28.058594 6.179688 C 13.5625 6.179688 1.808594 17.933594 1.808594 32.429688 L 1.808594 75.570312 C 1.808594 90.066406 13.5625 101.820312 28.058594 101.820312 L 79.929688 101.820312 C 94.429688 101.820312 106.179688 90.066406 106.179688 75.570312 L 106.179688 32.429688 C 106.179688 17.933594 94.429688 6.179688 79.929688 6.179688 Z M 79.929688 6.179688 " clip-rule="nonzero"/></clipPath><clipPath id="20afcc3d72"><path d="M 75 58 L 93 58 L 93 85 L 75 85 Z M 75 58 " clip-rule="nonzero"/></clipPath><clipPath id="26fd859fa4"><path d="M 79.929688 6.179688 L 28.058594 6.179688 C 13.5625 6.179688 1.808594 17.933594 1.808594 32.429688 L 1.808594 75.570312 C 1.808594 90.066406 13.5625 101.820312 28.058594 101.820312 L 79.929688 101.820312 C 94.429688 101.820312 106.179688 90.066406 106.179688 75.570312 L 106.179688 32.429688 C 106.179688 17.933594 94.429688 6.179688 79.929688 6.179688 Z M 79.929688 6.179688 " clip-rule="nonzero"/></clipPath><clipPath id="f1dc390100"><path d="M 78 77 L 85 77 L 85 83 L 78 83 Z M 78 77 " clip-rule="nonzero"/></clipPath><clipPath id="b37f8080e3"><path d="M 79.929688 6.179688 L 28.058594 6.179688 C 13.5625 6.179688 1.808594 17.933594 1.808594 32.429688 L 1.808594 75.570312 C 1.808594 90.066406 13.5625 101.820312 28.058594 101.820312 L 79.929688 101.820312 C 94.429688 101.820312 106.179688 90.066406 106.179688 75.570312 L 106.179688 32.429688 C 106.179688 17.933594 94.429688 6.179688 79.929688 6.179688 Z M 79.929688 6.179688 " clip-rule="nonzero"/></clipPath><clipPath id="8249bf1ea9"><path d="M 57 27 L 60 27 L 60 30 L 57 30 Z M 57 27 " clip-rule="nonzero"/></clipPath><clipPath id="14ad1744f8"><path d="M 79.929688 6.179688 L 28.058594 6.179688 C 13.5625 6.179688 1.808594 17.933594 1.808594 32.429688 L 1.808594 75.570312 C 1.808594 90.066406 13.5625 101.820312 28.058594 101.820312 L 79.929688 101.820312 C 94.429688 101.820312 106.179688 90.066406 106.179688 75.570312 L 106.179688 32.429688 C 106.179688 17.933594 94.429688 6.179688 79.929688 6.179688 Z M 79.929688 6.179688 " clip-rule="nonzero"/></clipPath><clipPath id="71443d99ad"><path d="M 71 18 L 74 18 L 74 21 L 71 21 Z M 71 18 " clip-rule="nonzero"/></clipPath><clipPath id="1aa3af983d"><path d="M 79.929688 6.179688 L 28.058594 6.179688 C 13.5625 6.179688 1.808594 17.933594 1.808594 32.429688 L 1.808594 75.570312 C 1.808594 90.066406 13.5625 101.820312 28.058594 101.820312 L 79.929688 101.820312 C 94.429688 101.820312 106.179688 90.066406 106.179688 75.570312 L 106.179688 32.429688 C 106.179688 17.933594 94.429688 6.179688 79.929688 6.179688 Z M 79.929688 6.179688 " clip-rule="nonzero"/></clipPath><clipPath id="f1b2502d1d"><path d="M 74 25 L 76 25 L 76 28 L 74 28 Z M 74 25 " clip-rule="nonzero"/></clipPath><clipPath id="a10661a417"><path d="M 79.929688 6.179688 L 28.058594 6.179688 C 13.5625 6.179688 1.808594 17.933594 1.808594 32.429688 L 1.808594 75.570312 C 1.808594 90.066406 13.5625 101.820312 28.058594 101.820312 L 79.929688 101.820312 C 94.429688 101.820312 106.179688 90.066406 106.179688 75.570312 L 106.179688 32.429688 C 106.179688 17.933594 94.429688 6.179688 79.929688 6.179688 Z M 79.929688 6.179688 " clip-rule="nonzero"/></clipPath><clipPath id="01ac30118d"><path d="M 50 26 L 53 26 L 53 28 L 50 28 Z M 50 26 " clip-rule="nonzero"/></clipPath><clipPath id="738bb3e62d"><path d="M 79.929688 6.179688 L 28.058594 6.179688 C 13.5625 6.179688 1.808594 17.933594 1.808594 32.429688 L 1.808594 75.570312 C 1.808594 90.066406 13.5625 101.820312 28.058594 101.820312 L 79.929688 101.820312 C 94.429688 101.820312 106.179688 90.066406 106.179688 75.570312 L 106.179688 32.429688 C 106.179688 17.933594 94.429688 6.179688 79.929688 6.179688 Z M 79.929688 6.179688 " clip-rule="nonzero"/></clipPath><clipPath id="a3ed68cf01"><path d="M 58 14 L 61 14 L 61 16 L 58 16 Z M 58 14 " clip-rule="nonzero"/></clipPath><clipPath id="745730e706"><path d="M 79.929688 6.179688 L 28.058594 6.179688 C 13.5625 6.179688 1.808594 17.933594 1.808594 32.429688 L 1.808594 75.570312 C 1.808594 90.066406 13.5625 101.820312 28.058594 101.820312 L 79.929688 101.820312 C 94.429688 101.820312 106.179688 90.066406 106.179688 75.570312 L 106.179688 32.429688 C 106.179688 17.933594 94.429688 6.179688 79.929688 6.179688 Z M 79.929688 6.179688 " clip-rule="nonzero"/></clipPath><clipPath id="1ebe68eff6"><path d="M 54 37 L 56 37 L 56 39 L 54 39 Z M 54 37 " clip-rule="nonzero"/></clipPath><clipPath id="acbbbb7ed7"><path d="M 79.929688 6.179688 L 28.058594 6.179688 C 13.5625 6.179688 1.808594 17.933594 1.808594 32.429688 L 1.808594 75.570312 C 1.808594 90.066406 13.5625 101.820312 28.058594 101.820312 L 79.929688 101.820312 C 94.429688 101.820312 106.179688 90.066406 106.179688 75.570312 L 106.179688 32.429688 C 106.179688 17.933594 94.429688 6.179688 79.929688 6.179688 Z M 79.929688 6.179688 " clip-rule="nonzero"/></clipPath><clipPath id="6730d441f9"><path d="M 33 25 L 36 25 L 36 28 L 33 28 Z M 33 25 " clip-rule="nonzero"/></clipPath><clipPath id="26215b72bd"><path d="M 79.929688 6.179688 L 28.058594 6.179688 C 13.5625 6.179688 1.808594 17.933594 1.808594 32.429688 L 1.808594 75.570312 C 1.808594 90.066406 13.5625 101.820312 28.058594 101.820312 L 79.929688 101.820312 C 94.429688 101.820312 106.179688 90.066406 106.179688 75.570312 L 106.179688 32.429688 C 106.179688 17.933594 94.429688 6.179688 79.929688 6.179688 Z M 79.929688 6.179688 " clip-rule="nonzero"/></clipPath><clipPath id="2e61930717"><path d="M 39 21 L 42 21 L 42 24 L 39 24 Z M 39 21 " clip-rule="nonzero"/></clipPath><clipPath id="9a549882cf"><path d="M 79.929688 6.179688 L 28.058594 6.179688 C 13.5625 6.179688 1.808594 17.933594 1.808594 32.429688 L 1.808594 75.570312 C 1.808594 90.066406 13.5625 101.820312 28.058594 101.820312 L 79.929688 101.820312 C 94.429688 101.820312 106.179688 90.066406 106.179688 75.570312 L 106.179688 32.429688 C 106.179688 17.933594 94.429688 6.179688 79.929688 6.179688 Z M 79.929688 6.179688 " clip-rule="nonzero"/></clipPath><clipPath id="7006c8207d"><path d="M 38 15 L 41 15 L 41 18 L 38 18 Z M 38 15 " clip-rule="nonzero"/></clipPath><clipPath id="022565a293"><path d="M 79.929688 6.179688 L 28.058594 6.179688 C 13.5625 6.179688 1.808594 17.933594 1.808594 32.429688 L 1.808594 75.570312 C 1.808594 90.066406 13.5625 101.820312 28.058594 101.820312 L 79.929688 101.820312 C 94.429688 101.820312 106.179688 90.066406 106.179688 75.570312 L 106.179688 32.429688 C 106.179688 17.933594 94.429688 6.179688 79.929688 6.179688 Z M 79.929688 6.179688 " clip-rule="nonzero"/></clipPath><clipPath id="7e7000de8e"><path d="M 52 12 L 54 12 L 54 15 L 52 15 Z M 52 12 " clip-rule="nonzero"/></clipPath><clipPath id="40e0dc00ee"><path d="M 79.929688 6.179688 L 28.058594 6.179688 C 13.5625 6.179688 1.808594 17.933594 1.808594 32.429688 L 1.808594 75.570312 C 1.808594 90.066406 13.5625 101.820312 28.058594 101.820312 L 79.929688 101.820312 C 94.429688 101.820312 106.179688 90.066406 106.179688 75.570312 L 106.179688 32.429688 C 106.179688 17.933594 94.429688 6.179688 79.929688 6.179688 Z M 79.929688 6.179688 " clip-rule="nonzero"/></clipPath><clipPath id="e1cddc5d7d"><path d="M 32 15 L 34 15 L 34 18 L 32 18 Z M 32 15 " clip-rule="nonzero"/></clipPath><clipPath id="79eb41d705"><path d="M 79.929688 6.179688 L 28.058594 6.179688 C 13.5625 6.179688 1.808594 17.933594 1.808594 32.429688 L 1.808594 75.570312 C 1.808594 90.066406 13.5625 101.820312 28.058594 101.820312 L 79.929688 101.820312 C 94.429688 101.820312 106.179688 90.066406 106.179688 75.570312 L 106.179688 32.429688 C 106.179688 17.933594 94.429688 6.179688 79.929688 6.179688 Z M 79.929688 6.179688 " clip-rule="nonzero"/></clipPath><clipPath id="0bc5a89f10"><path d="M 25 30 L 28 30 L 28 33 L 25 33 Z M 25 30 " clip-rule="nonzero"/></clipPath><clipPath id="326464c09d"><path d="M 79.929688 6.179688 L 28.058594 6.179688 C 13.5625 6.179688 1.808594 17.933594 1.808594 32.429688 L 1.808594 75.570312 C 1.808594 90.066406 13.5625 101.820312 28.058594 101.820312 L 79.929688 101.820312 C 94.429688 101.820312 106.179688 90.066406 106.179688 75.570312 L 106.179688 32.429688 C 106.179688 17.933594 94.429688 6.179688 79.929688 6.179688 Z M 79.929688 6.179688 " clip-rule="nonzero"/></clipPath><clipPath id="7811e4e449"><path d="M 15 36 L 18 36 L 18 39 L 15 39 Z M 15 36 " clip-rule="nonzero"/></clipPath><clipPath id="c73bbf8845"><path d="M 79.929688 6.179688 L 28.058594 6.179688 C 13.5625 6.179688 1.808594 17.933594 1.808594 32.429688 L 1.808594 75.570312 C 1.808594 90.066406 13.5625 101.820312 28.058594 101.820312 L 79.929688 101.820312 C 94.429688 101.820312 106.179688 90.066406 106.179688 75.570312 L 106.179688 32.429688 C 106.179688 17.933594 94.429688 6.179688 79.929688 6.179688 Z M 79.929688 6.179688 " clip-rule="nonzero"/></clipPath><clipPath id="7d5be1367f"><path d="M 16 30 L 18 30 L 18 33 L 16 33 Z M 16 30 " clip-rule="nonzero"/></clipPath><clipPath id="becc3b087e"><path d="M 79.929688 6.179688 L 28.058594 6.179688 C 13.5625 6.179688 1.808594 17.933594 1.808594 32.429688 L 1.808594 75.570312 C 1.808594 90.066406 13.5625 101.820312 28.058594 101.820312 L 79.929688 101.820312 C 94.429688 101.820312 106.179688 90.066406 106.179688 75.570312 L 106.179688 32.429688 C 106.179688 17.933594 94.429688 6.179688 79.929688 6.179688 Z M 79.929688 6.179688 " clip-rule="nonzero"/></clipPath><clipPath id="c120fd75ac"><path d="M 29 35 L 31 35 L 31 37 L 29 37 Z M 29 35 " clip-rule="nonzero"/></clipPath><clipPath id="6bbb6a2666"><path d="M 79.929688 6.179688 L 28.058594 6.179688 C 13.5625 6.179688 1.808594 17.933594 1.808594 32.429688 L 1.808594 75.570312 C 1.808594 90.066406 13.5625 101.820312 28.058594 101.820312 L 79.929688 101.820312 C 94.429688 101.820312 106.179688 90.066406 106.179688 75.570312 L 106.179688 32.429688 C 106.179688 17.933594 94.429688 6.179688 79.929688 6.179688 Z M 79.929688 6.179688 " clip-rule="nonzero"/></clipPath><clipPath id="78c8c916bc"><path d="M 15 46 L 17 46 L 17 49 L 15 49 Z M 15 46 " clip-rule="nonzero"/></clipPath><clipPath id="46230bd578"><path d="M 79.929688 6.179688 L 28.058594 6.179688 C 13.5625 6.179688 1.808594 17.933594 1.808594 32.429688 L 1.808594 75.570312 C 1.808594 90.066406 13.5625 101.820312 28.058594 101.820312 L 79.929688 101.820312 C 94.429688 101.820312 106.179688 90.066406 106.179688 75.570312 L 106.179688 32.429688 C 106.179688 17.933594 94.429688 6.179688 79.929688 6.179688 Z M 79.929688 6.179688 " clip-rule="nonzero"/></clipPath><clipPath id="a19c667b83"><path d="M 22 44 L 25 44 L 25 47 L 22 47 Z M 22 44 " clip-rule="nonzero"/></clipPath><clipPath id="2ab8201e6d"><path d="M 79.929688 6.179688 L 28.058594 6.179688 C 13.5625 6.179688 1.808594 17.933594 1.808594 32.429688 L 1.808594 75.570312 C 1.808594 90.066406 13.5625 101.820312 28.058594 101.820312 L 79.929688 101.820312 C 94.429688 101.820312 106.179688 90.066406 106.179688 75.570312 L 106.179688 32.429688 C 106.179688 17.933594 94.429688 6.179688 79.929688 6.179688 Z M 79.929688 6.179688 " clip-rule="nonzero"/></clipPath><clipPath id="345ce7434f"><path d="M 42 39 L 45 39 L 45 41 L 42 41 Z M 42 39 " clip-rule="nonzero"/></clipPath><clipPath id="93f2b1eb54"><path d="M 79.929688 6.179688 L 28.058594 6.179688 C 13.5625 6.179688 1.808594 17.933594 1.808594 32.429688 L 1.808594 75.570312 C 1.808594 90.066406 13.5625 101.820312 28.058594 101.820312 L 79.929688 101.820312 C 94.429688 101.820312 106.179688 90.066406 106.179688 75.570312 L 106.179688 32.429688 C 106.179688 17.933594 94.429688 6.179688 79.929688 6.179688 Z M 79.929688 6.179688 " clip-rule="nonzero"/></clipPath><clipPath id="2e9948e6c1"><path d="M 35 40 L 38 40 L 38 43 L 35 43 Z M 35 40 " clip-rule="nonzero"/></clipPath><clipPath id="1842fdd7ba"><path d="M 79.929688 6.179688 L 28.058594 6.179688 C 13.5625 6.179688 1.808594 17.933594 1.808594 32.429688 L 1.808594 75.570312 C 1.808594 90.066406 13.5625 101.820312 28.058594 101.820312 L 79.929688 101.820312 C 94.429688 101.820312 106.179688 90.066406 106.179688 75.570312 L 106.179688 32.429688 C 106.179688 17.933594 94.429688 6.179688 79.929688 6.179688 Z M 79.929688 6.179688 " clip-rule="nonzero"/></clipPath><clipPath id="1c93f824cf"><path d="M 40 32 L 43 32 L 43 35 L 40 35 Z M 40 32 " clip-rule="nonzero"/></clipPath><clipPath id="1c81ee6c2c"><path d="M 79.929688 6.179688 L 28.058594 6.179688 C 13.5625 6.179688 1.808594 17.933594 1.808594 32.429688 L 1.808594 75.570312 C 1.808594 90.066406 13.5625 101.820312 28.058594 101.820312 L 79.929688 101.820312 C 94.429688 101.820312 106.179688 90.066406 106.179688 75.570312 L 106.179688 32.429688 C 106.179688 17.933594 94.429688 6.179688 79.929688 6.179688 Z M 79.929688 6.179688 " clip-rule="nonzero"/></clipPath><clipPath id="885826c015"><path d="M 52 45 L 54 45 L 54 48 L 52 48 Z M 52 45 " clip-rule="nonzero"/></clipPath><clipPath id="91d3be8a9a"><path d="M 79.929688 6.179688 L 28.058594 6.179688 C 13.5625 6.179688 1.808594 17.933594 1.808594 32.429688 L 1.808594 75.570312 C 1.808594 90.066406 13.5625 101.820312 28.058594 101.820312 L 79.929688 101.820312 C 94.429688 101.820312 106.179688 90.066406 106.179688 75.570312 L 106.179688 32.429688 C 106.179688 17.933594 94.429688 6.179688 79.929688 6.179688 Z M 79.929688 6.179688 " clip-rule="nonzero"/></clipPath><clipPath id="c122e16190"><path d="M 64 34 L 67 34 L 67 37 L 64 37 Z M 64 34 " clip-rule="nonzero"/></clipPath><clipPath id="b5a491a955"><path d="M 79.929688 6.179688 L 28.058594 6.179688 C 13.5625 6.179688 1.808594 17.933594 1.808594 32.429688 L 1.808594 75.570312 C 1.808594 90.066406 13.5625 101.820312 28.058594 101.820312 L 79.929688 101.820312 C 94.429688 101.820312 106.179688 90.066406 106.179688 75.570312 L 106.179688 32.429688 C 106.179688 17.933594 94.429688 6.179688 79.929688 6.179688 Z M 79.929688 6.179688 " clip-rule="nonzero"/></clipPath><clipPath id="e858f03a36"><path d="M 85 31 L 88 31 L 88 34 L 85 34 Z M 85 31 " clip-rule="nonzero"/></clipPath><clipPath id="086f1802a6"><path d="M 79.929688 6.179688 L 28.058594 6.179688 C 13.5625 6.179688 1.808594 17.933594 1.808594 32.429688 L 1.808594 75.570312 C 1.808594 90.066406 13.5625 101.820312 28.058594 101.820312 L 79.929688 101.820312 C 94.429688 101.820312 106.179688 90.066406 106.179688 75.570312 L 106.179688 32.429688 C 106.179688 17.933594 94.429688 6.179688 79.929688 6.179688 Z M 79.929688 6.179688 " clip-rule="nonzero"/></clipPath><clipPath id="2f5338652e"><path d="M 96 41 L 98 41 L 98 43 L 96 43 Z M 96 41 " clip-rule="nonzero"/></clipPath><clipPath id="360c7bab50"><path d="M 79.929688 6.179688 L 28.058594 6.179688 C 13.5625 6.179688 1.808594 17.933594 1.808594 32.429688 L 1.808594 75.570312 C 1.808594 90.066406 13.5625 101.820312 28.058594 101.820312 L 79.929688 101.820312 C 94.429688 101.820312 106.179688 90.066406 106.179688 75.570312 L 106.179688 32.429688 C 106.179688 17.933594 94.429688 6.179688 79.929688 6.179688 Z M 79.929688 6.179688 " clip-rule="nonzero"/></clipPath><clipPath id="b9d0abc82a"><path d="M 81 35 L 83 35 L 83 38 L 81 38 Z M 81 35 " clip-rule="nonzero"/></clipPath><clipPath id="ffed7d3b9d"><path d="M 79.929688 6.179688 L 28.058594 6.179688 C 13.5625 6.179688 1.808594 17.933594 1.808594 32.429688 L 1.808594 75.570312 C 1.808594 90.066406 13.5625 101.820312 28.058594 101.820312 L 79.929688 101.820312 C 94.429688 101.820312 106.179688 90.066406 106.179688 75.570312 L 106.179688 32.429688 C 106.179688 17.933594 94.429688 6.179688 79.929688 6.179688 Z M 79.929688 6.179688 " clip-rule="nonzero"/></clipPath><clipPath id="a8b6517b41"><path d="M 83 41 L 85 41 L 85 44 L 83 44 Z M 83 41 " clip-rule="nonzero"/></clipPath><clipPath id="e9b92c7a89"><path d="M 79.929688 6.179688 L 28.058594 6.179688 C 13.5625 6.179688 1.808594 17.933594 1.808594 32.429688 L 1.808594 75.570312 C 1.808594 90.066406 13.5625 101.820312 28.058594 101.820312 L 79.929688 101.820312 C 94.429688 101.820312 106.179688 90.066406 106.179688 75.570312 L 106.179688 32.429688 C 106.179688 17.933594 94.429688 6.179688 79.929688 6.179688 Z M 79.929688 6.179688 " clip-rule="nonzero"/></clipPath><clipPath id="39c3038206"><path d="M 72 38 L 75 38 L 75 40 L 72 40 Z M 72 38 " clip-rule="nonzero"/></clipPath><clipPath id="cda15a6a8a"><path d="M 79.929688 6.179688 L 28.058594 6.179688 C 13.5625 6.179688 1.808594 17.933594 1.808594 32.429688 L 1.808594 75.570312 C 1.808594 90.066406 13.5625 101.820312 28.058594 101.820312 L 79.929688 101.820312 C 94.429688 101.820312 106.179688 90.066406 106.179688 75.570312 L 106.179688 32.429688 C 106.179688 17.933594 94.429688 6.179688 79.929688 6.179688 Z M 79.929688 6.179688 " clip-rule="nonzero"/></clipPath><clipPath id="74f11900ae"><path d="M 66 44 L 69 44 L 69 47 L 66 47 Z M 66 44 " clip-rule="nonzero"/></clipPath><clipPath id="75a75230c9"><path d="M 79.929688 6.179688 L 28.058594 6.179688 C 13.5625 6.179688 1.808594 17.933594 1.808594 32.429688 L 1.808594 75.570312 C 1.808594 90.066406 13.5625 101.820312 28.058594 101.820312 L 79.929688 101.820312 C 94.429688 101.820312 106.179688 90.066406 106.179688 75.570312 L 106.179688 32.429688 C 106.179688 17.933594 94.429688 6.179688 79.929688 6.179688 Z M 79.929688 6.179688 " clip-rule="nonzero"/></clipPath><clipPath id="99df75c5d2"><path d="M 72 45 L 75 45 L 75 47 L 72 47 Z M 72 45 " clip-rule="nonzero"/></clipPath><clipPath id="6913225238"><path d="M 79.929688 6.179688 L 28.058594 6.179688 C 13.5625 6.179688 1.808594 17.933594 1.808594 32.429688 L 1.808594 75.570312 C 1.808594 90.066406 13.5625 101.820312 28.058594 101.820312 L 79.929688 101.820312 C 94.429688 101.820312 106.179688 90.066406 106.179688 75.570312 L 106.179688 32.429688 C 106.179688 17.933594 94.429688 6.179688 79.929688 6.179688 Z M 79.929688 6.179688 " clip-rule="nonzero"/></clipPath><clipPath id="2a8449adfc"><path d="M 22 21 L 25 21 L 25 24 L 22 24 Z M 22 21 " clip-rule="nonzero"/></clipPath><clipPath id="789b18a82c"><path d="M 79.929688 6.179688 L 28.058594 6.179688 C 13.5625 6.179688 1.808594 17.933594 1.808594 32.429688 L 1.808594 75.570312 C 1.808594 90.066406 13.5625 101.820312 28.058594 101.820312 L 79.929688 101.820312 C 94.429688 101.820312 106.179688 90.066406 106.179688 75.570312 L 106.179688 32.429688 C 106.179688 17.933594 94.429688 6.179688 79.929688 6.179688 Z M 79.929688 6.179688 " clip-rule="nonzero"/></clipPath><clipPath id="a1f1612540"><path d="M 44 57 L 48 57 L 48 61 L 44 61 Z M 44 57 " clip-rule="nonzero"/></clipPath><clipPath id="0532db7a0f"><path d="M 79.929688 6.179688 L 28.058594 6.179688 C 13.5625 6.179688 1.808594 17.933594 1.808594 32.429688 L 1.808594 75.570312 C 1.808594 90.066406 13.5625 101.820312 28.058594 101.820312 L 79.929688 101.820312 C 94.429688 101.820312 106.179688 90.066406 106.179688 75.570312 L 106.179688 32.429688 C 106.179688 17.933594 94.429688 6.179688 79.929688 6.179688 Z M 79.929688 6.179688 " clip-rule="nonzero"/></clipPath><clipPath id="b568527c26"><path d="M 49 38 L 68 38 L 68 61 L 49 61 Z M 49 38 " clip-rule="nonzero"/></clipPath><clipPath id="61a7426e41"><path d="M 79.929688 6.179688 L 28.058594 6.179688 C 13.5625 6.179688 1.808594 17.933594 1.808594 32.429688 L 1.808594 75.570312 C 1.808594 90.066406 13.5625 101.820312 28.058594 101.820312 L 79.929688 101.820312 C 94.429688 101.820312 106.179688 90.066406 106.179688 75.570312 L 106.179688 32.429688 C 106.179688 17.933594 94.429688 6.179688 79.929688 6.179688 Z M 79.929688 6.179688 " clip-rule="nonzero"/></clipPath><clipPath id="3595960616"><path d="M 94 53 L 100 53 L 100 56 L 94 56 Z M 94 53 " clip-rule="nonzero"/></clipPath><clipPath id="8f1284c09c"><path d="M 79.929688 6.179688 L 28.058594 6.179688 C 13.5625 6.179688 1.808594 17.933594 1.808594 32.429688 L 1.808594 75.570312 C 1.808594 90.066406 13.5625 101.820312 28.058594 101.820312 L 79.929688 101.820312 C 94.429688 101.820312 106.179688 90.066406 106.179688 75.570312 L 106.179688 32.429688 C 106.179688 17.933594 94.429688 6.179688 79.929688 6.179688 Z M 79.929688 6.179688 " clip-rule="nonzero"/></clipPath><clipPath id="d71446f5c6"><path d="M 66 51 L 75 51 L 75 56 L 66 56 Z M 66 51 " clip-rule="nonzero"/></clipPath><clipPath id="80110a506d"><path d="M 79.929688 6.179688 L 28.058594 6.179688 C 13.5625 6.179688 1.808594 17.933594 1.808594 32.429688 L 1.808594 75.570312 C 1.808594 90.066406 13.5625 101.820312 28.058594 101.820312 L 79.929688 101.820312 C 94.429688 101.820312 106.179688 90.066406 106.179688 75.570312 L 106.179688 32.429688 C 106.179688 17.933594 94.429688 6.179688 79.929688 6.179688 Z M 79.929688 6.179688 " clip-rule="nonzero"/></clipPath><clipPath id="d6d3bda265"><path d="M 1.929688 6.179688 L 106.179688 6.179688 L 106.179688 60 L 1.929688 60 Z M 1.929688 6.179688 " clip-rule="nonzero"/></clipPath><clipPath id="6613a9c67e"><path d="M 79.929688 6.179688 L 28.058594 6.179688 C 13.5625 6.179688 1.808594 17.933594 1.808594 32.429688 L 1.808594 75.570312 C 1.808594 90.066406 13.5625 101.820312 28.058594 101.820312 L 79.929688 101.820312 C 94.429688 101.820312 106.179688 90.066406 106.179688 75.570312 L 106.179688 32.429688 C 106.179688 17.933594 94.429688 6.179688 79.929688 6.179688 Z M 79.929688 6.179688 " clip-rule="nonzero"/></clipPath><clipPath id="089ba7f527"><path d="M 87 52 L 95 52 L 95 57 L 87 57 Z M 87 52 " clip-rule="nonzero"/></clipPath><clipPath id="8748274b6e"><path d="M 79.929688 6.179688 L 28.058594 6.179688 C 13.5625 6.179688 1.808594 17.933594 1.808594 32.429688 L 1.808594 75.570312 C 1.808594 90.066406 13.5625 101.820312 28.058594 101.820312 L 79.929688 101.820312 C 94.429688 101.820312 106.179688 90.066406 106.179688 75.570312 L 106.179688 32.429688 C 106.179688 17.933594 94.429688 6.179688 79.929688 6.179688 Z M 79.929688 6.179688 " clip-rule="nonzero"/></clipPath><clipPath id="fb45874612"><path d="M 14 53 L 27 53 L 27 58 L 14 58 Z M 14 53 " clip-rule="nonzero"/></clipPath><clipPath id="3813774de5"><path d="M 79.929688 6.179688 L 28.058594 6.179688 C 13.5625 6.179688 1.808594 17.933594 1.808594 32.429688 L 1.808594 75.570312 C 1.808594 90.066406 13.5625 101.820312 28.058594 101.820312 L 79.929688 101.820312 C 94.429688 101.820312 106.179688 90.066406 106.179688 75.570312 L 106.179688 32.429688 C 106.179688 17.933594 94.429688 6.179688 79.929688 6.179688 Z M 79.929688 6.179688 " clip-rule="nonzero"/></clipPath></defs><g clip-path="url(#8e641d67c8)"><rect x="-10.8" fill="url(#af86df4cb6)" width="129.6" y="-10.8" height="129.599998"/></g><g clip-path="url(#584984b710)"><g clip-path="url(#e7b585a28b)"><g mask="url(#55da27aeea)"><g transform="matrix(1, 0, 0, 1, 1, 6)"><g clip-path="url(#d9d11dfae0)"><g clip-path="url(#dde0db929f)"><g clip-path="url(#9a5ede61f8)"><path fill="#fffefa" d="M 34.875 48.289062 C 34.011719 48.847656 33.039062 49.332031 31.960938 49.738281 C 27.738281 51.320312 23.421875 51.148438 22.597656 51.097656 C 19.96875 50.933594 16.175781 50.304688 13.070312 48.234375 C 12.753906 48.023438 12.449219 47.800781 12.164062 47.570312 C 12.09375 47.605469 12.019531 47.636719 11.941406 47.671875 C 11.910156 47.683594 11.878906 47.699219 11.84375 47.710938 C 11.300781 47.9375 10.472656 48.21875 9.484375 48.339844 C 7.714844 48.5625 4.398438 48.378906 2.089844 44.675781 C 1.15625 43.179688 0.828125 41.765625 0.828125 40.523438 C 0.828125 37.914062 2.265625 36.042969 2.5625 35.6875 C 2.859375 35.300781 4.59375 33.171875 7.726562 32.253906 C 7.503906 31.679688 7.335938 31.078125 7.238281 30.457031 C 7.148438 29.886719 7.101562 29.328125 7.101562 28.777344 C 7.101562 26.414062 7.925781 24.25 9.523438 22.441406 C 11.230469 20.507812 13.789062 19.070312 16.707031 18.335938 C 16.621094 18.082031 16.539062 17.808594 16.476562 17.515625 C 16.375 17.0625 16.304688 16.539062 16.304688 15.960938 C 16.304688 14.621094 16.683594 13 17.964844 11.3125 C 20.300781 8.242188 23.429688 7.699219 25.316406 7.691406 C 25.449219 7.269531 25.625 6.855469 25.839844 6.457031 C 27.503906 3.394531 31.195312 1.679688 35.96875 1.75 C 39.734375 1.804688 43.113281 3.359375 45.308594 5.859375 C 45.816406 4.851562 46.511719 3.921875 47.378906 3.109375 C 49.339844 1.269531 51.960938 0.226562 54.753906 0.179688 C 59.589844 0.101562 64.710938 2.558594 65.242188 8.238281 C 65.25 8.351562 65.257812 8.460938 65.265625 8.570312 C 65.308594 8.550781 65.351562 8.53125 65.394531 8.511719 C 66.847656 7.859375 68.410156 7.515625 70.035156 7.488281 C 73.011719 7.4375 75.828125 8.464844 77.96875 10.378906 C 80.109375 12.289062 81.320312 14.863281 81.375 17.617188 C 81.375 17.753906 81.375 17.886719 81.371094 18.023438 C 81.917969 17.9375 82.472656 17.890625 83.035156 17.878906 C 86.007812 17.832031 88.824219 18.855469 90.964844 20.769531 C 93.105469 22.683594 94.3125 25.253906 94.367188 28.011719 C 94.371094 28.199219 94.367188 28.390625 94.359375 28.578125 C 96.613281 28.589844 98.800781 29.316406 100.683594 30.699219 C 103.34375 32.660156 105.101562 35.796875 105.15625 38.6875 C 105.21875 41.90625 104.046875 44.84375 101.859375 46.960938 C 101.304688 47.496094 100.695312 47.972656 100.03125 48.386719 C 97.890625 49.738281 95.203125 50.472656 92.136719 50.523438 C 88.121094 50.589844 84.308594 49.480469 81.402344 47.398438 C 79.945312 46.355469 78.796875 45.128906 77.992188 43.785156 C 75.816406 47.058594 71.9375 49.234375 67.519531 49.304688 C 64.285156 49.359375 61.394531 48.488281 59.164062 46.78125 C 58.871094 46.558594 58.601562 46.332031 58.351562 46.097656 C 57.820312 48.03125 56.753906 49.8125 55.21875 51.285156 C 52.890625 53.523438 49.761719 54.785156 46.40625 54.839844 C 41.464844 54.925781 36.992188 52.335938 34.875 48.289062 Z M 34.875 48.289062 " fill-opacity="1" fill-rule="nonzero"/></g></g></g></g></g></g></g><g clip-path="url(#586ea3252b)"><g clip-path="url(#148c6047ae)"><g mask="url(#5f68a5cc1a)"><g transform="matrix(1, 0, 0, 1, 7, 49)"><g clip-path="url(#cf0524a222)"><g clip-path="url(#8a788b0696)"><g clip-path="url(#0d7b146c8e)"><path fill="#000000" d="M 66.617188 49.351562 L 37.464844 48.828125 L 37.023438 47.328125 L 21.148438 47.105469 L 2.714844 31.75 L 2.714844 25.90625 L 0.855469 25.980469 L 1.179688 9.207031 L 5.632812 8.90625 L 5.84375 5.308594 L 5.84375 4.710938 C 5.878906 4.695312 5.910156 4.683594 5.941406 4.667969 C 6.019531 4.636719 6.09375 4.601562 6.164062 4.570312 C 6.449219 4.800781 6.753906 5.023438 7.070312 5.234375 C 10.179688 7.304688 13.96875 7.933594 16.597656 8.097656 C 17.421875 8.148438 21.738281 8.320312 25.960938 6.734375 C 27.039062 6.332031 28.011719 5.847656 28.875 5.285156 C 30.992188 9.332031 35.464844 11.921875 40.40625 11.839844 C 43.761719 11.785156 46.890625 10.519531 49.21875 8.285156 C 50.753906 6.808594 51.820312 5.027344 52.351562 3.09375 C 52.601562 3.328125 52.875 3.554688 53.164062 3.777344 C 55.394531 5.484375 58.285156 6.359375 61.519531 6.304688 C 65.9375 6.230469 69.8125 4.058594 71.992188 0.78125 C 72.796875 2.128906 73.945312 3.355469 75.402344 4.398438 C 78.308594 6.476562 82.121094 7.585938 86.136719 7.519531 C 89.203125 7.46875 91.890625 6.738281 94.03125 5.386719 L 95.042969 6.367188 L 95.042969 26.742188 L 92.839844 28.828125 L 91.96875 32.796875 L 80.335938 43.28125 L 67.492188 43.28125 Z M 66.617188 49.351562 " fill-opacity="1" fill-rule="nonzero"/></g></g></g></g></g></g></g><g clip-path="url(#9372f96a40)"><g clip-path="url(#e35943e193)"><path fill="#000000" d="M 50.113281 63.289062 C 50.113281 62.636719 49.707031 62.074219 49.113281 61.800781 L 49.113281 51.675781 C 49.707031 51.40625 50.113281 50.84375 50.113281 50.1875 C 50.113281 49.273438 49.3125 48.527344 48.320312 48.527344 C 47.332031 48.527344 46.527344 49.269531 46.527344 50.1875 C 46.527344 50.84375 46.9375 51.40625 47.53125 51.675781 L 47.53125 61.800781 C 46.9375 62.074219 46.527344 62.636719 46.527344 63.289062 C 46.527344 64.207031 47.332031 64.949219 48.320312 64.949219 C 49.3125 64.949219 50.113281 64.207031 50.113281 63.289062 Z M 50.113281 63.289062 " fill-opacity="1" fill-rule="nonzero"/></g></g><g clip-path="url(#95443fa634)"><g clip-path="url(#1406d4e0e2)"><path fill="#000000" d="M 20.925781 60.296875 C 20.925781 61.210938 21.726562 61.957031 22.71875 61.957031 C 23.707031 61.957031 24.507812 61.210938 24.507812 60.296875 C 24.507812 60.242188 24.507812 60.191406 24.5 60.140625 L 28.546875 57.21875 L 28.546875 51.679688 C 29.140625 51.40625 29.546875 50.84375 29.546875 50.191406 C 29.546875 49.273438 28.746094 48.53125 27.753906 48.53125 C 26.765625 48.53125 25.960938 49.273438 25.960938 50.191406 C 25.960938 50.84375 26.371094 51.40625 26.964844 51.679688 L 26.964844 56.503906 L 23.660156 58.886719 C 23.386719 58.730469 23.0625 58.636719 22.71875 58.636719 C 21.726562 58.636719 20.925781 59.378906 20.925781 60.296875 Z M 20.925781 60.296875 " fill-opacity="1" fill-rule="nonzero"/></g></g><g clip-path="url(#efec98f567)"><g clip-path="url(#1050904ab6)"><path fill="#000000" d="M 28.558594 63.917969 L 28.558594 68.242188 L 24.816406 71.707031 L 24.816406 77.8125 L 28.78125 81.484375 L 30.746094 81.484375 L 30.746094 85.570312 L 41.546875 85.570312 L 41.546875 79.0625 L 38.171875 75.9375 L 37.144531 75.9375 L 37.144531 71.824219 L 33.40625 68.359375 L 33.40625 61.582031 C 33.996094 61.3125 34.40625 60.746094 34.40625 60.09375 C 34.40625 59.175781 33.605469 58.433594 32.613281 58.433594 C 31.625 58.433594 30.820312 59.175781 30.820312 60.09375 C 30.820312 60.746094 31.230469 61.3125 31.824219 61.582031 L 31.824219 68.964844 L 35.5625 72.433594 L 35.5625 75.9375 L 30.746094 75.9375 L 30.746094 80.019531 L 29.4375 80.019531 L 26.402344 77.207031 L 26.402344 72.316406 L 30.140625 68.851562 L 30.140625 63.738281 C 30.625 63.441406 30.945312 62.933594 30.945312 62.355469 C 30.945312 61.4375 30.140625 60.695312 29.152344 60.695312 C 28.160156 60.695312 27.359375 61.4375 27.359375 62.355469 C 27.359375 63.078125 27.859375 63.695312 28.558594 63.917969 Z M 37.515625 77.402344 L 39.964844 79.671875 L 39.964844 84.101562 L 32.332031 84.101562 L 32.332031 77.402344 Z M 37.515625 77.402344 " fill-opacity="1" fill-rule="nonzero"/></g></g><g clip-path="url(#e95fdb230e)"><g clip-path="url(#5ae252239c)"><path fill="#000000" d="M 41.351562 66.222656 C 41.351562 67.140625 42.15625 67.882812 43.144531 67.882812 C 44.132812 67.882812 44.9375 67.140625 44.9375 66.222656 C 44.9375 65.570312 44.527344 65.007812 43.9375 64.734375 L 43.9375 51.675781 C 44.527344 51.40625 44.9375 50.84375 44.9375 50.1875 C 44.9375 49.273438 44.132812 48.527344 43.144531 48.527344 C 42.15625 48.527344 41.351562 49.269531 41.351562 50.1875 C 41.351562 50.84375 41.761719 51.40625 42.351562 51.675781 L 42.351562 64.734375 C 41.761719 65.007812 41.351562 65.570312 41.351562 66.222656 Z M 41.351562 66.222656 " fill-opacity="1" fill-rule="nonzero"/></g></g><g clip-path="url(#70340c03e4)"><g clip-path="url(#b8d0cbbe07)"><path fill="#000000" d="M 64.34375 50.515625 L 64.34375 56.9375 C 63.75 57.207031 63.34375 57.769531 63.34375 58.425781 C 63.34375 59.339844 64.144531 60.085938 65.136719 60.085938 C 66.125 60.085938 66.929688 59.34375 66.929688 58.425781 C 66.929688 57.769531 66.519531 57.207031 65.925781 56.9375 L 65.925781 50.515625 C 66.519531 50.246094 66.929688 49.683594 66.929688 49.027344 C 66.929688 48.113281 66.125 47.367188 65.136719 47.367188 C 64.144531 47.367188 63.34375 48.109375 63.34375 49.027344 C 63.34375 49.683594 63.75 50.246094 64.34375 50.515625 Z M 64.34375 50.515625 " fill-opacity="1" fill-rule="nonzero"/></g></g><g clip-path="url(#3476f51a94)"><g clip-path="url(#2285e37890)"><path fill="#000000" d="M 85.769531 48.578125 L 85.769531 55.847656 L 92.488281 60.679688 L 92.488281 63.636719 C 91.894531 63.910156 91.488281 64.472656 91.488281 65.125 C 91.488281 66.042969 92.289062 66.785156 93.28125 66.785156 C 94.269531 66.785156 95.070312 66.042969 95.070312 65.125 C 95.070312 64.472656 94.664062 63.910156 94.070312 63.636719 L 94.070312 59.960938 L 87.351562 55.128906 L 87.351562 48.863281 C 88.105469 48.667969 88.660156 48.027344 88.660156 47.265625 C 88.660156 46.351562 87.855469 45.605469 86.867188 45.605469 C 85.875 45.605469 85.074219 46.347656 85.074219 47.265625 C 85.074219 47.800781 85.347656 48.273438 85.769531 48.578125 Z M 85.769531 48.578125 " fill-opacity="1" fill-rule="nonzero"/></g></g><g clip-path="url(#3edfb0f126)"><g clip-path="url(#579459e59f)"><path fill="#000000" d="M 71.1875 89.28125 L 71.1875 95.285156 L 47.234375 95.285156 L 47.234375 89.28125 Z M 71.1875 89.28125 " fill-opacity="1" fill-rule="nonzero"/></g></g><g clip-path="url(#b95b5496b1)"><g clip-path="url(#c215462dca)"><path fill="#000000" d="M 71.261719 100.164062 L 72.050781 100.164062 L 72.050781 101.816406 L 73.636719 101.816406 L 73.636719 100.164062 L 74.425781 100.164062 L 74.425781 98.613281 L 75.007812 98.613281 L 75.007812 93.015625 L 87.738281 93.015625 L 99.835938 82.140625 L 100.214844 78.324219 L 102.847656 76.113281 L 102.847656 54.894531 L 97.523438 50.75 L 97.554688 49.027344 C 98.242188 48.792969 98.738281 48.183594 98.738281 47.464844 C 98.738281 46.546875 97.933594 45.804688 96.945312 45.804688 C 95.957031 45.804688 95.152344 46.546875 95.152344 47.464844 C 95.152344 48.050781 95.480469 48.5625 95.972656 48.859375 L 95.929688 51.421875 L 101.261719 55.578125 L 101.261719 75.464844 L 98.695312 77.621094 L 98.3125 81.464844 L 87.097656 91.546875 L 75.003906 91.546875 L 75.003906 89.28125 L 85.53125 89.398438 L 95.535156 80.363281 L 95.535156 76.667969 L 99.242188 74.011719 L 99.242188 58 L 92.453125 52.632812 L 92.453125 48.871094 C 93.226562 48.683594 93.796875 48.039062 93.796875 47.265625 C 93.796875 46.347656 92.992188 45.605469 92.003906 45.605469 C 91.011719 45.605469 90.210938 46.347656 90.210938 47.265625 C 90.210938 47.785156 90.46875 48.246094 90.871094 48.550781 L 90.871094 53.3125 L 97.660156 58.679688 L 97.660156 73.289062 L 93.949219 75.949219 L 93.949219 79.746094 L 84.894531 87.925781 L 75.003906 87.8125 L 75.003906 85.953125 L 74.425781 85.953125 L 74.425781 84.402344 L 73.632812 84.402344 L 73.632812 73.410156 L 80.363281 67.175781 L 80.363281 56.832031 L 72.609375 49.648438 C 72.691406 49.457031 72.738281 49.246094 72.738281 49.027344 C 72.738281 48.113281 71.9375 47.367188 70.945312 47.367188 C 69.957031 47.367188 69.152344 48.109375 69.152344 49.027344 C 69.152344 49.945312 69.957031 50.6875 70.945312 50.6875 C 71.113281 50.6875 71.273438 50.667969 71.425781 50.625 L 78.777344 57.4375 L 78.777344 66.566406 L 72.046875 72.800781 L 72.046875 84.398438 L 71.257812 84.398438 L 71.257812 85.949219 L 69.027344 85.949219 L 69.027344 84.398438 L 68.234375 84.398438 L 68.234375 71.453125 L 71.976562 67.988281 L 71.976562 60.601562 C 72.566406 60.332031 72.976562 59.769531 72.976562 59.113281 C 72.976562 58.199219 72.171875 57.453125 71.183594 57.453125 C 70.195312 57.453125 69.390625 58.195312 69.390625 59.113281 C 69.390625 59.769531 69.800781 60.332031 70.390625 60.601562 L 70.390625 67.378906 L 66.652344 70.84375 L 66.652344 84.398438 L 65.859375 84.398438 L 65.859375 85.949219 L 63.628906 85.949219 L 63.628906 84.398438 L 62.835938 84.398438 L 62.835938 69.496094 L 66.578125 66.03125 L 66.578125 64.183594 C 67.171875 63.914062 67.578125 63.351562 67.578125 62.695312 C 67.578125 61.78125 66.777344 61.035156 65.785156 61.035156 C 64.796875 61.035156 63.992188 61.777344 63.992188 62.695312 C 63.992188 63.351562 64.402344 63.914062 64.996094 64.183594 L 64.996094 65.421875 L 61.253906 68.886719 L 61.253906 84.398438 L 60.460938 84.398438 L 60.460938 85.949219 L 58.230469 85.949219 L 58.230469 84.398438 L 57.6875 84.398438 L 57.6875 66.953125 L 59.898438 66.953125 L 59.898438 65.84375 L 61.648438 65.84375 L 61.648438 64.375 L 59.898438 64.375 L 59.898438 63.351562 L 61.648438 63.351562 L 61.648438 61.882812 L 59.898438 61.882812 L 59.898438 61.117188 L 59.0625 61.117188 L 59.0625 59.554688 L 57.476562 59.554688 L 57.476562 61.117188 L 56.371094 61.117188 L 56.371094 59.554688 L 54.789062 59.554688 L 54.789062 61.117188 L 53.898438 61.117188 L 53.898438 61.882812 L 52.222656 61.882812 L 52.222656 63.351562 L 53.898438 63.351562 L 53.898438 64.375 L 52.222656 64.375 L 52.222656 65.84375 L 53.898438 65.84375 L 53.898438 66.953125 L 56.105469 66.953125 L 56.105469 84.398438 L 55.066406 84.398438 L 55.066406 85.949219 L 52.835938 85.949219 L 52.835938 84.398438 L 51.957031 84.398438 L 51.957031 74.367188 L 48.21875 70.898438 L 48.21875 69.660156 C 48.808594 69.390625 49.21875 68.828125 49.21875 68.171875 C 49.21875 67.257812 48.414062 66.511719 47.425781 66.511719 C 46.4375 66.511719 45.632812 67.253906 45.632812 68.171875 C 45.632812 68.828125 46.042969 69.390625 46.632812 69.660156 L 46.632812 71.507812 L 50.375 74.972656 L 50.375 84.398438 L 49.667969 84.398438 L 49.667969 85.949219 L 47.4375 85.949219 L 47.4375 84.398438 L 46.644531 84.398438 L 46.644531 76.78125 L 38.804688 69.53125 L 38.804688 64.777344 C 39.394531 64.507812 39.804688 63.941406 39.804688 63.289062 C 39.804688 62.371094 39 61.628906 38.011719 61.628906 C 37.019531 61.628906 36.21875 62.371094 36.21875 63.289062 C 36.21875 63.941406 36.628906 64.507812 37.21875 64.777344 L 37.21875 70.140625 L 45.0625 77.390625 L 45.0625 84.398438 L 44.269531 84.398438 L 44.269531 85.949219 L 43.414062 85.949219 L 43.414062 87.796875 L 31.101562 87.796875 L 23.5625 81.335938 L 23.5625 77.9375 L 22.0625 76.675781 L 22.0625 70.570312 L 26.125 66.804688 L 26.125 65.90625 C 26.746094 65.644531 27.183594 65.066406 27.183594 64.390625 C 27.183594 63.476562 26.378906 62.730469 25.390625 62.730469 C 24.402344 62.730469 23.597656 63.472656 23.597656 64.390625 C 23.597656 65.023438 23.980469 65.574219 24.542969 65.855469 L 24.542969 66.199219 L 20.480469 69.960938 L 20.480469 77.328125 L 21.980469 78.585938 L 21.980469 81.976562 L 30.480469 89.261719 L 43.414062 89.261719 L 43.414062 91.546875 L 29.53125 91.546875 L 13.4375 77.675781 L 13.4375 75.742188 L 18.101562 75.742188 L 18.101562 74.8125 L 19.210938 74.8125 L 19.210938 73.34375 L 18.101562 73.34375 L 18.101562 71.765625 L 19.210938 71.765625 L 19.210938 70.300781 L 18.101562 70.300781 L 18.101562 68.722656 L 19.210938 68.722656 L 19.210938 67.253906 L 18.101562 67.253906 L 18.101562 65.675781 L 19.210938 65.675781 L 19.210938 64.207031 L 18.101562 64.207031 L 18.101562 62.628906 L 19.210938 62.628906 L 19.210938 61.164062 L 18.101562 61.164062 L 18.101562 59.585938 L 19.210938 59.585938 L 19.210938 58.117188 L 18.101562 58.117188 L 18.101562 57.34375 L 13.421875 57.34375 L 13.421875 54.945312 L 20.5625 51.515625 C 20.859375 51.71875 21.226562 51.839844 21.625 51.839844 C 22.613281 51.839844 23.417969 51.097656 23.417969 50.179688 C 23.417969 49.261719 22.613281 48.519531 21.625 48.519531 C 20.632812 48.519531 19.832031 49.261719 19.832031 50.179688 C 19.832031 50.191406 19.832031 50.203125 19.832031 50.214844 L 11.839844 54.054688 L 11.839844 57.34375 L 7.195312 57.34375 L 7.195312 58.117188 L 6.082031 58.117188 L 6.082031 59.582031 L 7.195312 59.582031 L 7.195312 61.164062 L 6.082031 61.164062 L 6.082031 62.628906 L 7.195312 62.628906 L 7.195312 64.207031 L 6.082031 64.207031 L 6.082031 65.675781 L 7.195312 65.675781 L 7.195312 67.253906 L 6.082031 67.253906 L 6.082031 68.71875 L 7.195312 68.71875 L 7.195312 70.296875 L 6.082031 70.296875 L 6.082031 71.765625 L 7.195312 71.765625 L 7.195312 73.34375 L 6.082031 73.34375 L 6.082031 74.8125 L 7.195312 74.8125 L 7.195312 75.738281 L 8.886719 75.738281 L 8.886719 80.6875 L 27.441406 96.886719 L 43.414062 96.886719 L 43.414062 98.609375 L 44.269531 98.609375 L 44.269531 100.160156 L 45.0625 100.160156 L 45.0625 101.8125 L 46.644531 101.8125 L 46.644531 100.160156 L 47.4375 100.160156 L 47.4375 98.609375 L 49.667969 98.609375 L 49.667969 100.160156 L 50.460938 100.160156 L 50.460938 101.8125 L 52.042969 101.8125 L 52.042969 100.160156 L 52.835938 100.160156 L 52.835938 98.609375 L 55.066406 98.609375 L 55.066406 100.160156 L 55.855469 100.160156 L 55.855469 101.8125 L 57.441406 101.8125 L 57.441406 100.160156 L 58.230469 100.160156 L 58.230469 98.609375 L 60.460938 98.609375 L 60.460938 100.160156 L 61.253906 100.160156 L 61.253906 101.8125 L 62.835938 101.8125 L 62.835938 100.160156 L 63.628906 100.160156 L 63.628906 98.609375 L 65.859375 98.609375 L 65.859375 100.160156 L 66.652344 100.160156 L 66.652344 101.8125 L 68.234375 101.8125 L 68.234375 100.160156 L 69.027344 100.160156 L 69.027344 98.609375 L 71.257812 98.609375 L 71.257812 100.160156 Z M 55.480469 65.488281 L 55.480469 62.585938 L 58.316406 62.585938 L 58.316406 65.488281 Z M 13.371094 67.707031 C 12.84375 67.976562 12.484375 68.496094 12.484375 69.09375 C 12.484375 69.972656 13.25 70.679688 14.195312 70.679688 C 15.140625 70.679688 15.90625 69.96875 15.90625 69.09375 C 15.90625 68.472656 15.519531 67.933594 14.957031 67.675781 L 14.957031 61.519531 L 13.421875 60.230469 L 13.421875 58.816406 L 16.515625 58.816406 L 16.515625 74.277344 L 13.4375 74.277344 L 13.4375 73.128906 L 11.425781 71.441406 L 11.425781 65.054688 C 12.121094 64.855469 12.628906 64.253906 12.628906 63.542969 C 12.628906 62.664062 11.863281 61.957031 10.917969 61.957031 C 9.972656 61.957031 9.207031 62.667969 9.207031 63.542969 C 9.207031 64.039062 9.457031 64.484375 9.84375 64.773438 L 9.84375 72.089844 L 11.855469 73.777344 L 11.855469 74.277344 L 8.777344 74.277344 L 8.777344 58.816406 L 11.835938 58.816406 L 11.835938 60.882812 L 13.371094 62.167969 Z M 28.070312 95.425781 L 10.472656 80.058594 L 10.472656 75.746094 L 11.855469 75.746094 L 11.855469 78.320312 L 28.910156 93.019531 L 43.414062 93.019531 L 43.414062 95.425781 Z M 44.996094 97.148438 L 44.996094 87.417969 L 73.421875 87.417969 L 73.421875 97.148438 Z M 44.996094 97.148438 " fill-opacity="1" fill-rule="nonzero"/></g></g><g clip-path="url(#67b803c9d1)"><g clip-path="url(#8188f2714e)"><path fill="#000000" d="M 38.652344 80.75 C 38.652344 79.351562 37.421875 78.210938 35.910156 78.210938 C 34.394531 78.210938 33.164062 79.351562 33.164062 80.75 C 33.164062 82.152344 34.394531 83.292969 35.910156 83.292969 C 37.421875 83.292969 38.652344 82.152344 38.652344 80.75 Z M 34.75 80.75 C 34.75 80.160156 35.269531 79.675781 35.910156 79.675781 C 36.550781 79.675781 37.070312 80.160156 37.070312 80.75 C 37.070312 81.34375 36.550781 81.828125 35.910156 81.828125 C 35.269531 81.828125 34.75 81.34375 34.75 80.75 Z M 34.75 80.75 " fill-opacity="1" fill-rule="nonzero"/></g></g><g clip-path="url(#20afcc3d72)"><g clip-path="url(#26fd859fa4)"><path fill="#000000" d="M 92.699219 76.738281 L 92.699219 70.632812 L 88.957031 67.167969 L 88.957031 63.917969 C 89.65625 63.691406 90.15625 63.078125 90.15625 62.355469 C 90.15625 61.4375 89.355469 60.695312 88.367188 60.695312 C 87.375 60.695312 86.574219 61.4375 86.574219 62.355469 C 86.574219 62.933594 86.890625 63.441406 87.375 63.738281 L 87.375 67.773438 L 91.117188 71.242188 L 91.117188 76.128906 L 88.078125 78.941406 L 86.769531 78.941406 L 86.769531 74.859375 L 81.953125 74.859375 L 81.953125 71.355469 L 85.695312 67.890625 L 85.695312 61.582031 C 86.285156 61.3125 86.695312 60.746094 86.695312 60.09375 C 86.695312 59.175781 85.890625 58.433594 84.902344 58.433594 C 83.914062 58.433594 83.109375 59.175781 83.109375 60.09375 C 83.109375 60.746094 83.519531 61.3125 84.109375 61.582031 L 84.109375 67.28125 L 80.371094 70.75 L 80.371094 74.859375 L 79.34375 74.859375 L 75.96875 77.988281 L 75.96875 84.492188 L 84.257812 84.492188 L 86.769531 82.167969 L 86.769531 80.410156 L 88.734375 80.410156 Z M 83.601562 83.027344 L 77.550781 83.027344 L 77.550781 78.597656 L 80 76.328125 L 85.183594 76.328125 L 85.183594 81.558594 Z M 83.601562 83.027344 " fill-opacity="1" fill-rule="nonzero"/></g></g><g clip-path="url(#f1dc390100)"><g clip-path="url(#b37f8080e3)"><path fill="#000000" d="M 78.863281 79.675781 C 78.863281 81.078125 80.09375 82.21875 81.605469 82.21875 C 83.117188 82.21875 84.351562 81.078125 84.351562 79.675781 C 84.351562 78.273438 83.117188 77.132812 81.605469 77.132812 C 80.089844 77.132812 78.863281 78.273438 78.863281 79.675781 Z M 82.765625 79.675781 C 82.765625 80.269531 82.246094 80.75 81.605469 80.75 C 80.964844 80.75 80.445312 80.269531 80.445312 79.675781 C 80.445312 79.082031 80.964844 78.601562 81.605469 78.601562 C 82.246094 78.601562 82.765625 79.082031 82.765625 79.675781 Z M 82.765625 79.675781 " fill-opacity="1" fill-rule="nonzero"/></g></g><g clip-path="url(#8249bf1ea9)"><g clip-path="url(#14ad1744f8)"><path fill="#fffefa" d="M 58.757812 29.453125 C 58.273438 29.453125 57.882812 29.089844 57.882812 28.640625 C 57.882812 28.195312 58.273438 27.832031 58.757812 27.832031 C 59.238281 27.832031 59.632812 28.195312 59.632812 28.640625 C 59.632812 29.089844 59.238281 29.453125 58.757812 29.453125 Z M 58.757812 29.453125 " fill-opacity="1" fill-rule="nonzero"/></g></g><g clip-path="url(#71443d99ad)"><g clip-path="url(#1aa3af983d)"><path fill="#fffefa" d="M 72.269531 20.078125 C 71.789062 20.078125 71.394531 19.714844 71.394531 19.265625 C 71.394531 18.820312 71.789062 18.457031 72.269531 18.457031 C 72.753906 18.457031 73.144531 18.820312 73.144531 19.265625 C 73.144531 19.714844 72.753906 20.078125 72.269531 20.078125 Z M 72.269531 20.078125 " fill-opacity="1" fill-rule="nonzero"/></g></g><g clip-path="url(#f1b2502d1d)"><g clip-path="url(#a10661a417)"><path fill="#fffefa" d="M 74.890625 27.058594 C 74.40625 27.058594 74.015625 26.695312 74.015625 26.25 C 74.015625 25.800781 74.40625 25.4375 74.890625 25.4375 C 75.375 25.4375 75.765625 25.800781 75.765625 26.25 C 75.765625 26.695312 75.375 27.058594 74.890625 27.058594 Z M 74.890625 27.058594 " fill-opacity="1" fill-rule="nonzero"/></g></g><g clip-path="url(#01ac30118d)"><g clip-path="url(#738bb3e62d)"><path fill="#fffefa" d="M 51.183594 27.84375 C 50.71875 27.730469 50.4375 27.289062 50.558594 26.855469 C 50.679688 26.421875 51.15625 26.160156 51.625 26.273438 C 52.09375 26.386719 52.371094 26.832031 52.25 27.261719 C 52.128906 27.695312 51.652344 27.957031 51.183594 27.84375 Z M 51.183594 27.84375 " fill-opacity="1" fill-rule="nonzero"/></g></g><g clip-path="url(#a3ed68cf01)"><g clip-path="url(#745730e706)"><path fill="#fffefa" d="M 59.101562 15.605469 C 58.636719 15.492188 58.355469 15.050781 58.476562 14.617188 C 58.597656 14.183594 59.074219 13.921875 59.542969 14.035156 C 60.011719 14.148438 60.289062 14.59375 60.167969 15.023438 C 60.046875 15.457031 59.570312 15.71875 59.101562 15.605469 Z M 59.101562 15.605469 " fill-opacity="1" fill-rule="nonzero"/></g></g><g clip-path="url(#1ebe68eff6)"><g clip-path="url(#acbbbb7ed7)"><path fill="#fffefa" d="M 54.933594 38.914062 C 54.691406 38.914062 54.484375 38.835938 54.316406 38.675781 C 54.144531 38.519531 54.058594 38.328125 54.058594 38.101562 C 54.058594 37.878906 54.144531 37.6875 54.316406 37.53125 C 54.484375 37.371094 54.691406 37.292969 54.933594 37.292969 C 55.175781 37.292969 55.382812 37.371094 55.550781 37.53125 C 55.722656 37.6875 55.808594 37.878906 55.808594 38.101562 C 55.808594 38.328125 55.722656 38.519531 55.550781 38.675781 C 55.382812 38.835938 55.175781 38.914062 54.933594 38.914062 Z M 54.933594 38.914062 " fill-opacity="1" fill-rule="nonzero"/></g></g><g clip-path="url(#6730d441f9)"><g clip-path="url(#26215b72bd)"><path fill="#fffefa" d="M 34.710938 27.164062 C 34.226562 27.164062 33.835938 26.800781 33.835938 26.355469 C 33.835938 25.910156 34.226562 25.546875 34.710938 25.546875 C 35.191406 25.546875 35.585938 25.910156 35.585938 26.355469 C 35.585938 26.804688 35.191406 27.164062 34.710938 27.164062 Z M 34.710938 27.164062 " fill-opacity="1" fill-rule="nonzero"/></g></g><g clip-path="url(#2e61930717)"><g clip-path="url(#9a549882cf)"><path fill="#fffefa" d="M 40.480469 23.605469 C 40 23.605469 39.605469 23.242188 39.605469 22.796875 C 39.605469 22.351562 40 21.988281 40.480469 21.988281 C 40.964844 21.988281 41.355469 22.347656 41.355469 22.796875 C 41.355469 23.246094 40.964844 23.605469 40.480469 23.605469 Z M 40.480469 23.605469 " fill-opacity="1" fill-rule="nonzero"/></g></g><g clip-path="url(#7006c8207d)"><g clip-path="url(#022565a293)"><path fill="#fffefa" d="M 39.25 17.578125 C 39.007812 17.578125 38.800781 17.5 38.632812 17.339844 C 38.460938 17.183594 38.375 16.992188 38.375 16.769531 C 38.375 16.542969 38.460938 16.355469 38.632812 16.195312 C 38.800781 16.039062 39.007812 15.957031 39.25 15.957031 C 39.492188 15.957031 39.699219 16.039062 39.867188 16.195312 C 40.039062 16.355469 40.125 16.542969 40.125 16.769531 C 40.125 16.992188 40.039062 17.183594 39.867188 17.339844 C 39.699219 17.5 39.492188 17.578125 39.25 17.578125 Z M 39.25 17.578125 " fill-opacity="1" fill-rule="nonzero"/></g></g><g clip-path="url(#7e7000de8e)"><g clip-path="url(#40e0dc00ee)"><path fill="#fffefa" d="M 53.078125 14.410156 C 52.59375 14.410156 52.203125 14.046875 52.203125 13.597656 C 52.203125 13.152344 52.59375 12.789062 53.078125 12.789062 C 53.558594 12.789062 53.953125 13.152344 53.953125 13.597656 C 53.953125 14.046875 53.558594 14.410156 53.078125 14.410156 Z M 53.078125 14.410156 " fill-opacity="1" fill-rule="nonzero"/></g></g><g clip-path="url(#e1cddc5d7d)"><g clip-path="url(#79eb41d705)"><path fill="#fffefa" d="M 32.960938 17.578125 C 32.476562 17.578125 32.085938 17.214844 32.085938 16.769531 C 32.085938 16.320312 32.476562 15.957031 32.960938 15.957031 C 33.445312 15.957031 33.835938 16.320312 33.835938 16.769531 C 33.835938 17.214844 33.441406 17.578125 32.960938 17.578125 Z M 32.960938 17.578125 " fill-opacity="1" fill-rule="nonzero"/></g></g><g clip-path="url(#0bc5a89f10)"><g clip-path="url(#326464c09d)"><path fill="#fffefa" d="M 27.027344 31.417969 C 27.027344 30.972656 26.636719 30.609375 26.152344 30.609375 C 25.667969 30.609375 25.277344 30.972656 25.277344 31.417969 C 25.277344 31.867188 25.667969 32.230469 26.152344 32.230469 C 26.636719 32.230469 27.027344 31.867188 27.027344 31.417969 Z M 27.027344 31.417969 " fill-opacity="1" fill-rule="nonzero"/></g></g><g clip-path="url(#7811e4e449)"><g clip-path="url(#c73bbf8845)"><path fill="#fffefa" d="M 16.4375 38.265625 C 16.921875 38.265625 17.3125 37.90625 17.3125 37.457031 C 17.3125 37.007812 16.921875 36.648438 16.4375 36.648438 C 15.957031 36.648438 15.5625 37.007812 15.5625 37.457031 C 15.5625 37.90625 15.957031 38.265625 16.4375 38.265625 Z M 16.4375 38.265625 " fill-opacity="1" fill-rule="nonzero"/></g></g><g clip-path="url(#7d5be1367f)"><g clip-path="url(#becc3b087e)"><path fill="#fffefa" d="M 17.875 31.417969 C 17.875 30.972656 17.484375 30.609375 17 30.609375 C 16.515625 30.609375 16.125 30.972656 16.125 31.417969 C 16.125 31.867188 16.515625 32.230469 17 32.230469 C 17.484375 32.230469 17.875 31.867188 17.875 31.417969 Z M 17.875 31.417969 " fill-opacity="1" fill-rule="nonzero"/></g></g><g clip-path="url(#c120fd75ac)"><g clip-path="url(#6bbb6a2666)"><path fill="#fffefa" d="M 29.925781 36.828125 C 29.683594 36.828125 29.476562 36.75 29.308594 36.589844 C 29.136719 36.433594 29.050781 36.242188 29.050781 36.019531 C 29.050781 35.796875 29.136719 35.605469 29.308594 35.445312 C 29.476562 35.289062 29.683594 35.207031 29.925781 35.207031 C 30.167969 35.207031 30.375 35.289062 30.542969 35.445312 C 30.714844 35.605469 30.800781 35.796875 30.800781 36.019531 C 30.800781 36.242188 30.714844 36.433594 30.542969 36.589844 C 30.375 36.75 30.167969 36.828125 29.925781 36.828125 Z M 29.925781 36.828125 " fill-opacity="1" fill-rule="nonzero"/></g></g><g clip-path="url(#78c8c916bc)"><g clip-path="url(#46230bd578)"><path fill="#fffefa" d="M 16.125 46.648438 C 15.644531 46.648438 15.25 47.011719 15.25 47.460938 C 15.25 47.90625 15.644531 48.269531 16.125 48.269531 C 16.609375 48.269531 17 47.90625 17 47.460938 C 17 47.011719 16.609375 46.648438 16.125 46.648438 Z M 16.125 46.648438 " fill-opacity="1" fill-rule="nonzero"/></g></g><g clip-path="url(#a19c667b83)"><g clip-path="url(#2ab8201e6d)"><path fill="#fffefa" d="M 23.59375 44.585938 C 23.113281 44.585938 22.71875 44.949219 22.71875 45.394531 C 22.71875 45.84375 23.113281 46.207031 23.59375 46.207031 C 24.078125 46.207031 24.46875 45.84375 24.46875 45.394531 C 24.46875 44.949219 24.078125 44.585938 23.59375 44.585938 Z M 23.59375 44.585938 " fill-opacity="1" fill-rule="nonzero"/></g></g><g clip-path="url(#345ce7434f)"><g clip-path="url(#93f2b1eb54)"><path fill="#fffefa" d="M 44.023438 39.929688 C 44.023438 39.484375 43.628906 39.121094 43.148438 39.121094 C 42.664062 39.121094 42.273438 39.484375 42.273438 39.929688 C 42.273438 40.378906 42.664062 40.742188 43.148438 40.742188 C 43.628906 40.742188 44.023438 40.378906 44.023438 39.929688 Z M 44.023438 39.929688 " fill-opacity="1" fill-rule="nonzero"/></g></g><g clip-path="url(#2e9948e6c1)"><g clip-path="url(#1842fdd7ba)"><path fill="#fffefa" d="M 35.484375 41.550781 C 35.484375 41.996094 35.875 42.359375 36.359375 42.359375 C 36.839844 42.359375 37.234375 41.996094 37.234375 41.550781 C 37.234375 41.101562 36.839844 40.738281 36.359375 40.738281 C 35.875 40.738281 35.484375 41.101562 35.484375 41.550781 Z M 35.484375 41.550781 " fill-opacity="1" fill-rule="nonzero"/></g></g><g clip-path="url(#1c93f824cf)"><g clip-path="url(#1c81ee6c2c)"><path fill="#fffefa" d="M 41.355469 32.699219 C 40.871094 32.699219 40.480469 33.0625 40.480469 33.511719 C 40.480469 33.957031 40.871094 34.320312 41.355469 34.320312 C 41.839844 34.320312 42.230469 33.957031 42.230469 33.511719 C 42.230469 33.0625 41.839844 32.699219 41.355469 32.699219 Z M 41.355469 32.699219 " fill-opacity="1" fill-rule="nonzero"/></g></g><g clip-path="url(#885826c015)"><g clip-path="url(#91d3be8a9a)"><path fill="#fffefa" d="M 53.117188 45.863281 C 52.636719 45.863281 52.242188 46.226562 52.242188 46.671875 C 52.242188 47.121094 52.636719 47.484375 53.117188 47.484375 C 53.601562 47.484375 53.992188 47.121094 53.992188 46.671875 C 53.992188 46.226562 53.601562 45.863281 53.117188 45.863281 Z M 53.117188 45.863281 " fill-opacity="1" fill-rule="nonzero"/></g></g><g clip-path="url(#c122e16190)"><g clip-path="url(#b5a491a955)"><path fill="#fffefa" d="M 65.140625 36.285156 C 64.898438 36.285156 64.691406 36.207031 64.519531 36.050781 C 64.351562 35.890625 64.265625 35.699219 64.265625 35.476562 C 64.265625 35.253906 64.351562 35.0625 64.519531 34.902344 C 64.691406 34.746094 64.898438 34.664062 65.140625 34.664062 C 65.382812 34.664062 65.585938 34.746094 65.757812 34.902344 C 65.929688 35.0625 66.015625 35.253906 66.015625 35.476562 C 66.015625 35.699219 65.929688 35.890625 65.757812 36.050781 C 65.585938 36.207031 65.382812 36.285156 65.140625 36.285156 Z M 65.140625 36.285156 " fill-opacity="1" fill-rule="nonzero"/></g></g><g clip-path="url(#e858f03a36)"><g clip-path="url(#086f1802a6)"><path fill="#fffefa" d="M 86.464844 31.574219 C 85.980469 31.574219 85.589844 31.9375 85.589844 32.386719 C 85.589844 32.832031 85.980469 33.195312 86.464844 33.195312 C 86.945312 33.195312 87.339844 32.832031 87.339844 32.386719 C 87.339844 31.9375 86.945312 31.574219 86.464844 31.574219 Z M 86.464844 31.574219 " fill-opacity="1" fill-rule="nonzero"/></g></g><g clip-path="url(#2f5338652e)"><g clip-path="url(#360c7bab50)"><path fill="#fffefa" d="M 96.976562 41.050781 C 96.492188 41.050781 96.101562 41.414062 96.101562 41.863281 C 96.101562 42.308594 96.492188 42.671875 96.976562 42.671875 C 97.457031 42.671875 97.851562 42.308594 97.851562 41.863281 C 97.851562 41.414062 97.457031 41.050781 96.976562 41.050781 Z M 96.976562 41.050781 " fill-opacity="1" fill-rule="nonzero"/></g></g><g clip-path="url(#b9d0abc82a)"><g clip-path="url(#ffed7d3b9d)"><path fill="#fffefa" d="M 82.027344 35.804688 C 81.542969 35.804688 81.152344 36.167969 81.152344 36.617188 C 81.152344 37.0625 81.542969 37.425781 82.027344 37.425781 C 82.511719 37.425781 82.902344 37.0625 82.902344 36.617188 C 82.902344 36.167969 82.511719 35.804688 82.027344 35.804688 Z M 82.027344 35.804688 " fill-opacity="1" fill-rule="nonzero"/></g></g><g clip-path="url(#a8b6517b41)"><g clip-path="url(#e9b92c7a89)"><path fill="#fffefa" d="M 84.03125 41.863281 C 83.546875 41.863281 83.15625 42.226562 83.15625 42.671875 C 83.15625 43.121094 83.546875 43.484375 84.03125 43.484375 C 84.515625 43.484375 84.90625 43.121094 84.90625 42.671875 C 84.90625 42.226562 84.515625 41.863281 84.03125 41.863281 Z M 84.03125 41.863281 " fill-opacity="1" fill-rule="nonzero"/></g></g><g clip-path="url(#39c3038206)"><g clip-path="url(#cda15a6a8a)"><path fill="#fffefa" d="M 73.144531 39.910156 C 72.902344 39.910156 72.695312 39.832031 72.527344 39.671875 C 72.355469 39.515625 72.269531 39.324219 72.269531 39.101562 C 72.269531 38.875 72.355469 38.683594 72.527344 38.527344 C 72.695312 38.367188 72.902344 38.289062 73.144531 38.289062 C 73.386719 38.289062 73.59375 38.367188 73.761719 38.527344 C 73.933594 38.683594 74.019531 38.875 74.019531 39.101562 C 74.019531 39.324219 73.933594 39.515625 73.761719 39.671875 C 73.59375 39.832031 73.386719 39.910156 73.144531 39.910156 Z M 73.144531 39.910156 " fill-opacity="1" fill-rule="nonzero"/></g></g><g clip-path="url(#74f11900ae)"><g clip-path="url(#75a75230c9)"><path fill="#fffefa" d="M 67.132812 44.515625 C 66.652344 44.515625 66.257812 44.878906 66.257812 45.328125 C 66.257812 45.773438 66.652344 46.136719 67.132812 46.136719 C 67.617188 46.136719 68.007812 45.773438 68.007812 45.328125 C 68.007812 44.878906 67.617188 44.515625 67.132812 44.515625 Z M 67.132812 44.515625 " fill-opacity="1" fill-rule="nonzero"/></g></g><g clip-path="url(#99df75c5d2)"><g clip-path="url(#6913225238)"><path fill="#fffefa" d="M 73.617188 46.945312 C 73.375 46.945312 73.171875 46.867188 73 46.710938 C 72.828125 46.550781 72.742188 46.359375 72.742188 46.136719 C 72.742188 45.914062 72.828125 45.722656 73 45.5625 C 73.171875 45.40625 73.375 45.328125 73.617188 45.328125 C 73.859375 45.328125 74.066406 45.40625 74.238281 45.5625 C 74.40625 45.722656 74.492188 45.914062 74.492188 46.136719 C 74.492188 46.359375 74.40625 46.550781 74.238281 46.710938 C 74.066406 46.867188 73.859375 46.945312 73.617188 46.945312 Z M 73.617188 46.945312 " fill-opacity="1" fill-rule="nonzero"/></g></g><g clip-path="url(#2a8449adfc)"><g clip-path="url(#789b18a82c)"><path fill="#fffefa" d="M 23.417969 23.125 C 23.179688 23.125 22.972656 23.042969 22.800781 22.886719 C 22.628906 22.726562 22.542969 22.535156 22.542969 22.3125 C 22.542969 22.089844 22.628906 21.898438 22.800781 21.738281 C 22.972656 21.582031 23.179688 21.503906 23.417969 21.503906 C 23.660156 21.503906 23.867188 21.582031 24.039062 21.738281 C 24.207031 21.898438 24.292969 22.089844 24.292969 22.3125 C 24.292969 22.535156 24.207031 22.726562 24.039062 22.886719 C 23.867188 23.042969 23.660156 23.125 23.417969 23.125 Z M 23.417969 23.125 " fill-opacity="1" fill-rule="nonzero"/></g></g><g clip-path="url(#a1f1612540)"><g clip-path="url(#0532db7a0f)"><path fill="#fffefa" d="M 47.003906 57.964844 C 46.125 57.949219 45.273438 57.820312 44.464844 57.59375 L 44.464844 60.625 C 45.289062 60.792969 46.136719 60.886719 47.003906 60.898438 Z M 47.003906 57.964844 " fill-opacity="1" fill-rule="nonzero"/></g></g><g clip-path="url(#b568527c26)"><g clip-path="url(#61a7426e41)"><path fill="#fffefa" d="M 60.171875 52.839844 C 61.246094 53.660156 62.472656 54.285156 63.816406 54.710938 L 63.816406 51.542969 C 60.875 50.195312 59.773438 47.714844 59.496094 46.945312 C 59.464844 46.800781 59.433594 46.660156 59.394531 46.519531 C 59.378906 46.460938 59.363281 46.410156 59.339844 46.355469 C 59.140625 45.21875 59.335938 43.519531 60.425781 42.390625 C 61.492188 41.28125 63.230469 40.941406 65.59375 41.382812 C 66.449219 41.542969 67.285156 41.027344 67.457031 40.234375 C 67.628906 39.4375 67.074219 38.664062 66.214844 38.503906 C 61.808594 37.683594 59.351562 39.101562 58.0625 40.433594 C 56.652344 41.898438 56.097656 43.804688 56.097656 45.507812 C 56.097656 46.292969 56.21875 47.035156 56.421875 47.667969 C 56.515625 48.140625 56.570312 48.621094 56.578125 49.109375 C 56.625 51.433594 55.691406 53.632812 53.949219 55.308594 C 52.75 56.457031 51.269531 57.261719 49.644531 57.667969 L 49.644531 60.679688 C 52.140625 60.222656 54.425781 59.074219 56.230469 57.34375 C 57.765625 55.871094 58.828125 54.089844 59.363281 52.15625 C 59.613281 52.386719 59.882812 52.617188 60.171875 52.839844 Z M 60.171875 52.839844 " fill-opacity="1" fill-rule="nonzero"/></g></g><g clip-path="url(#3595960616)"><g clip-path="url(#8f1284c09c)"><path fill="#fffefa" d="M 94.445312 53.566406 L 97.503906 55.980469 C 98.328125 55.753906 99.113281 55.464844 99.839844 55.109375 L 97.136719 53.003906 C 96.308594 53.277344 95.410156 53.464844 94.445312 53.566406 Z M 94.445312 53.566406 " fill-opacity="1" fill-rule="nonzero"/></g></g><g clip-path="url(#d71446f5c6)"><g clip-path="url(#80110a506d)"><path fill="#fffefa" d="M 66.453125 55.265625 C 67.125 55.339844 67.816406 55.378906 68.527344 55.363281 C 70.605469 55.332031 72.566406 54.828125 74.289062 53.964844 L 71.914062 51.765625 C 70.847656 52.175781 69.6875 52.410156 68.46875 52.433594 C 67.742188 52.445312 67.074219 52.398438 66.457031 52.308594 L 66.457031 55.265625 Z M 66.453125 55.265625 " fill-opacity="1" fill-rule="nonzero"/></g></g><g clip-path="url(#d6d3bda265)"><g clip-path="url(#6613a9c67e)"><path fill="#fffefa" d="M 41.824219 59.789062 L 41.824219 56.414062 C 40.261719 55.410156 39.03125 53.964844 38.351562 52.226562 C 39.5625 50.828125 40.351562 49.160156 40.691406 47.257812 C 43.671875 46.964844 46.421875 45.722656 48.527344 43.699219 C 50.90625 41.414062 52.175781 38.410156 52.121094 35.234375 C 52.105469 34.589844 52.019531 33.867188 51.839844 33.121094 C 54.003906 33.929688 56.347656 34.429688 58.304688 34.394531 C 60.757812 34.355469 63.089844 33.691406 65.117188 32.472656 C 66.777344 33.488281 68.707031 34.074219 70.699219 34.164062 C 76.488281 37.367188 77.050781 39.921875 77.503906 41.984375 C 77.617188 42.5 77.683594 43.035156 77.691406 43.574219 C 77.695312 43.730469 77.691406 43.878906 77.6875 44.019531 L 77.6875 44.042969 C 77.683594 44.203125 77.671875 44.359375 77.65625 44.515625 C 77.652344 44.527344 77.652344 44.539062 77.652344 44.550781 C 77.410156 46.953125 76.132812 49.046875 74.246094 50.472656 L 76.496094 52.558594 C 77.472656 51.78125 78.320312 50.867188 79 49.84375 C 79.804688 51.1875 80.949219 52.414062 82.410156 53.457031 C 83.277344 54.082031 84.226562 54.613281 85.242188 55.058594 L 85.242188 51.714844 C 84.929688 51.535156 84.632812 51.34375 84.347656 51.136719 C 82.109375 49.539062 80.855469 47.410156 80.8125 45.148438 C 80.808594 45.011719 80.808594 44.878906 80.816406 44.753906 C 80.816406 44.71875 80.820312 44.6875 80.820312 44.65625 C 80.832031 44.480469 80.84375 44.300781 80.851562 44.125 L 80.851562 44.097656 C 80.859375 43.914062 80.859375 43.71875 80.855469 43.519531 C 80.84375 42.800781 80.757812 42.082031 80.605469 41.394531 C 80.0625 38.9375 79.164062 36.328125 75.25 33.488281 C 75.375 33.445312 75.5 33.398438 75.621094 33.351562 C 78.5 32.210938 80.75 29.953125 81.769531 27.230469 C 82.515625 27.003906 83.296875 26.882812 84.097656 26.871094 C 86.222656 26.835938 88.238281 27.570312 89.773438 28.9375 C 91.304688 30.308594 92.167969 32.148438 92.207031 34.121094 C 92.214844 34.472656 92.195312 34.828125 92.148438 35.175781 C 91.878906 37.179688 90.710938 39.015625 88.945312 40.214844 C 88.238281 40.695312 88.085938 41.613281 88.601562 42.265625 C 89.117188 42.917969 90.109375 43.058594 90.816406 42.582031 C 92.664062 41.324219 94.042969 39.566406 94.777344 37.589844 C 96.957031 37.421875 98.640625 38.261719 99.714844 39.054688 C 101.667969 40.492188 102.953125 42.746094 102.992188 44.800781 C 103.042969 47.273438 102.207031 49.414062 100.578125 50.988281 C 100.289062 51.265625 99.972656 51.523438 99.640625 51.761719 L 102.105469 53.683594 C 102.371094 53.472656 102.621094 53.25 102.863281 53.019531 C 105.054688 50.90625 106.226562 47.964844 106.164062 44.746094 C 106.109375 41.855469 104.351562 38.71875 101.691406 36.757812 C 99.8125 35.375 97.625 34.648438 95.371094 34.636719 C 95.375 34.449219 95.378906 34.257812 95.375 34.066406 C 95.324219 31.3125 94.113281 28.742188 91.972656 26.828125 C 89.832031 24.914062 87.015625 23.890625 84.042969 23.9375 C 83.480469 23.949219 82.925781 23.996094 82.378906 24.082031 C 82.382812 23.945312 82.382812 23.8125 82.382812 23.675781 C 82.328125 20.921875 81.117188 18.347656 78.976562 16.433594 C 76.835938 14.523438 74.019531 13.496094 71.042969 13.546875 C 69.417969 13.574219 67.855469 13.917969 66.40625 14.570312 C 66.359375 14.589844 66.316406 14.609375 66.273438 14.628906 C 66.265625 14.519531 66.257812 14.410156 66.25 14.296875 C 65.71875 8.621094 60.597656 6.160156 55.761719 6.242188 C 52.96875 6.285156 50.347656 7.328125 48.382812 9.167969 C 47.515625 9.980469 46.820312 10.910156 46.3125 11.917969 C 44.121094 9.417969 40.738281 7.863281 36.972656 7.808594 C 32.203125 7.738281 28.511719 9.453125 26.847656 12.515625 C 26.632812 12.914062 26.457031 13.328125 26.324219 13.75 C 24.4375 13.757812 21.308594 14.300781 18.972656 17.371094 C 17.691406 19.058594 17.3125 20.683594 17.3125 22.019531 C 17.3125 22.597656 17.382812 23.121094 17.484375 23.574219 C 17.546875 23.867188 17.628906 24.140625 17.714844 24.394531 C 14.796875 25.128906 12.238281 26.566406 10.53125 28.5 C 8.933594 30.308594 8.109375 32.472656 8.109375 34.835938 C 8.109375 35.386719 8.15625 35.945312 8.246094 36.515625 C 8.34375 37.136719 8.507812 37.738281 8.734375 38.3125 C 5.601562 39.230469 3.867188 41.359375 3.570312 41.746094 C 3.273438 42.101562 1.835938 43.972656 1.835938 46.582031 C 1.835938 47.824219 2.164062 49.238281 3.097656 50.734375 C 5.40625 54.4375 8.722656 54.621094 10.492188 54.398438 C 10.78125 54.363281 11.054688 54.3125 11.3125 54.257812 L 11.3125 53.765625 L 15.632812 51.691406 C 13.882812 50.425781 12.5625 48.546875 12.507812 45.738281 C 12.492188 44.925781 11.769531 44.28125 10.898438 44.296875 C 10.03125 44.3125 9.34375 44.964844 9.34375 45.765625 L 9.34375 45.789062 C 9.382812 47.847656 9.953125 49.699219 11.011719 51.289062 C 10.378906 51.480469 9.539062 51.625 8.6875 51.457031 C 7.566406 51.238281 6.609375 50.503906 5.839844 49.269531 C 3.925781 46.203125 5.933594 43.710938 6.074219 43.542969 C 6.113281 43.5 6.121094 43.492188 6.15625 43.441406 C 6.21875 43.351562 7.644531 41.472656 10.324219 40.957031 C 12.082031 43 14.707031 44.300781 17.5 44.269531 C 19.488281 44.242188 22.152344 43.269531 23.628906 41.148438 C 24.65625 39.675781 25.492188 37.101562 23.652344 33.203125 C 23.300781 32.460938 22.367188 32.125 21.566406 32.449219 C 20.765625 32.773438 20.398438 33.636719 20.75 34.378906 C 21.457031 35.871094 22.066406 37.984375 20.96875 39.558594 C 20.074219 40.839844 18.378906 41.324219 17.457031 41.335938 C 14.515625 41.371094 11.84375 39.066406 11.375 36.09375 C 11.03125 33.886719 11.570312 31.957031 12.980469 30.359375 C 14.792969 28.304688 17.941406 26.976562 21.402344 26.800781 C 24.933594 26.625 28.164062 27.355469 31.007812 28.980469 C 33.140625 30.195312 34.253906 31.488281 34.285156 31.519531 C 34.3125 31.554688 34.34375 31.585938 34.371094 31.617188 C 33.949219 33.097656 34.074219 34.640625 34.78125 35.941406 C 35.722656 37.667969 37.546875 38.664062 39.789062 38.679688 C 40.664062 38.683594 41.378906 38.035156 41.382812 37.222656 L 41.382812 37.210938 C 41.382812 36.40625 40.679688 35.75 39.8125 35.746094 C 38.753906 35.738281 38.011719 35.359375 37.609375 34.617188 C 37.046875 33.589844 37.277344 32.082031 38.164062 30.949219 C 38.882812 30.035156 40.648438 28.578125 44.394531 29.117188 C 45.207031 29.230469 45.894531 29.542969 46.472656 29.976562 C 46.660156 30.164062 46.867188 30.347656 47.085938 30.527344 C 48.371094 31.882812 48.925781 33.890625 48.953125 35.289062 C 49 37.679688 48.039062 39.941406 46.246094 41.660156 C 44.453125 43.378906 42.050781 44.351562 39.46875 44.394531 C 36.234375 44.449219 33.199219 43.007812 31.351562 40.539062 C 30.851562 39.871094 29.867188 39.707031 29.148438 40.167969 C 28.703125 40.453125 28.464844 40.90625 28.464844 41.375 C 28.464844 41.660156 28.558594 41.953125 28.75 42.207031 C 30.804688 44.957031 33.972656 46.746094 37.476562 47.207031 C 36.839844 49.921875 34.929688 51.890625 31.777344 53.074219 C 30.867188 53.414062 29.949219 53.660156 29.074219 53.832031 L 29.074219 56.824219 C 30.304688 56.613281 31.640625 56.292969 32.964844 55.792969 C 34.042969 55.390625 35.015625 54.90625 35.882812 54.34375 C 37.148438 56.773438 39.265625 58.671875 41.820312 59.789062 Z M 21.234375 23.871094 C 21.117188 23.878906 21 23.886719 20.882812 23.894531 C 20.453125 22.921875 20.027344 21.082031 21.5625 19.0625 C 22.992188 17.179688 24.859375 16.75 26.0625 16.6875 C 26.222656 17.914062 26.722656 19.097656 27.546875 20.09375 C 29.441406 22.378906 32.601562 23.292969 36.222656 22.601562 C 37.078125 22.4375 37.628906 21.660156 37.453125 20.867188 C 37.273438 20.074219 36.4375 19.5625 35.582031 19.730469 C 33.160156 20.191406 31.203125 19.6875 30.058594 18.308594 C 29.027344 17.0625 28.878906 15.304688 29.675781 13.835938 C 30.769531 11.820312 33.414062 10.691406 36.925781 10.746094 C 40.914062 10.804688 44.3125 13.097656 45.382812 16.449219 C 45.597656 17.132812 45.714844 17.847656 45.730469 18.566406 L 45.730469 18.632812 C 45.730469 18.679688 45.734375 18.726562 45.730469 18.769531 C 45.730469 18.796875 45.730469 18.824219 45.730469 18.855469 L 45.730469 18.960938 C 45.722656 20.171875 45.695312 23.390625 42.738281 25.796875 C 42.632812 25.882812 42.546875 25.976562 42.472656 26.082031 C 39.769531 26.167969 37.472656 27.125 35.929688 28.84375 C 34.054688 27.105469 29.152344 23.472656 21.234375 23.875 Z M 49.371094 28.484375 C 48.5625 27.648438 47.546875 26.964844 46.3125 26.554688 C 48.863281 23.558594 48.886719 20.199219 48.898438 18.980469 L 48.898438 18.839844 C 48.898438 18.839844 48.898438 18.832031 48.898438 18.832031 C 48.898438 18.753906 48.898438 18.679688 48.898438 18.605469 C 48.898438 18.574219 48.898438 18.546875 48.898438 18.511719 C 48.878906 17.609375 48.742188 16.71875 48.492188 15.855469 C 48.621094 12.21875 51.867188 9.238281 55.816406 9.171875 C 58.9375 9.121094 62.714844 10.5 63.09375 14.550781 C 63.179688 15.476562 63.105469 16.304688 62.910156 17.035156 C 62.703125 17.292969 62.597656 17.597656 62.597656 17.898438 C 61.941406 19.324219 60.769531 20.207031 59.542969 20.417969 C 57.9375 20.699219 56.652344 19.824219 56.101562 18.078125 C 55.855469 17.300781 54.976562 16.855469 54.136719 17.085938 C 53.296875 17.3125 52.816406 18.125 53.0625 18.902344 C 54.222656 22.589844 57.445312 23.769531 60.125 23.304688 C 62.472656 22.894531 64.71875 21.214844 65.730469 18.535156 C 65.75 18.515625 65.765625 18.5 65.785156 18.484375 C 65.792969 18.480469 65.796875 18.476562 65.804688 18.46875 C 65.859375 18.421875 65.914062 18.375 65.972656 18.328125 C 66.519531 17.878906 67.128906 17.503906 67.785156 17.210938 C 68.820312 16.746094 69.9375 16.496094 71.101562 16.480469 C 73.230469 16.445312 75.25 17.179688 76.78125 18.546875 C 78.3125 19.917969 79.175781 21.757812 79.214844 23.730469 C 79.230469 24.410156 79.144531 25.089844 78.957031 25.742188 C 78.335938 27.925781 76.625 29.761719 74.375 30.65625 C 73.433594 31.03125 72.429688 31.226562 71.390625 31.246094 C 70.09375 31.265625 68.820312 30.996094 67.679688 30.464844 C 68.980469 29.144531 69.949219 27.578125 70.511719 25.847656 C 70.765625 25.070312 70.292969 24.253906 69.453125 24.019531 C 68.617188 23.785156 67.734375 24.222656 67.480469 25 C 66.898438 26.789062 65.746094 28.347656 64.152344 29.511719 C 64.152344 29.515625 64.148438 29.515625 64.148438 29.515625 C 62.453125 30.753906 60.414062 31.429688 58.25 31.464844 C 55.539062 31.507812 51.480469 30.105469 49.375 28.484375 Z M 49.371094 28.484375 " fill-opacity="1" fill-rule="nonzero"/></g></g><g clip-path="url(#089ba7f527)"><g clip-path="url(#8748274b6e)"><path fill="#fffefa" d="M 90.34375 53.46875 C 89.492188 53.339844 88.667969 53.148438 87.878906 52.890625 L 87.878906 54.890625 L 89.957031 56.382812 C 90.996094 56.53125 92.0625 56.597656 93.144531 56.582031 C 93.480469 56.574219 93.8125 56.558594 94.140625 56.539062 L 90.34375 53.535156 Z M 90.34375 53.46875 " fill-opacity="1" fill-rule="nonzero"/></g></g><g clip-path="url(#fb45874612)"><g clip-path="url(#3813774de5)"><path fill="#fffefa" d="M 26.4375 56.265625 L 26.4375 54.1875 C 25.035156 54.292969 24.023438 54.242188 23.816406 54.230469 C 22.707031 54.160156 20.53125 53.921875 18.378906 53.125 L 14.894531 54.796875 C 17.828125 56.46875 21.203125 57.007812 23.605469 57.15625 C 23.847656 57.171875 24.398438 57.195312 25.160156 57.183594 Z M 26.4375 56.265625 " fill-opacity="1" fill-rule="nonzero"/></g></g></svg>