<svg xmlns="http://www.w3.org/2000/svg" xmlns:xlink="http://www.w3.org/1999/xlink" width="500" zoomAndPan="magnify" viewBox="0 0 375 374.999991" height="500" preserveAspectRatio="xMidYMid meet" version="1.0"><defs><filter x="0%" y="0%" width="100%" height="100%" id="2d16ed09e5"><feColorMatrix values="0 0 0 0 1 0 0 0 0 1 0 0 0 0 1 0 0 0 1 0" color-interpolation-filters="sRGB"/></filter><clipPath id="174a51ffe9"><path d="M 54.25 65.621094 L 320.496094 65.621094 L 320.496094 206 L 54.25 206 Z M 54.25 65.621094 " clip-rule="nonzero"/></clipPath><mask id="a2639b142e"><g filter="url(#2d16ed09e5)"><rect x="-37.5" width="450" fill="#000000" y="-37.499999" height="449.999989" fill-opacity="0.3"/></g></mask><clipPath id="e31ff4f9b1"><path d="M 0.480469 0.621094 L 266.496094 0.621094 L 266.496094 140 L 0.480469 140 Z M 0.480469 0.621094 " clip-rule="nonzero"/></clipPath><clipPath id="e0e0d60027"><rect x="0" width="267" y="0" height="141"/></clipPath><mask id="e79e902ff9"><g filter="url(#2d16ed09e5)"><rect x="-37.5" width="450" fill="#000000" y="-37.499999" height="449.999989" fill-opacity="0.2"/></g></mask><clipPath id="b2d7dfe187"><path d="M 0.601562 0.398438 L 241 0.398438 L 241 124.960938 L 0.601562 124.960938 Z M 0.601562 0.398438 " clip-rule="nonzero"/></clipPath><clipPath id="ad40600eca"><rect x="0" width="242" y="0" height="125"/></clipPath><clipPath id="fba64e3a3e"><path d="M 65 166 L 312 166 L 312 309.371094 L 65 309.371094 Z M 65 166 " clip-rule="nonzero"/></clipPath><clipPath id="c59ccb0d37"><path d="M 54.25 65.621094 L 320.496094 65.621094 L 320.496094 203 L 54.25 203 Z M 54.25 65.621094 " clip-rule="nonzero"/></clipPath></defs><g clip-path="url(#174a51ffe9)"><g mask="url(#a2639b142e)"><g transform="matrix(1, 0, 0, 1, 54, 65)"><g clip-path="url(#e0e0d60027)"><g clip-path="url(#e31ff4f9b1)"><path fill="#fffefa" d="M 87.308594 123.238281 C 85.101562 124.664062 82.625 125.898438 79.878906 126.929688 C 69.113281 130.96875 58.113281 130.527344 56.019531 130.398438 C 49.3125 129.980469 39.652344 128.378906 31.730469 123.101562 C 30.921875 122.5625 30.15625 121.996094 29.421875 121.410156 C 29.246094 121.496094 29.054688 121.578125 28.855469 121.664062 C 28.777344 121.699219 28.695312 121.730469 28.609375 121.765625 C 27.222656 122.34375 25.117188 123.058594 22.59375 123.371094 C 18.082031 123.9375 9.632812 123.472656 3.746094 114.03125 C 1.367188 110.214844 0.535156 106.617188 0.535156 103.441406 C 0.535156 96.792969 4.195312 92.03125 4.949219 91.121094 C 5.703125 90.132812 10.128906 84.714844 18.113281 82.371094 C 17.539062 80.902344 17.113281 79.371094 16.867188 77.789062 C 16.636719 76.335938 16.523438 74.910156 16.523438 73.511719 C 16.523438 67.488281 18.621094 61.96875 22.691406 57.359375 C 27.042969 52.433594 33.5625 48.765625 41.003906 46.898438 C 40.78125 46.25 40.574219 45.554688 40.410156 44.804688 C 40.152344 43.65625 39.972656 42.316406 39.972656 40.839844 C 39.972656 37.433594 40.945312 33.292969 44.210938 29 C 50.164062 21.175781 58.140625 19.792969 62.941406 19.769531 C 63.28125 18.695312 63.726562 17.640625 64.28125 16.621094 C 68.519531 8.820312 77.925781 4.449219 90.089844 4.625 C 99.691406 4.769531 108.304688 8.730469 113.894531 15.097656 C 115.191406 12.53125 116.964844 10.164062 119.171875 8.09375 C 124.171875 3.398438 130.847656 0.746094 137.972656 0.628906 C 150.296875 0.421875 163.34375 6.691406 164.699219 21.164062 C 164.726562 21.449219 164.742188 21.730469 164.761719 22.011719 C 164.875 21.957031 164.984375 21.90625 165.097656 21.855469 C 168.792969 20.191406 172.773438 19.316406 176.921875 19.246094 C 184.503906 19.125 191.683594 21.738281 197.140625 26.613281 C 202.597656 31.488281 205.675781 38.046875 205.816406 45.066406 C 205.820312 45.410156 205.820312 45.753906 205.8125 46.097656 C 207.203125 45.878906 208.617188 45.761719 210.046875 45.734375 C 217.625 45.609375 224.804688 48.226562 230.265625 53.101562 C 235.71875 57.976562 238.800781 64.53125 238.9375 71.554688 C 238.945312 72.039062 238.9375 72.523438 238.917969 73.003906 C 244.660156 73.035156 250.238281 74.882812 255.03125 78.410156 C 261.8125 83.402344 266.289062 91.394531 266.429688 98.769531 C 266.59375 106.972656 263.609375 114.464844 258.03125 119.851562 C 256.617188 121.214844 255.0625 122.429688 253.371094 123.492188 C 247.910156 126.9375 241.066406 128.800781 233.253906 128.933594 C 223.015625 129.101562 213.300781 126.277344 205.890625 120.972656 C 202.179688 118.3125 199.25 115.1875 197.203125 111.757812 C 191.652344 120.105469 181.769531 125.644531 170.503906 125.832031 C 162.261719 125.96875 154.898438 123.746094 149.210938 119.394531 C 148.46875 118.828125 147.78125 118.25 147.140625 117.65625 C 145.789062 122.582031 143.070312 127.121094 139.160156 130.878906 C 133.222656 136.582031 125.242188 139.800781 116.695312 139.941406 C 104.097656 140.152344 92.703125 133.550781 87.308594 123.238281 Z M 87.308594 123.238281 " fill-opacity="1" fill-rule="nonzero"/></g></g></g></g></g><g mask="url(#e79e902ff9)"><g transform="matrix(1, 0, 0, 1, 69, 176)"><g clip-path="url(#ad40600eca)"><g clip-path="url(#b2d7dfe187)"><path fill="#000000" d="M 168.503906 124.542969 L 94.195312 123.207031 L 93.070312 119.386719 L 52.617188 118.816406 L 5.632812 79.683594 L 5.632812 64.789062 L 0.890625 64.980469 L 1.71875 22.222656 L 13.074219 21.453125 L 13.609375 12.292969 L 13.609375 10.761719 C 13.695312 10.726562 13.777344 10.695312 13.855469 10.660156 C 14.054688 10.574219 14.242188 10.492188 14.421875 10.40625 C 15.15625 10.996094 15.921875 11.5625 16.730469 12.101562 C 24.652344 17.375 34.3125 18.980469 41.019531 19.394531 C 43.113281 19.523438 54.113281 19.964844 64.878906 15.929688 C 67.625 14.894531 70.101562 13.660156 72.308594 12.234375 C 77.699219 22.546875 89.097656 29.144531 101.695312 28.9375 C 110.242188 28.792969 118.222656 25.574219 124.160156 19.875 C 128.070312 16.113281 130.789062 11.578125 132.140625 6.648438 C 132.78125 7.242188 133.472656 7.824219 134.210938 8.390625 C 139.898438 12.738281 147.261719 14.96875 155.503906 14.828125 C 166.769531 14.640625 176.648438 9.105469 182.203125 0.75 C 184.25 4.183594 187.175781 7.3125 190.890625 9.96875 C 198.300781 15.269531 208.019531 18.097656 218.253906 17.929688 C 226.066406 17.796875 232.910156 15.933594 238.371094 12.488281 L 240.949219 14.984375 L 240.949219 66.921875 L 235.335938 72.234375 L 233.117188 82.351562 L 203.46875 109.070312 L 170.730469 109.070312 L 168.503906 124.539062 Z M 168.503906 124.542969 " fill-opacity="1" fill-rule="nonzero"/></g></g></g></g><path fill="#000000" d="M 177.597656 211.179688 C 177.597656 209.515625 176.554688 208.078125 175.046875 207.386719 L 175.046875 181.582031 C 176.554688 180.890625 177.597656 179.457031 177.597656 177.789062 C 177.597656 175.453125 175.550781 173.558594 173.03125 173.558594 C 170.507812 173.558594 168.460938 175.453125 168.460938 177.789062 C 168.460938 179.457031 169.503906 180.890625 171.011719 181.582031 L 171.011719 207.386719 C 169.503906 208.078125 168.460938 209.515625 168.460938 211.179688 C 168.460938 213.515625 170.507812 215.414062 173.03125 215.414062 C 175.550781 215.414062 177.597656 213.519531 177.597656 211.179688 Z M 177.597656 211.179688 " fill-opacity="1" fill-rule="nonzero"/><path fill="#000000" d="M 103.203125 203.546875 C 103.203125 205.882812 105.246094 207.78125 107.769531 207.78125 C 110.292969 207.78125 112.339844 205.886719 112.339844 203.546875 C 112.339844 203.414062 112.332031 203.28125 112.316406 203.152344 L 122.628906 195.710938 L 122.628906 181.585938 C 124.136719 180.894531 125.179688 179.457031 125.179688 177.792969 C 125.179688 175.457031 123.132812 173.558594 120.613281 173.558594 C 118.089844 173.558594 116.042969 175.453125 116.042969 177.792969 C 116.042969 179.457031 117.085938 180.894531 118.59375 181.585938 L 118.59375 193.886719 L 110.175781 199.957031 C 109.476562 199.554688 108.65625 199.316406 107.769531 199.316406 C 105.246094 199.316406 103.203125 201.210938 103.203125 203.550781 Z M 103.203125 203.546875 " fill-opacity="1" fill-rule="nonzero"/><path fill="#000000" d="M 122.660156 212.785156 L 122.660156 223.804688 L 113.125 232.636719 L 113.125 248.195312 L 123.226562 257.554688 L 128.238281 257.554688 L 128.238281 267.960938 L 155.765625 267.960938 L 155.765625 251.382812 L 147.160156 243.410156 L 144.546875 243.410156 L 144.546875 232.929688 L 135.011719 224.097656 L 135.011719 206.828125 C 136.523438 206.136719 137.5625 204.699219 137.5625 203.035156 C 137.5625 200.699219 135.519531 198.800781 132.996094 198.800781 C 130.472656 198.800781 128.425781 200.695312 128.425781 203.035156 C 128.425781 204.699219 129.46875 206.136719 130.976562 206.828125 L 130.976562 225.648438 L 140.511719 234.480469 L 140.511719 243.410156 L 128.238281 243.410156 L 128.238281 253.816406 L 124.898438 253.816406 L 117.160156 246.648438 L 117.160156 234.183594 L 126.695312 225.351562 L 126.695312 212.320312 C 127.925781 211.5625 128.738281 210.269531 128.738281 208.796875 C 128.738281 206.460938 126.691406 204.5625 124.167969 204.5625 C 121.644531 204.5625 119.601562 206.457031 119.601562 208.796875 C 119.601562 210.640625 120.878906 212.210938 122.660156 212.785156 Z M 145.488281 247.148438 L 151.730469 252.933594 L 151.730469 264.222656 L 132.273438 264.222656 L 132.273438 247.148438 Z M 145.488281 247.148438 " fill-opacity="1" fill-rule="nonzero"/><path fill="#000000" d="M 155.265625 218.65625 C 155.265625 220.992188 157.3125 222.890625 159.835938 222.890625 C 162.359375 222.890625 164.402344 220.996094 164.402344 218.65625 C 164.402344 216.992188 163.363281 215.554688 161.851562 214.863281 L 161.851562 181.582031 C 163.363281 180.890625 164.402344 179.457031 164.402344 177.789062 C 164.402344 175.453125 162.359375 173.558594 159.835938 173.558594 C 157.3125 173.558594 155.265625 175.453125 155.265625 177.789062 C 155.265625 179.457031 156.308594 180.890625 157.816406 181.582031 L 157.816406 214.863281 C 156.308594 215.554688 155.265625 216.992188 155.265625 218.65625 Z M 155.265625 218.65625 " fill-opacity="1" fill-rule="nonzero"/><path fill="#000000" d="M 213.867188 178.625 L 213.867188 194.988281 C 212.355469 195.675781 211.316406 197.113281 211.316406 198.78125 C 211.316406 201.117188 213.359375 203.011719 215.882812 203.011719 C 218.40625 203.011719 220.453125 201.117188 220.453125 198.78125 C 220.453125 197.113281 219.410156 195.675781 217.902344 194.988281 L 217.902344 178.625 C 219.410156 177.933594 220.453125 176.5 220.453125 174.832031 C 220.453125 172.496094 218.40625 170.601562 215.882812 170.601562 C 213.359375 170.601562 211.316406 172.492188 211.316406 174.832031 C 211.316406 176.5 212.355469 177.933594 213.867188 178.625 Z M 213.867188 178.625 " fill-opacity="1" fill-rule="nonzero"/><path fill="#000000" d="M 268.472656 173.679688 L 268.472656 192.210938 L 285.597656 204.523438 L 285.597656 212.066406 C 284.085938 212.757812 283.046875 214.195312 283.046875 215.859375 C 283.046875 218.195312 285.089844 220.09375 287.613281 220.09375 C 290.136719 220.09375 292.183594 218.199219 292.183594 215.859375 C 292.183594 214.195312 291.140625 212.757812 289.632812 212.066406 L 289.632812 202.691406 L 272.507812 190.378906 L 272.507812 174.414062 C 274.425781 173.910156 275.835938 172.28125 275.835938 170.34375 C 275.835938 168.003906 273.792969 166.109375 271.269531 166.109375 C 268.746094 166.109375 266.699219 168.003906 266.699219 170.34375 C 266.699219 171.703125 267.394531 172.90625 268.472656 173.679688 Z M 268.472656 173.679688 " fill-opacity="1" fill-rule="nonzero"/><path fill="#000000" d="M 231.304688 277.425781 L 231.304688 292.722656 L 170.257812 292.722656 L 170.257812 277.425781 Z M 231.304688 277.425781 " fill-opacity="1" fill-rule="nonzero"/><g clip-path="url(#fba64e3a3e)"><path fill="#000000" d="M 231.492188 305.164062 L 233.511719 305.164062 L 233.511719 309.371094 L 237.546875 309.371094 L 237.546875 305.164062 L 239.5625 305.164062 L 239.5625 301.214844 L 241.042969 301.214844 L 241.042969 286.945312 L 273.492188 286.945312 L 304.320312 259.222656 L 305.289062 249.496094 L 311.996094 243.867188 L 311.996094 189.785156 L 298.433594 179.214844 L 298.507812 174.824219 C 300.265625 174.234375 301.523438 172.679688 301.523438 170.847656 C 301.523438 168.511719 299.480469 166.613281 296.957031 166.613281 C 294.433594 166.613281 292.386719 168.507812 292.386719 170.847656 C 292.386719 172.335938 293.21875 173.644531 294.476562 174.398438 L 294.363281 180.929688 L 307.960938 191.527344 L 307.960938 242.207031 L 301.414062 247.703125 L 300.4375 257.5 L 271.851562 283.203125 L 241.039062 283.203125 L 241.039062 277.421875 L 267.867188 277.726562 L 293.359375 254.695312 L 293.359375 245.277344 L 302.8125 238.503906 L 302.8125 197.703125 L 285.507812 184.023438 L 285.507812 174.429688 C 287.476562 173.957031 288.929688 172.308594 288.929688 170.339844 C 288.929688 168.003906 286.882812 166.105469 284.359375 166.105469 C 281.835938 166.105469 279.792969 168 279.792969 170.339844 C 279.792969 171.660156 280.445312 172.839844 281.472656 173.617188 L 281.472656 185.746094 L 298.777344 199.425781 L 298.777344 236.667969 L 289.320312 243.441406 L 289.320312 253.117188 L 266.242188 273.96875 L 241.035156 273.683594 L 241.035156 268.9375 L 239.558594 268.9375 L 239.558594 264.988281 L 237.539062 264.988281 L 237.539062 236.972656 L 254.695312 221.082031 L 254.695312 194.722656 L 234.929688 176.410156 C 235.140625 175.921875 235.257812 175.390625 235.257812 174.832031 C 235.257812 172.496094 233.214844 170.601562 230.691406 170.601562 C 228.167969 170.601562 226.121094 172.492188 226.121094 174.832031 C 226.121094 177.171875 228.167969 179.0625 230.691406 179.0625 C 231.117188 179.0625 231.523438 179.007812 231.914062 178.90625 L 250.65625 196.269531 L 250.65625 219.53125 L 233.503906 235.421875 L 233.503906 264.984375 L 231.484375 264.984375 L 231.484375 268.933594 L 225.800781 268.933594 L 225.800781 264.984375 L 223.78125 264.984375 L 223.78125 231.984375 L 233.316406 223.152344 L 233.316406 204.332031 C 234.824219 203.640625 235.867188 202.207031 235.867188 200.539062 C 235.867188 198.203125 233.820312 196.308594 231.296875 196.308594 C 228.773438 196.308594 226.730469 198.199219 226.730469 200.539062 C 226.730469 202.207031 227.769531 203.640625 229.28125 204.332031 L 229.28125 221.601562 L 219.746094 230.433594 L 219.746094 264.980469 L 217.730469 264.980469 L 217.730469 268.933594 L 212.042969 268.933594 L 212.042969 264.980469 L 210.023438 264.980469 L 210.023438 227 L 219.558594 218.164062 L 219.558594 213.460938 C 221.070312 212.769531 222.109375 211.335938 222.109375 209.667969 C 222.109375 207.332031 220.066406 205.4375 217.542969 205.4375 C 215.019531 205.4375 212.972656 207.328125 212.972656 209.667969 C 212.972656 211.335938 214.015625 212.769531 215.523438 213.460938 L 215.523438 216.617188 L 205.988281 225.449219 L 205.988281 264.980469 L 203.972656 264.980469 L 203.972656 268.933594 L 198.285156 268.933594 L 198.285156 264.980469 L 196.902344 264.980469 L 196.902344 220.515625 L 202.535156 220.515625 L 202.535156 217.6875 L 206.996094 217.6875 L 206.996094 213.945312 L 202.535156 213.945312 L 202.535156 211.335938 L 206.996094 211.335938 L 206.996094 207.597656 L 202.535156 207.597656 L 202.535156 205.640625 L 200.398438 205.640625 L 200.398438 201.660156 L 196.363281 201.660156 L 196.363281 205.640625 L 193.546875 205.640625 L 193.546875 201.660156 L 189.511719 201.660156 L 189.511719 205.640625 L 187.238281 205.640625 L 187.238281 207.597656 L 182.976562 207.597656 L 182.976562 211.335938 L 187.238281 211.335938 L 187.238281 213.945312 L 182.976562 213.945312 L 182.976562 217.6875 L 187.238281 217.6875 L 187.238281 220.515625 L 192.867188 220.515625 L 192.867188 264.980469 L 190.214844 264.980469 L 190.214844 268.933594 L 184.53125 268.933594 L 184.53125 264.980469 L 182.296875 264.980469 L 182.296875 239.410156 L 172.765625 230.574219 L 172.765625 227.417969 C 174.273438 226.730469 175.316406 225.292969 175.316406 223.625 C 175.316406 221.289062 173.269531 219.394531 170.746094 219.394531 C 168.222656 219.394531 166.179688 221.289062 166.179688 223.625 C 166.179688 225.292969 167.21875 226.730469 168.730469 227.417969 L 168.730469 232.125 L 178.261719 240.957031 L 178.261719 264.984375 L 176.460938 264.984375 L 176.460938 268.933594 L 170.773438 268.933594 L 170.773438 264.984375 L 168.757812 264.984375 L 168.757812 245.570312 L 148.769531 227.089844 L 148.769531 214.96875 C 150.277344 214.28125 151.320312 212.84375 151.320312 211.179688 C 151.320312 208.84375 149.273438 206.945312 146.75 206.945312 C 144.226562 206.945312 142.183594 208.839844 142.183594 211.179688 C 142.183594 212.84375 143.222656 214.28125 144.734375 214.96875 L 144.734375 228.640625 L 164.722656 247.121094 L 164.722656 264.980469 L 162.703125 264.980469 L 162.703125 268.933594 L 160.519531 268.933594 L 160.519531 273.644531 L 129.140625 273.644531 L 109.925781 257.171875 L 109.925781 248.511719 L 106.101562 245.300781 L 106.101562 229.734375 L 116.457031 220.140625 L 116.457031 217.847656 C 118.042969 217.183594 119.152344 215.707031 119.152344 213.988281 C 119.152344 211.652344 117.105469 209.757812 114.585938 209.757812 C 112.0625 209.757812 110.015625 211.652344 110.015625 213.988281 C 110.015625 215.601562 110.988281 217 112.421875 217.714844 L 112.421875 218.589844 L 102.066406 228.183594 L 102.066406 246.957031 L 105.890625 250.167969 L 105.890625 258.800781 L 127.554688 277.378906 L 160.515625 277.378906 L 160.515625 283.199219 L 125.140625 283.199219 L 84.121094 247.847656 L 84.121094 242.914062 L 96.003906 242.914062 L 96.003906 240.546875 L 98.835938 240.546875 L 98.835938 236.808594 L 96.003906 236.808594 L 96.003906 232.785156 L 98.835938 232.785156 L 98.835938 229.046875 L 96.003906 229.046875 L 96.003906 225.023438 L 98.835938 225.023438 L 98.835938 221.285156 L 96.003906 221.285156 L 96.003906 217.261719 L 98.835938 217.261719 L 98.835938 213.523438 L 96.003906 213.523438 L 96.003906 209.5 L 98.835938 209.5 L 98.835938 205.761719 L 96.003906 205.761719 L 96.003906 201.738281 L 98.835938 201.738281 L 98.835938 198 L 96.003906 198 L 96.003906 196.027344 L 84.078125 196.027344 L 84.078125 189.914062 L 102.277344 181.175781 C 103.039062 181.695312 103.96875 182.003906 104.984375 182.003906 C 107.507812 182.003906 109.554688 180.109375 109.554688 177.769531 C 109.554688 175.429688 107.507812 173.539062 104.984375 173.539062 C 102.460938 173.539062 100.414062 175.429688 100.414062 177.769531 C 100.414062 177.796875 100.421875 177.828125 100.421875 177.855469 L 80.042969 187.640625 L 80.042969 196.023438 L 68.207031 196.023438 L 68.207031 197.996094 L 65.375 197.996094 L 65.375 201.734375 L 68.207031 201.734375 L 68.207031 205.757812 L 65.375 205.757812 L 65.375 209.496094 L 68.207031 209.496094 L 68.207031 213.519531 L 65.375 213.519531 L 65.375 217.257812 L 68.207031 217.257812 L 68.207031 221.28125 L 65.375 221.28125 L 65.375 225.019531 L 68.207031 225.019531 L 68.207031 229.042969 L 65.375 229.042969 L 65.375 232.78125 L 68.207031 232.78125 L 68.207031 236.804688 L 65.375 236.804688 L 65.375 240.542969 L 68.207031 240.542969 L 68.207031 242.914062 L 72.523438 242.914062 L 72.523438 255.519531 L 119.808594 296.808594 L 160.519531 296.808594 L 160.519531 301.199219 L 162.703125 301.199219 L 162.703125 305.152344 L 164.722656 305.152344 L 164.722656 309.359375 L 168.757812 309.359375 L 168.757812 305.152344 L 170.773438 305.152344 L 170.773438 301.199219 L 176.460938 301.199219 L 176.460938 305.152344 L 178.476562 305.152344 L 178.476562 309.359375 L 182.511719 309.359375 L 182.511719 305.152344 L 184.53125 305.152344 L 184.53125 301.199219 L 190.214844 301.199219 L 190.214844 305.152344 L 192.234375 305.152344 L 192.234375 309.359375 L 196.269531 309.359375 L 196.269531 305.152344 L 198.285156 305.152344 L 198.285156 301.199219 L 203.972656 301.199219 L 203.972656 305.152344 L 205.988281 305.152344 L 205.988281 309.359375 L 210.023438 309.359375 L 210.023438 305.152344 L 212.042969 305.152344 L 212.042969 301.199219 L 217.730469 301.199219 L 217.730469 305.152344 L 219.746094 305.152344 L 219.746094 309.359375 L 223.78125 309.359375 L 223.78125 305.152344 L 225.800781 305.152344 L 225.800781 301.199219 L 231.484375 301.199219 L 231.484375 305.152344 Z M 191.277344 216.78125 L 191.277344 209.386719 L 198.5 209.386719 L 198.5 216.78125 Z M 83.953125 222.4375 C 82.605469 223.125 81.695312 224.449219 81.695312 225.976562 C 81.695312 228.207031 83.644531 230.015625 86.054688 230.015625 C 88.464844 230.015625 90.417969 228.207031 90.417969 225.976562 C 90.417969 224.386719 89.425781 223.019531 87.988281 222.359375 L 87.988281 206.667969 L 84.078125 203.386719 L 84.078125 199.78125 L 91.96875 199.78125 L 91.96875 239.1875 L 84.121094 239.1875 L 84.121094 236.253906 L 78.996094 231.953125 L 78.996094 215.679688 C 80.769531 215.171875 82.058594 213.636719 82.058594 211.824219 C 82.058594 209.589844 80.105469 207.78125 77.695312 207.78125 C 75.289062 207.78125 73.335938 209.59375 73.335938 211.824219 C 73.335938 213.09375 73.96875 214.222656 74.960938 214.964844 L 74.960938 233.609375 L 80.085938 237.914062 L 80.085938 239.1875 L 72.238281 239.1875 L 72.238281 199.78125 L 80.039062 199.78125 L 80.039062 205.042969 L 83.953125 208.324219 Z M 121.414062 293.085938 L 76.558594 253.921875 L 76.558594 242.925781 L 80.089844 242.925781 L 80.089844 249.488281 L 123.558594 286.949219 L 160.523438 286.949219 L 160.523438 293.085938 Z M 164.554688 297.476562 L 164.554688 272.675781 L 237.007812 272.675781 L 237.007812 297.476562 Z M 164.554688 297.476562 " fill-opacity="1" fill-rule="nonzero"/></g><path fill="#000000" d="M 148.390625 255.683594 C 148.390625 252.113281 145.25 249.207031 141.394531 249.207031 C 137.535156 249.207031 134.398438 252.113281 134.398438 255.683594 C 134.398438 259.257812 137.535156 262.164062 141.394531 262.164062 C 145.25 262.164062 148.390625 259.257812 148.390625 255.683594 Z M 138.4375 255.683594 C 138.4375 254.171875 139.761719 252.945312 141.394531 252.945312 C 143.023438 252.945312 144.351562 254.171875 144.351562 255.683594 C 144.351562 257.195312 143.023438 258.425781 141.394531 258.425781 C 139.761719 258.425781 138.4375 257.195312 138.4375 255.683594 Z M 138.4375 255.683594 " fill-opacity="1" fill-rule="nonzero"/><path fill="#000000" d="M 286.132812 245.453125 L 286.132812 229.894531 L 276.597656 221.0625 L 276.597656 212.785156 C 278.378906 212.207031 279.65625 210.640625 279.65625 208.796875 C 279.65625 206.460938 277.613281 204.5625 275.089844 204.5625 C 272.566406 204.5625 270.519531 206.457031 270.519531 208.796875 C 270.519531 210.269531 271.332031 211.5625 272.5625 212.320312 L 272.5625 222.609375 L 282.097656 231.445312 L 282.097656 243.90625 L 274.359375 251.074219 L 271.019531 251.074219 L 271.019531 240.667969 L 258.746094 240.667969 L 258.746094 231.738281 L 268.28125 222.90625 L 268.28125 206.828125 C 269.789062 206.136719 270.832031 204.699219 270.832031 203.035156 C 270.832031 200.699219 268.785156 198.800781 266.261719 198.800781 C 263.738281 198.800781 261.695312 200.695312 261.695312 203.035156 C 261.695312 204.699219 262.738281 206.136719 264.246094 206.828125 L 264.246094 221.355469 L 254.710938 230.191406 L 254.710938 240.667969 L 252.097656 240.667969 L 243.492188 248.640625 L 243.492188 265.222656 L 264.621094 265.222656 L 271.019531 259.296875 L 271.019531 254.816406 L 276.03125 254.816406 L 286.132812 245.457031 Z M 262.949219 261.480469 L 247.527344 261.480469 L 247.527344 250.191406 L 253.765625 244.410156 L 266.980469 244.410156 L 266.980469 257.746094 Z M 262.949219 261.480469 " fill-opacity="1" fill-rule="nonzero"/><path fill="#000000" d="M 250.867188 252.945312 C 250.867188 256.515625 254.003906 259.425781 257.859375 259.425781 C 261.714844 259.425781 264.855469 256.515625 264.855469 252.945312 C 264.855469 249.371094 261.71875 246.464844 257.859375 246.464844 C 254 246.464844 250.867188 249.371094 250.867188 252.945312 Z M 260.820312 252.945312 C 260.820312 254.457031 259.492188 255.683594 257.863281 255.683594 C 256.230469 255.683594 254.902344 254.457031 254.902344 252.945312 C 254.902344 251.433594 256.230469 250.203125 257.863281 250.203125 C 259.492188 250.203125 260.820312 251.433594 260.820312 252.945312 Z M 260.820312 252.945312 " fill-opacity="1" fill-rule="nonzero"/><path fill="#fffefa" d="M 199.625 124.9375 C 198.394531 124.9375 197.398438 124.011719 197.398438 122.875 C 197.398438 121.738281 198.394531 120.808594 199.625 120.808594 C 200.851562 120.808594 201.855469 121.734375 201.855469 122.875 C 201.855469 124.015625 200.855469 124.9375 199.625 124.9375 Z M 199.625 124.9375 " fill-opacity="1" fill-rule="nonzero"/><path fill="#fffefa" d="M 234.070312 101.046875 C 232.835938 101.046875 231.839844 100.121094 231.839844 98.980469 C 231.839844 97.839844 232.835938 96.917969 234.070312 96.917969 C 235.300781 96.917969 236.296875 97.84375 236.296875 98.980469 C 236.296875 100.117188 235.296875 101.046875 234.070312 101.046875 Z M 234.070312 101.046875 " fill-opacity="1" fill-rule="nonzero"/><path fill="#fffefa" d="M 240.746094 118.835938 C 239.515625 118.835938 238.515625 117.910156 238.515625 116.773438 C 238.515625 115.636719 239.515625 114.707031 240.746094 114.707031 C 241.976562 114.707031 242.976562 115.632812 242.976562 116.773438 C 242.976562 117.914062 241.976562 118.835938 240.746094 118.835938 Z M 240.746094 118.835938 " fill-opacity="1" fill-rule="nonzero"/><path fill="#fffefa" d="M 180.324219 120.835938 C 179.136719 120.550781 178.417969 119.421875 178.730469 118.316406 C 179.042969 117.210938 180.257812 116.550781 181.449219 116.835938 C 182.640625 117.125 183.355469 118.253906 183.046875 119.359375 C 182.734375 120.460938 181.515625 121.125 180.324219 120.835938 Z M 180.324219 120.835938 " fill-opacity="1" fill-rule="nonzero"/><path fill="#fffefa" d="M 200.507812 89.644531 C 199.316406 89.355469 198.601562 88.230469 198.910156 87.125 C 199.222656 86.019531 200.4375 85.359375 201.632812 85.644531 C 202.820312 85.933594 203.535156 87.0625 203.226562 88.167969 C 202.914062 89.269531 201.695312 89.933594 200.507812 89.644531 Z M 200.507812 89.644531 " fill-opacity="1" fill-rule="nonzero"/><path fill="#fffefa" d="M 189.878906 149.050781 C 189.585938 149.050781 189.300781 149 189.027344 148.894531 C 188.753906 148.789062 188.511719 148.640625 188.304688 148.445312 C 188.09375 148.253906 187.933594 148.03125 187.820312 147.777344 C 187.707031 147.523438 187.648438 147.261719 187.648438 146.984375 C 187.648438 146.710938 187.707031 146.449219 187.820312 146.195312 C 187.933594 145.941406 188.09375 145.71875 188.304688 145.523438 C 188.511719 145.332031 188.753906 145.183594 189.027344 145.078125 C 189.300781 144.972656 189.585938 144.921875 189.878906 144.921875 C 190.175781 144.921875 190.460938 144.972656 190.734375 145.078125 C 191.007812 145.183594 191.246094 145.332031 191.457031 145.523438 C 191.667969 145.71875 191.828125 145.941406 191.941406 146.195312 C 192.054688 146.449219 192.109375 146.710938 192.109375 146.984375 C 192.109375 147.261719 192.054688 147.523438 191.941406 147.777344 C 191.828125 148.03125 191.667969 148.253906 191.457031 148.445312 C 191.246094 148.640625 191.007812 148.789062 190.734375 148.894531 C 190.460938 149 190.175781 149.050781 189.878906 149.050781 Z M 189.878906 149.050781 " fill-opacity="1" fill-rule="nonzero"/><path fill="#fffefa" d="M 138.335938 119.109375 C 137.105469 119.109375 136.105469 118.183594 136.105469 117.046875 C 136.105469 115.910156 137.105469 114.980469 138.335938 114.980469 C 139.566406 114.980469 140.566406 115.90625 140.566406 117.046875 C 140.566406 118.1875 139.566406 119.109375 138.335938 119.109375 Z M 138.335938 119.109375 " fill-opacity="1" fill-rule="nonzero"/><path fill="#fffefa" d="M 153.046875 110.039062 C 151.816406 110.039062 150.816406 109.113281 150.816406 107.976562 C 150.816406 106.835938 151.816406 105.910156 153.046875 105.910156 C 154.277344 105.910156 155.277344 106.835938 155.277344 107.976562 C 155.277344 109.117188 154.277344 110.039062 153.046875 110.039062 Z M 153.046875 110.039062 " fill-opacity="1" fill-rule="nonzero"/><path fill="#fffefa" d="M 149.910156 94.675781 C 149.613281 94.675781 149.328125 94.625 149.054688 94.519531 C 148.78125 94.414062 148.542969 94.265625 148.332031 94.070312 C 148.121094 93.878906 147.960938 93.65625 147.847656 93.402344 C 147.734375 93.148438 147.679688 92.886719 147.679688 92.609375 C 147.679688 92.335938 147.734375 92.074219 147.847656 91.820312 C 147.960938 91.566406 148.121094 91.34375 148.332031 91.152344 C 148.542969 90.957031 148.78125 90.808594 149.054688 90.703125 C 149.328125 90.597656 149.613281 90.546875 149.910156 90.546875 C 150.203125 90.546875 150.488281 90.597656 150.761719 90.703125 C 151.035156 90.808594 151.277344 90.957031 151.484375 91.152344 C 151.695312 91.34375 151.855469 91.566406 151.96875 91.820312 C 152.082031 92.074219 152.136719 92.335938 152.136719 92.609375 C 152.136719 92.886719 152.082031 93.148438 151.96875 93.402344 C 151.855469 93.65625 151.695312 93.878906 151.484375 94.070312 C 151.277344 94.265625 151.035156 94.414062 150.761719 94.519531 C 150.488281 94.625 150.203125 94.675781 149.910156 94.675781 Z M 149.910156 94.675781 " fill-opacity="1" fill-rule="nonzero"/><path fill="#fffefa" d="M 185.148438 86.597656 C 183.917969 86.597656 182.921875 85.671875 182.921875 84.535156 C 182.921875 83.394531 183.917969 82.46875 185.148438 82.46875 C 186.382812 82.46875 187.378906 83.394531 187.378906 84.535156 C 187.378906 85.671875 186.382812 86.597656 185.148438 86.597656 Z M 185.148438 86.597656 " fill-opacity="1" fill-rule="nonzero"/><path fill="#fffefa" d="M 133.878906 94.675781 C 132.648438 94.675781 131.648438 93.75 131.648438 92.609375 C 131.648438 91.472656 132.648438 90.546875 133.878906 90.546875 C 135.109375 90.546875 136.105469 91.472656 136.105469 92.609375 C 136.105469 93.75 135.109375 94.675781 133.878906 94.675781 Z M 133.878906 94.675781 " fill-opacity="1" fill-rule="nonzero"/><path fill="#fffefa" d="M 118.753906 129.949219 C 118.753906 128.808594 117.757812 127.886719 116.527344 127.886719 C 115.292969 127.886719 114.296875 128.808594 114.296875 129.949219 C 114.296875 131.089844 115.292969 132.015625 116.527344 132.015625 C 117.757812 132.015625 118.753906 131.089844 118.753906 129.949219 Z M 118.753906 129.949219 " fill-opacity="1" fill-rule="nonzero"/><path fill="#fffefa" d="M 91.769531 147.40625 C 93 147.40625 94 146.480469 94 145.339844 C 94 144.199219 93 143.273438 91.769531 143.273438 C 90.539062 143.273438 89.539062 144.199219 89.539062 145.339844 C 89.539062 146.480469 90.539062 147.40625 91.769531 147.40625 Z M 91.769531 147.40625 " fill-opacity="1" fill-rule="nonzero"/><path fill="#fffefa" d="M 95.429688 129.949219 C 95.429688 128.808594 94.429688 127.886719 93.199219 127.886719 C 91.96875 127.886719 90.96875 128.808594 90.96875 129.949219 C 90.96875 131.089844 91.96875 132.015625 93.199219 132.015625 C 94.429688 132.015625 95.429688 131.089844 95.429688 129.949219 Z M 95.429688 129.949219 " fill-opacity="1" fill-rule="nonzero"/><path fill="#fffefa" d="M 126.144531 143.738281 C 125.847656 143.738281 125.5625 143.6875 125.289062 143.582031 C 125.015625 143.476562 124.777344 143.328125 124.566406 143.132812 C 124.359375 142.941406 124.195312 142.71875 124.082031 142.464844 C 123.96875 142.210938 123.914062 141.949219 123.914062 141.675781 C 123.914062 141.398438 123.96875 141.136719 124.082031 140.882812 C 124.195312 140.628906 124.359375 140.40625 124.566406 140.214844 C 124.777344 140.019531 125.015625 139.871094 125.289062 139.765625 C 125.5625 139.660156 125.847656 139.609375 126.144531 139.609375 C 126.4375 139.609375 126.722656 139.660156 126.996094 139.765625 C 127.269531 139.871094 127.511719 140.019531 127.71875 140.214844 C 127.929688 140.40625 128.089844 140.628906 128.203125 140.882812 C 128.316406 141.136719 128.375 141.398438 128.375 141.675781 C 128.375 141.949219 128.316406 142.210938 128.203125 142.464844 C 128.089844 142.71875 127.929688 142.941406 127.71875 143.132812 C 127.511719 143.328125 127.269531 143.476562 126.996094 143.582031 C 126.722656 143.6875 126.4375 143.738281 126.144531 143.738281 Z M 126.144531 143.738281 " fill-opacity="1" fill-rule="nonzero"/><path fill="#fffefa" d="M 90.972656 168.765625 C 89.742188 168.765625 88.742188 169.691406 88.742188 170.832031 C 88.742188 171.972656 89.742188 172.898438 90.972656 172.898438 C 92.203125 172.898438 93.203125 171.972656 93.203125 170.832031 C 93.203125 169.691406 92.203125 168.765625 90.972656 168.765625 Z M 90.972656 168.765625 " fill-opacity="1" fill-rule="nonzero"/><path fill="#fffefa" d="M 110.007812 163.507812 C 108.777344 163.507812 107.777344 164.433594 107.777344 165.574219 C 107.777344 166.714844 108.777344 167.640625 110.007812 167.640625 C 111.238281 167.640625 112.238281 166.714844 112.238281 165.574219 C 112.238281 164.433594 111.238281 163.507812 110.007812 163.507812 Z M 110.007812 163.507812 " fill-opacity="1" fill-rule="nonzero"/><path fill="#fffefa" d="M 162.070312 151.644531 C 162.070312 150.503906 161.074219 149.578125 159.84375 149.578125 C 158.609375 149.578125 157.613281 150.503906 157.613281 151.644531 C 157.613281 152.785156 158.609375 153.707031 159.84375 153.707031 C 161.074219 153.707031 162.070312 152.785156 162.070312 151.644531 Z M 162.070312 151.644531 " fill-opacity="1" fill-rule="nonzero"/><path fill="#fffefa" d="M 140.304688 155.773438 C 140.304688 156.910156 141.304688 157.835938 142.535156 157.835938 C 143.769531 157.835938 144.765625 156.910156 144.765625 155.773438 C 144.765625 154.632812 143.769531 153.707031 142.535156 153.707031 C 141.304688 153.707031 140.304688 154.632812 140.304688 155.773438 Z M 140.304688 155.773438 " fill-opacity="1" fill-rule="nonzero"/><path fill="#fffefa" d="M 155.273438 133.21875 C 154.042969 133.21875 153.042969 134.140625 153.042969 135.28125 C 153.042969 136.421875 154.042969 137.347656 155.273438 137.347656 C 156.503906 137.347656 157.503906 136.421875 157.503906 135.28125 C 157.503906 134.140625 156.503906 133.21875 155.273438 133.21875 Z M 155.273438 133.21875 " fill-opacity="1" fill-rule="nonzero"/><path fill="#fffefa" d="M 185.257812 166.765625 C 184.023438 166.765625 183.027344 167.691406 183.027344 168.828125 C 183.027344 169.96875 184.023438 170.894531 185.257812 170.894531 C 186.488281 170.894531 187.484375 169.96875 187.484375 168.828125 C 187.484375 167.691406 186.488281 166.765625 185.257812 166.765625 Z M 185.257812 166.765625 " fill-opacity="1" fill-rule="nonzero"/><path fill="#fffefa" d="M 215.894531 142.355469 C 215.597656 142.355469 215.3125 142.304688 215.039062 142.199219 C 214.765625 142.09375 214.527344 141.945312 214.316406 141.75 C 214.105469 141.558594 213.945312 141.335938 213.832031 141.082031 C 213.71875 140.828125 213.664062 140.566406 213.664062 140.292969 C 213.664062 140.015625 213.71875 139.753906 213.832031 139.5 C 213.945312 139.246094 214.105469 139.023438 214.316406 138.832031 C 214.527344 138.636719 214.765625 138.488281 215.039062 138.382812 C 215.3125 138.277344 215.597656 138.226562 215.894531 138.226562 C 216.1875 138.226562 216.472656 138.277344 216.746094 138.382812 C 217.019531 138.488281 217.261719 138.636719 217.46875 138.832031 C 217.679688 139.023438 217.839844 139.246094 217.953125 139.5 C 218.066406 139.753906 218.125 140.015625 218.125 140.292969 C 218.125 140.566406 218.066406 140.828125 217.953125 141.082031 C 217.839844 141.335938 217.679688 141.558594 217.46875 141.75 C 217.261719 141.945312 217.019531 142.09375 216.746094 142.199219 C 216.472656 142.304688 216.1875 142.355469 215.894531 142.355469 Z M 215.894531 142.355469 " fill-opacity="1" fill-rule="nonzero"/><path fill="#fffefa" d="M 270.242188 130.347656 C 269.011719 130.347656 268.011719 131.273438 268.011719 132.414062 C 268.011719 133.554688 269.011719 134.480469 270.242188 134.480469 C 271.472656 134.480469 272.472656 133.554688 272.472656 132.414062 C 272.472656 131.273438 271.472656 130.347656 270.242188 130.347656 Z M 270.242188 130.347656 " fill-opacity="1" fill-rule="nonzero"/><path fill="#fffefa" d="M 297.03125 154.503906 C 295.800781 154.503906 294.800781 155.429688 294.800781 156.566406 C 294.800781 157.707031 295.800781 158.632812 297.03125 158.632812 C 298.261719 158.632812 299.261719 157.707031 299.261719 156.566406 C 299.261719 155.429688 298.261719 154.503906 297.03125 154.503906 Z M 297.03125 154.503906 " fill-opacity="1" fill-rule="nonzero"/><path fill="#fffefa" d="M 258.9375 141.132812 C 257.707031 141.132812 256.707031 142.058594 256.707031 143.199219 C 256.707031 144.339844 257.707031 145.265625 258.9375 145.265625 C 260.167969 145.265625 261.167969 144.339844 261.167969 143.199219 C 261.167969 142.058594 260.167969 141.132812 258.9375 141.132812 Z M 258.9375 141.132812 " fill-opacity="1" fill-rule="nonzero"/><path fill="#fffefa" d="M 264.042969 156.566406 C 262.808594 156.566406 261.8125 157.492188 261.8125 158.632812 C 261.8125 159.773438 262.808594 160.699219 264.042969 160.699219 C 265.273438 160.699219 266.269531 159.773438 266.269531 158.632812 C 266.269531 157.492188 265.273438 156.566406 264.042969 156.566406 Z M 264.042969 156.566406 " fill-opacity="1" fill-rule="nonzero"/><path fill="#fffefa" d="M 236.296875 151.59375 C 236 151.59375 235.714844 151.539062 235.441406 151.433594 C 235.167969 151.332031 234.929688 151.179688 234.71875 150.988281 C 234.511719 150.792969 234.347656 150.570312 234.234375 150.316406 C 234.121094 150.0625 234.066406 149.800781 234.066406 149.527344 C 234.066406 149.253906 234.121094 148.988281 234.234375 148.738281 C 234.347656 148.484375 234.511719 148.261719 234.71875 148.066406 C 234.929688 147.871094 235.167969 147.722656 235.441406 147.617188 C 235.714844 147.511719 236 147.460938 236.296875 147.460938 C 236.59375 147.460938 236.875 147.511719 237.148438 147.617188 C 237.421875 147.722656 237.664062 147.871094 237.871094 148.066406 C 238.082031 148.261719 238.242188 148.484375 238.355469 148.738281 C 238.46875 148.988281 238.527344 149.253906 238.527344 149.527344 C 238.527344 149.800781 238.46875 150.0625 238.355469 150.316406 C 238.242188 150.570312 238.082031 150.792969 237.871094 150.988281 C 237.664062 151.179688 237.421875 151.332031 237.148438 151.433594 C 236.875 151.539062 236.59375 151.59375 236.296875 151.59375 Z M 236.296875 151.59375 " fill-opacity="1" fill-rule="nonzero"/><path fill="#fffefa" d="M 220.976562 163.332031 C 219.746094 163.332031 218.746094 164.257812 218.746094 165.398438 C 218.746094 166.535156 219.746094 167.460938 220.976562 167.460938 C 222.207031 167.460938 223.207031 166.535156 223.207031 165.398438 C 223.207031 164.257812 222.207031 163.332031 220.976562 163.332031 Z M 220.976562 163.332031 " fill-opacity="1" fill-rule="nonzero"/><path fill="#fffefa" d="M 237.503906 169.527344 C 237.207031 169.527344 236.921875 169.476562 236.648438 169.371094 C 236.375 169.265625 236.132812 169.117188 235.925781 168.921875 C 235.714844 168.730469 235.554688 168.503906 235.441406 168.253906 C 235.328125 168 235.273438 167.734375 235.273438 167.460938 C 235.273438 167.1875 235.328125 166.925781 235.441406 166.671875 C 235.554688 166.417969 235.714844 166.195312 235.925781 166 C 236.132812 165.808594 236.375 165.660156 236.648438 165.554688 C 236.921875 165.449219 237.207031 165.398438 237.503906 165.398438 C 237.796875 165.398438 238.082031 165.449219 238.355469 165.554688 C 238.628906 165.660156 238.871094 165.808594 239.078125 166 C 239.289062 166.195312 239.449219 166.417969 239.5625 166.671875 C 239.675781 166.925781 239.730469 167.1875 239.730469 167.460938 C 239.730469 167.734375 239.675781 168 239.5625 168.253906 C 239.449219 168.503906 239.289062 168.730469 239.078125 168.921875 C 238.871094 169.117188 238.628906 169.265625 238.355469 169.371094 C 238.082031 169.476562 237.796875 169.527344 237.503906 169.527344 Z M 237.503906 169.527344 " fill-opacity="1" fill-rule="nonzero"/><path fill="#fffefa" d="M 109.5625 108.808594 C 109.265625 108.808594 108.980469 108.753906 108.707031 108.648438 C 108.433594 108.546875 108.191406 108.394531 107.984375 108.203125 C 107.773438 108.007812 107.613281 107.785156 107.5 107.53125 C 107.386719 107.277344 107.332031 107.015625 107.332031 106.742188 C 107.332031 106.46875 107.386719 106.203125 107.5 105.949219 C 107.613281 105.699219 107.773438 105.472656 107.984375 105.28125 C 108.191406 105.085938 108.433594 104.9375 108.707031 104.832031 C 108.980469 104.726562 109.265625 104.675781 109.5625 104.675781 C 109.855469 104.675781 110.140625 104.726562 110.414062 104.832031 C 110.6875 104.9375 110.929688 105.085938 111.136719 105.28125 C 111.347656 105.472656 111.507812 105.699219 111.621094 105.949219 C 111.734375 106.203125 111.789062 106.46875 111.789062 106.742188 C 111.789062 107.015625 111.734375 107.277344 111.621094 107.53125 C 111.507812 107.785156 111.347656 108.007812 111.136719 108.203125 C 110.929688 108.394531 110.6875 108.546875 110.414062 108.648438 C 110.140625 108.753906 109.855469 108.808594 109.5625 108.808594 Z M 109.5625 108.808594 " fill-opacity="1" fill-rule="nonzero"/><path fill="#fffefa" d="M 169.667969 197.609375 C 167.433594 197.570312 165.261719 197.242188 163.195312 196.664062 L 163.195312 204.390625 C 165.296875 204.820312 167.460938 205.058594 169.667969 205.089844 Z M 169.667969 197.609375 " fill-opacity="1" fill-rule="nonzero"/><path fill="#fffefa" d="M 203.230469 184.546875 C 205.96875 186.640625 209.097656 188.234375 212.523438 189.316406 L 212.523438 181.242188 C 205.027344 177.808594 202.21875 171.480469 201.511719 169.519531 C 201.429688 169.15625 201.347656 168.792969 201.253906 168.433594 C 201.214844 168.292969 201.167969 168.15625 201.117188 168.023438 C 200.609375 165.125 201.101562 160.789062 203.875 157.910156 C 206.601562 155.085938 211.03125 154.222656 217.046875 155.339844 C 219.230469 155.75 221.359375 154.4375 221.796875 152.414062 C 222.238281 150.390625 220.820312 148.417969 218.636719 148.011719 C 207.402344 145.921875 201.136719 149.53125 197.859375 152.929688 C 194.265625 156.65625 192.847656 161.515625 192.847656 165.855469 C 192.847656 167.859375 193.152344 169.746094 193.675781 171.367188 C 193.917969 172.570312 194.050781 173.796875 194.078125 175.035156 C 194.191406 180.960938 191.8125 186.570312 187.371094 190.835938 C 184.316406 193.769531 180.539062 195.816406 176.398438 196.847656 L 176.398438 204.527344 C 182.761719 203.367188 188.582031 200.441406 193.183594 196.027344 C 197.097656 192.269531 199.8125 187.730469 201.167969 182.804688 C 201.804688 183.394531 202.496094 183.976562 203.238281 184.546875 Z M 203.230469 184.546875 " fill-opacity="1" fill-rule="nonzero"/><path fill="#fffefa" d="M 290.585938 186.394531 L 298.378906 192.554688 C 300.484375 191.972656 302.476562 191.234375 304.339844 190.328125 L 297.449219 184.960938 C 295.339844 185.660156 293.042969 186.140625 290.582031 186.394531 Z M 290.585938 186.394531 " fill-opacity="1" fill-rule="nonzero"/><path fill="#fffefa" d="M 219.246094 190.726562 C 220.957031 190.921875 222.71875 191.011719 224.523438 190.980469 C 229.828125 190.894531 234.824219 189.613281 239.207031 187.417969 L 233.160156 181.8125 C 230.445312 182.855469 227.484375 183.457031 224.378906 183.507812 C 222.53125 183.539062 220.824219 183.421875 219.25 183.191406 L 219.25 190.730469 Z M 219.246094 190.726562 " fill-opacity="1" fill-rule="nonzero"/><g clip-path="url(#c59ccb0d37)"><path fill="#fffefa" d="M 156.46875 202.261719 L 156.46875 193.652344 C 152.488281 191.09375 149.347656 187.417969 147.617188 182.984375 C 150.703125 179.414062 152.710938 175.171875 153.578125 170.324219 C 161.175781 169.566406 168.183594 166.402344 173.554688 161.246094 C 179.617188 155.425781 182.855469 147.765625 182.710938 139.679688 C 182.675781 138.027344 182.449219 136.1875 181.992188 134.285156 C 187.507812 136.351562 193.488281 137.621094 198.472656 137.539062 C 204.726562 137.433594 210.667969 135.746094 215.835938 132.636719 C 220.070312 135.222656 224.980469 136.714844 230.0625 136.945312 C 244.820312 145.113281 246.246094 151.617188 247.40625 156.875 C 247.695312 158.1875 247.859375 159.554688 247.886719 160.929688 C 247.890625 161.328125 247.886719 161.707031 247.875 162.0625 L 247.875 162.128906 C 247.859375 162.53125 247.828125 162.933594 247.792969 163.332031 C 247.789062 163.359375 247.785156 163.390625 247.785156 163.417969 C 247.167969 169.539062 243.914062 174.882812 239.109375 178.515625 L 244.839844 183.828125 C 247.328125 181.84375 249.484375 179.515625 251.21875 176.90625 C 253.269531 180.339844 256.191406 183.464844 259.910156 186.125 C 262.125 187.707031 264.542969 189.070312 267.125 190.199219 L 267.125 181.683594 C 266.335938 181.222656 265.574219 180.730469 264.84375 180.207031 C 259.144531 176.128906 255.949219 170.707031 255.835938 164.945312 C 255.828125 164.59375 255.832031 164.257812 255.84375 163.9375 C 255.851562 163.851562 255.855469 163.769531 255.855469 163.683594 C 255.890625 163.238281 255.921875 162.785156 255.941406 162.335938 L 255.941406 162.265625 C 255.957031 161.800781 255.964844 161.304688 255.949219 160.796875 C 255.914062 158.957031 255.699219 157.132812 255.308594 155.375 C 253.929688 149.113281 251.636719 142.464844 241.667969 135.222656 C 241.980469 135.113281 242.296875 134.996094 242.605469 134.875 C 249.949219 131.964844 255.679688 126.21875 258.28125 119.277344 C 260.183594 118.703125 262.171875 118.394531 264.207031 118.359375 C 269.632812 118.269531 274.769531 120.140625 278.675781 123.628906 C 282.582031 127.117188 284.78125 131.808594 284.882812 136.835938 C 284.898438 137.734375 284.847656 138.636719 284.726562 139.523438 C 284.042969 144.628906 281.066406 149.308594 276.5625 152.367188 C 274.765625 153.589844 274.375 155.929688 275.695312 157.59375 C 277.007812 159.257812 279.535156 159.617188 281.332031 158.398438 C 286.046875 155.199219 289.5625 150.71875 291.429688 145.675781 C 296.988281 145.253906 301.28125 147.394531 304.019531 149.414062 C 308.992188 153.078125 312.269531 158.824219 312.375 164.054688 C 312.503906 170.359375 310.367188 175.816406 306.21875 179.824219 C 305.480469 180.535156 304.675781 181.191406 303.824219 181.792969 L 310.109375 186.695312 C 310.78125 186.160156 311.425781 185.59375 312.042969 185 C 317.628906 179.617188 320.613281 172.121094 320.453125 163.921875 C 320.308594 156.546875 315.835938 148.554688 309.054688 143.558594 C 304.261719 140.03125 298.683594 138.183594 292.941406 138.15625 C 292.960938 137.671875 292.96875 137.1875 292.960938 136.699219 C 292.824219 129.679688 289.742188 123.128906 284.285156 118.25 C 278.824219 113.371094 271.648438 110.757812 264.070312 110.886719 C 262.636719 110.90625 261.222656 111.03125 259.835938 111.246094 C 259.839844 110.902344 259.84375 110.558594 259.835938 110.214844 C 259.703125 103.191406 256.617188 96.636719 251.164062 91.761719 C 245.703125 86.886719 238.523438 84.269531 230.945312 84.398438 C 226.796875 84.46875 222.816406 85.34375 219.121094 87.003906 C 219.003906 87.054688 218.894531 87.105469 218.78125 87.160156 C 218.765625 86.878906 218.746094 86.597656 218.71875 86.3125 C 217.363281 71.839844 204.316406 65.570312 191.992188 65.777344 C 184.871094 65.894531 178.191406 68.546875 173.1875 73.242188 C 170.980469 75.3125 169.207031 77.683594 167.910156 80.25 C 162.324219 73.875 153.707031 69.917969 144.105469 69.777344 C 131.941406 69.597656 122.535156 73.96875 118.300781 81.773438 C 117.746094 82.792969 117.300781 83.847656 116.960938 84.921875 C 112.15625 84.941406 104.183594 86.324219 98.230469 94.152344 C 94.960938 98.445312 93.992188 102.585938 93.992188 105.992188 C 93.992188 107.46875 94.171875 108.804688 94.429688 109.957031 C 94.597656 110.703125 94.800781 111.402344 95.019531 112.046875 C 87.582031 113.917969 81.066406 117.582031 76.707031 122.511719 C 72.636719 127.117188 70.542969 132.636719 70.542969 138.660156 C 70.542969 140.0625 70.660156 141.488281 70.882812 142.9375 C 71.132812 144.523438 71.558594 146.054688 72.128906 147.519531 C 64.148438 149.863281 59.722656 155.285156 58.96875 156.273438 C 58.21875 157.183594 54.550781 161.945312 54.550781 168.59375 C 54.550781 171.765625 55.386719 175.367188 57.765625 179.183594 C 63.652344 188.621094 72.101562 189.082031 76.613281 188.523438 C 77.347656 188.429688 78.042969 188.300781 78.699219 188.15625 L 78.699219 186.90625 L 89.714844 181.613281 C 85.257812 178.398438 81.890625 173.601562 81.753906 166.441406 C 81.710938 164.378906 79.871094 162.738281 77.644531 162.773438 C 75.441406 162.808594 73.683594 164.476562 73.683594 166.511719 L 73.683594 166.578125 C 73.785156 171.824219 75.234375 176.546875 77.9375 180.589844 C 76.324219 181.082031 74.179688 181.445312 72.011719 181.023438 C 69.15625 180.464844 66.714844 178.589844 64.753906 175.445312 C 59.878906 167.632812 64.996094 161.277344 65.355469 160.851562 C 65.457031 160.738281 65.472656 160.71875 65.5625 160.589844 C 65.726562 160.367188 69.351562 155.578125 76.1875 154.257812 C 80.664062 159.464844 87.355469 162.78125 94.472656 162.699219 C 99.539062 162.636719 106.332031 160.15625 110.097656 154.746094 C 112.714844 150.992188 114.84375 144.433594 110.15625 134.5 C 109.261719 132.609375 106.882812 131.746094 104.839844 132.574219 C 102.796875 133.398438 101.863281 135.605469 102.757812 137.496094 C 104.554688 141.300781 106.109375 146.683594 103.3125 150.695312 C 101.035156 153.964844 96.71875 155.195312 94.367188 155.222656 C 86.863281 155.3125 80.054688 149.445312 78.867188 141.867188 C 77.984375 136.234375 79.359375 131.320312 82.949219 127.253906 C 87.574219 122.015625 95.601562 118.625 104.421875 118.183594 C 113.417969 117.730469 121.65625 119.597656 128.902344 123.730469 C 134.335938 126.828125 137.175781 130.125 137.25 130.210938 C 137.324219 130.296875 137.398438 130.375 137.476562 130.453125 C 136.398438 134.226562 136.714844 138.164062 138.523438 141.476562 C 140.914062 145.875 145.566406 148.417969 151.28125 148.453125 C 153.507812 148.46875 155.328125 146.808594 155.347656 144.742188 L 155.347656 144.714844 C 155.347656 142.664062 153.558594 140.992188 151.34375 140.976562 C 148.644531 140.957031 146.757812 139.992188 145.726562 138.105469 C 144.296875 135.480469 144.878906 131.636719 147.136719 128.757812 C 148.972656 126.421875 153.472656 122.710938 163.023438 124.082031 C 165.089844 124.375 166.84375 125.171875 168.3125 126.277344 C 168.792969 126.75 169.316406 127.222656 169.882812 127.683594 C 173.152344 131.132812 174.566406 136.25 174.636719 139.8125 C 174.753906 145.902344 172.304688 151.671875 167.742188 156.054688 C 163.175781 160.4375 157.042969 162.910156 150.46875 163.019531 C 142.21875 163.160156 134.484375 159.484375 129.777344 153.191406 C 128.507812 151.492188 125.996094 151.070312 124.160156 152.246094 C 123.027344 152.972656 122.425781 154.136719 122.425781 155.320312 C 122.425781 156.054688 122.660156 156.796875 123.140625 157.449219 C 128.382812 164.453125 136.453125 169.011719 145.386719 170.191406 C 143.769531 177.109375 138.894531 182.132812 130.859375 185.148438 C 128.546875 186.015625 126.203125 186.632812 123.96875 187.078125 L 123.96875 194.703125 C 127.113281 194.167969 130.511719 193.34375 133.890625 192.078125 C 136.636719 191.046875 139.117188 189.808594 141.324219 188.382812 C 144.554688 194.566406 149.945312 199.410156 156.460938 202.253906 Z M 103.992188 110.714844 C 103.691406 110.730469 103.390625 110.75 103.09375 110.769531 C 102 108.300781 100.910156 103.605469 104.824219 98.457031 C 108.476562 93.65625 113.234375 92.5625 116.296875 92.410156 C 116.707031 95.535156 117.980469 98.542969 120.082031 101.082031 C 124.90625 106.914062 132.96875 109.242188 142.191406 107.476562 C 144.371094 107.058594 145.777344 105.082031 145.324219 103.058594 C 144.875 101.039062 142.738281 99.734375 140.558594 100.15625 C 134.390625 101.335938 129.394531 100.050781 126.484375 96.535156 C 123.851562 93.355469 123.472656 88.882812 125.507812 85.136719 C 128.296875 79.996094 135.03125 77.125 143.980469 77.257812 C 154.152344 77.40625 162.8125 83.25 165.535156 91.800781 C 166.089844 93.542969 166.386719 95.355469 166.425781 97.199219 L 166.425781 97.363281 C 166.429688 97.476562 166.429688 97.597656 166.429688 97.710938 C 166.425781 97.785156 166.425781 97.855469 166.425781 97.929688 L 166.425781 98.195312 C 166.402344 101.285156 166.339844 109.492188 158.796875 115.625 C 158.53125 115.839844 158.308594 116.082031 158.121094 116.34375 C 151.230469 116.570312 145.375 119.011719 141.441406 123.382812 C 136.664062 118.953125 124.171875 109.703125 103.988281 110.71875 Z M 175.707031 122.46875 C 173.640625 120.34375 171.058594 118.601562 167.90625 117.550781 C 174.40625 109.914062 174.472656 101.355469 174.496094 98.246094 L 174.496094 97.894531 C 174.496094 97.894531 174.5 97.875 174.5 97.867188 C 174.5 97.675781 174.5 97.484375 174.5 97.289062 C 174.5 97.210938 174.5 97.140625 174.496094 97.054688 C 174.453125 94.753906 174.101562 92.480469 173.460938 90.289062 C 173.796875 81.019531 182.066406 73.421875 192.136719 73.253906 C 200.085938 73.121094 209.714844 76.632812 210.683594 86.960938 C 210.902344 89.320312 210.707031 91.433594 210.207031 93.285156 C 209.679688 93.945312 209.414062 94.71875 209.414062 95.492188 C 207.746094 99.128906 204.753906 101.371094 201.625 101.914062 C 197.535156 102.628906 194.257812 100.398438 192.851562 95.953125 C 192.230469 93.972656 189.988281 92.835938 187.851562 93.414062 C 185.710938 93.996094 184.480469 96.074219 185.109375 98.054688 C 188.074219 107.445312 196.285156 110.453125 203.117188 109.265625 C 209.09375 108.226562 214.816406 103.941406 217.402344 97.109375 C 217.449219 97.070312 217.492188 97.027344 217.539062 96.988281 C 217.554688 96.976562 217.570312 96.960938 217.585938 96.945312 C 217.722656 96.824219 217.867188 96.707031 218.011719 96.585938 C 219.40625 95.441406 220.960938 94.480469 222.632812 93.734375 C 225.277344 92.550781 228.121094 91.921875 231.089844 91.871094 C 236.515625 91.785156 241.660156 93.65625 245.5625 97.148438 C 249.46875 100.636719 251.671875 105.324219 251.769531 110.351562 C 251.804688 112.089844 251.585938 113.816406 251.113281 115.480469 C 249.53125 121.050781 245.171875 125.730469 239.4375 128.003906 C 237.035156 128.960938 234.472656 129.460938 231.824219 129.503906 C 228.519531 129.5625 225.277344 128.867188 222.371094 127.519531 C 225.683594 124.152344 228.148438 120.160156 229.585938 115.75 C 230.230469 113.773438 229.023438 111.6875 226.890625 111.089844 C 224.757812 110.492188 222.507812 111.609375 221.859375 113.589844 C 220.375 118.144531 217.441406 122.125 213.378906 125.089844 C 213.375 125.097656 213.367188 125.097656 213.363281 125.105469 C 209.042969 128.257812 203.847656 129.972656 198.332031 130.066406 C 191.417969 130.179688 181.082031 126.601562 175.710938 122.46875 Z M 175.707031 122.46875 " fill-opacity="1" fill-rule="nonzero"/></g><path fill="#fffefa" d="M 280.128906 186.144531 C 277.960938 185.820312 275.859375 185.332031 273.851562 184.679688 L 273.851562 189.769531 L 279.144531 193.574219 C 281.792969 193.953125 284.515625 194.128906 287.273438 194.082031 C 288.128906 194.066406 288.972656 194.027344 289.808594 193.972656 L 280.128906 186.324219 Z M 280.128906 186.144531 " fill-opacity="1" fill-rule="nonzero"/><path fill="#fffefa" d="M 117.25 193.273438 L 117.25 187.984375 C 113.679688 188.25 111.101562 188.121094 110.574219 188.085938 C 107.746094 187.914062 102.199219 187.308594 96.71875 185.269531 L 87.832031 189.535156 C 95.3125 193.792969 103.90625 195.167969 110.035156 195.546875 C 110.65625 195.582031 112.054688 195.648438 113.996094 195.621094 Z M 117.25 193.273438 " fill-opacity="1" fill-rule="nonzero"/></svg>