<svg width="90" height="36" viewBox="0 0 90 36" fill="none" xmlns="http://www.w3.org/2000/svg">
<path fill-rule="evenodd" clip-rule="evenodd" d="M2.7565 8.26292C4.27347 8.26292 5.5032 9.50758 5.5032 11.0432V11.5817V11.7621C5.66558 10.1931 6.34316 8.73882 7.45386 7.60773C8.73681 6.3009 10.4427 5.58144 12.257 5.58144C15.9441 5.58155 18.9524 8.58973 19.0456 12.3228C19.084 9.49437 20.0405 6.81777 21.7718 4.64783C19.5236 1.82725 16.0938 0.0212071 12.2572 0.020874H12.2569C8.98431 0.020874 5.90757 1.31893 3.59353 3.6757C2.04253 5.25539 0.763847 7.13826 0.217538 9.24204C-0.051181 10.2773 0.00485357 11.4007 0.00485357 12.5C0.00485357 12.6148 0.00665027 12.7291 0.0096822 12.8431V11.0432C0.0096822 9.50758 1.23952 8.26292 2.7565 8.26292Z" fill="#2D8BFB"/>
<path fill-rule="evenodd" clip-rule="evenodd" d="M17.0604 17.393C15.7774 18.6998 14.0716 19.4192 12.2572 19.4192C8.75599 19.4191 5.86578 16.7069 5.5033 13.237V22.907C7.44081 24.2159 9.76293 24.9797 12.2571 24.9798H12.2574C15.5299 24.9798 18.6067 23.6818 20.9208 21.325C21.226 21.0141 21.5124 20.6895 21.7809 20.353C20.1049 18.2504 19.0863 15.5839 19.0457 12.6805C19.0013 14.4611 18.3016 16.1288 17.0604 17.393Z" fill="#2D8BFB"/>
<path fill-rule="evenodd" clip-rule="evenodd" d="M0.00964355 12.8431V33.2197C0.00964355 34.7552 1.23937 36 2.75635 36C4.27343 36 5.50316 34.7552 5.50316 33.2197V22.907C2.28 20.7295 0.121488 17.0421 0.00964355 12.8431Z" fill="#2763FB"/>
<path fill-rule="evenodd" clip-rule="evenodd" d="M5.46432 12.5C5.46432 12.2517 5.47813 12.0055 5.50328 11.7621V11.0432C5.50328 9.50757 4.27356 8.26291 2.75658 8.26291C1.23949 8.26291 0.00976562 9.50757 0.00976562 11.0432V12.8431C0.12161 17.0422 2.28012 20.7295 5.50328 22.907V13.2371C5.47802 12.9948 5.46432 12.749 5.46432 12.5Z" fill="#1157FB"/>
<path fill-rule="evenodd" clip-rule="evenodd" d="M38.8482 22.3243C39.3057 21.9548 39.8705 21.4476 40.4389 20.8051C40.4442 20.799 40.4495 20.7929 40.4549 20.7868C40.5289 20.7027 40.6029 20.6158 40.6768 20.5272C40.7519 20.4365 40.8262 20.3454 40.8985 20.2528C40.9126 20.2349 40.9266 20.2168 40.9407 20.1987C41.1286 19.9555 41.3072 19.7063 41.4757 19.4512C41.4848 19.4375 41.4938 19.4234 41.5028 19.4097C41.5662 19.3129 41.6274 19.2147 41.6881 19.1164C41.7205 19.0633 41.7531 19.0108 41.7852 18.9565C42.5907 17.6042 43.1341 16.1105 43.3862 14.5407C43.3943 14.4898 43.4001 14.4381 43.4076 14.3871C39.138 13.4491 38.2696 11.5072 37.6738 10.1229C37.7992 10.4707 37.8991 10.8308 37.9686 11.2019C38.0474 11.6228 38.0886 12.057 38.0886 12.5007C38.0886 13.8541 37.7096 15.1483 37.0029 16.2573C36.7446 16.6627 36.4424 17.0432 36.099 17.393C34.816 18.6998 33.1102 19.4192 31.2958 19.4192C27.6087 19.4191 24.6006 16.4109 24.5073 12.6779C24.4687 15.5064 23.5121 18.183 21.7809 20.3531C24.0291 23.1736 27.4589 24.9797 31.2955 24.9798H31.296C33.8377 24.9798 36.2613 24.1964 38.3012 22.7422C38.4134 22.6623 38.5233 22.5785 38.6331 22.4945C38.7057 22.4391 38.7768 22.3813 38.8482 22.3243Z" fill="#25C7FA"/>
<path fill-rule="evenodd" clip-rule="evenodd" d="M41.7138 5.91458C41.8171 6.07998 41.9082 6.24117 41.9917 6.39836C42.1675 6.72119 42.2806 6.97385 42.3621 7.14592C42.3783 7.17966 42.3946 7.21297 42.4109 7.24616C42.4206 7.26525 42.4299 7.28313 42.4388 7.299C42.4485 7.32076 42.4586 7.34152 42.4686 7.36272C42.7574 7.93854 43.0851 8.56619 43.7355 8.95473C43.3533 8.61815 43.1479 8.09329 43.1479 7.49915C43.1479 6.58098 43.515 5.9178 44.2496 5.50972C44.9832 5.10153 45.734 4.89716 46.5002 4.89716C47.4985 4.89716 48.7412 5.06678 49.3027 5.55057C50.192 6.31699 49.9765 6.56821 50.8561 7.04922C51.1087 7.16534 52.5031 7.78934 53.8366 6.65635C53.9348 6.56921 54.9455 5.75417 54.6928 3.91315C54.6507 3.79703 54.3746 2.73832 53.1863 1.9528C52.5545 1.53507 51.9264 1.116 51.1933 0.841688C49.6923 0.280415 48.1764 0 46.6439 0C45.4946 0 44.3608 0.153196 43.244 0.45881C42.1262 0.765091 41.1366 1.24211 40.2747 1.88764C39.9275 2.14796 39.1683 2.91294 39.1708 2.95235C40.2864 3.97332 41.153 5.01738 41.7138 5.91458Z" fill="#4FF7EE"/>
<path fill-rule="evenodd" clip-rule="evenodd" d="M44.0605 9.12336C43.8417 8.99792 43.1302 8.75969 42.4713 7.35439C42.452 7.31587 42.4328 7.27691 42.4136 7.23783C42.3973 7.20464 42.381 7.17122 42.3647 7.13759C42.2495 6.89936 42.1325 6.65025 41.9944 6.39004C41.7917 6.01781 41.5049 5.55179 41.0854 5.00528C42.6307 7.09374 43.5481 9.69007 43.5481 12.5007C43.5481 13.1383 43.4992 13.7681 43.4077 14.3871C43.4712 14.4011 43.5325 14.4156 43.5975 14.429C43.5975 14.429 45.3574 14.7918 46.5187 15.0982C47.6954 15.3251 48.2964 15.6301 48.9162 16.0598C49.7534 16.6404 49.7461 17.4597 49.7713 17.5671C49.9553 19.7047 47.748 20.2486 47.2812 20.3765C43.8193 21.0449 42.3359 19.3871 41.8051 18.9238C41.7984 18.9349 41.7917 18.9454 41.7852 18.9565C41.7531 19.0108 41.7205 19.0634 41.6882 19.1164C41.6274 19.2147 41.5662 19.3129 41.5028 19.4097C41.4938 19.4234 41.4848 19.4375 41.4758 19.4512C41.3287 19.6745 41.1787 19.8877 41.0254 20.09C40.9973 20.127 40.9689 20.1623 40.9407 20.1987C40.9266 20.2168 40.9127 20.2349 40.8985 20.2528C40.8262 20.3454 40.7519 20.4365 40.6768 20.5272C40.6029 20.6158 40.5289 20.7027 40.4548 20.7868C40.4496 20.7929 40.4442 20.799 40.4389 20.8051C40.2838 20.9817 40.1253 21.156 39.9594 21.325C39.6067 21.6841 39.2345 22.0157 38.8481 22.3243C38.7737 22.3844 38.7015 22.4417 38.6332 22.4945C38.5113 22.5887 38.3994 22.6717 38.3013 22.7422C38.2903 22.7501 38.2781 22.7591 38.2676 22.7667C39.766 24.2373 41.8526 24.612 43.3691 24.8437C52.8472 26.3111 54.7767 20.9726 55.0664 20.0898C55.1961 19.7786 55.2876 19.4852 55.3587 19.1307C55.3542 19.1235 55.4017 18.9403 55.3973 18.933C55.5377 17.9409 55.6148 17.2332 55.4604 16.0953C55.3039 14.942 55.0542 13.9299 53.7126 12.6882C52.6741 11.7568 51.4084 11.2977 50.5728 10.98C50.1549 10.8251 48.5684 10.3809 46.8109 10.0127C46.298 9.91143 44.2599 9.23781 44.0605 9.12336Z" fill="#2EE2ED"/>
<path fill-rule="evenodd" clip-rule="evenodd" d="M66.2471 5.56499C64.7659 5.27858 63.7934 3.82334 64.0747 2.31491C64.3095 1.05538 65.3441 0.15774 66.5414 0.062159C66.2901 0.0462844 66.0372 0.0372925 65.7822 0.0372925H65.7817C62.5093 0.0372925 59.4324 1.33524 57.1185 3.69212C54.8043 6.04911 53.5542 9.21805 53.5542 12.5515C53.6123 12.602 53.6681 12.6509 53.7224 12.7013C54.5611 13.4532 55.2522 14.5147 55.4586 16.0727C55.5653 16.8775 55.5586 18.0623 55.3657 19.0822C57.5306 22.62 61.3962 24.9962 65.782 24.9963H65.7823C68.324 24.9963 70.7473 24.2128 72.7871 22.759C72.7875 22.7588 72.7881 22.7584 72.7885 22.758C72.9021 22.6771 73.0133 22.5924 73.1245 22.5072C73.1251 22.5068 73.1256 22.5063 73.1262 22.506C73.205 22.4456 73.2824 22.383 73.36 22.3207C73.3891 22.2973 73.4174 22.2729 73.4462 22.2493C73.5122 22.1951 73.579 22.1393 73.6487 22.0794C73.6968 22.038 73.7456 21.9953 73.7952 21.9515C73.9134 21.8468 74.0354 21.7348 74.1601 21.6157C74.2848 21.4967 74.4122 21.3705 74.5409 21.2374C74.6681 21.1056 74.7967 20.9669 74.9253 20.8216C74.9306 20.8153 74.9359 20.8093 74.9412 20.8032C75.0153 20.7192 75.0893 20.6322 75.1632 20.5437C75.2382 20.453 75.3127 20.3618 75.385 20.2692C75.399 20.2512 75.4131 20.2332 75.4271 20.2151C75.6149 19.9721 75.7933 19.7232 75.9617 19.4684C75.962 19.4681 75.9621 19.4678 75.9622 19.4676H75.9623C75.9632 19.4661 75.9641 19.4646 75.9651 19.4633C75.9731 19.451 75.981 19.4385 75.989 19.4262C76.0526 19.3294 76.1138 19.2313 76.1745 19.1329C76.2069 19.0799 76.2394 19.0272 76.2717 18.9728C77.077 17.6206 77.6205 16.1271 77.8725 14.557C77.8807 14.5062 77.8864 14.4546 77.8941 14.4035C77.5765 14.3338 77.2777 14.2585 76.9964 14.1781C76.8558 14.1381 76.7195 14.0967 76.5874 14.0543C76.4554 14.0117 76.3276 13.9682 76.2038 13.9234C76.0388 13.8638 75.881 13.8024 75.7301 13.7391C75.5287 13.655 75.3396 13.5675 75.1616 13.4778C74.9245 13.3578 74.7073 13.2333 74.508 13.1053C74.4282 13.0543 74.3514 13.0025 74.2773 12.9501C73.9808 12.7412 73.7279 12.5243 73.5098 12.3037C73.4552 12.2487 73.4029 12.1932 73.3526 12.1376C73.3405 12.1242 73.3288 12.1109 73.3169 12.0976C73.1264 11.8828 72.9657 11.666 72.8269 11.4513C72.7715 11.3653 72.7195 11.2797 72.6705 11.1946C72.646 11.1521 72.6222 11.1097 72.5992 11.0675C72.5636 11.0024 72.5295 10.9376 72.4967 10.8732C72.464 10.809 72.4327 10.7451 72.4027 10.6822C72.3296 10.5282 72.2633 10.378 72.2008 10.2334C72.187 10.2016 72.1737 10.1705 72.1602 10.1394C72.2856 10.4871 72.3855 10.8472 72.455 11.2184C72.5337 11.6391 72.5751 12.0733 72.5751 12.5171C72.5751 13.8705 72.1961 15.1648 71.4893 16.2738C71.2309 16.679 70.9288 17.0598 70.5854 17.4096C69.3024 18.7162 67.5966 19.4356 65.7821 19.4356C62.0365 19.4355 58.9892 16.3315 58.9892 12.5165C58.9892 10.6683 59.6958 8.93086 60.9788 7.62403C62.2618 6.31732 63.9676 5.59785 65.7819 5.59785C65.9481 5.59785 66.2081 5.60451 66.3713 5.61661L66.2471 5.56499Z" fill="#32AAFC"/>
<path fill-rule="evenodd" clip-rule="evenodd" d="M24.5028 12.5C24.5028 12.4397 24.5056 12.38 24.5072 12.3199C24.4664 9.41677 23.4478 6.75038 21.7718 4.64783C20.0406 6.81777 19.0839 9.49436 19.0455 12.3228C19.047 12.3821 19.0499 12.4411 19.0499 12.5008C19.0499 12.5609 19.0472 12.6206 19.0456 12.6805C19.0863 15.5839 20.1049 18.2504 21.7809 20.3531C23.5121 18.183 24.4688 15.5064 24.5073 12.6779C24.5057 12.6187 24.5028 12.5597 24.5028 12.5Z" fill="#00BCE8"/>
<path fill-rule="evenodd" clip-rule="evenodd" d="M31.8156 5.60119L31.7607 5.54858C30.2796 5.26206 29.307 3.80681 29.5883 2.29838C29.8231 1.03896 30.8579 0.14121 32.055 0.0456296C31.8038 0.0297549 31.5508 0.020874 31.2958 0.020874H31.2955C28.023 0.020874 24.9462 1.31882 22.6321 3.6757C22.3269 3.98653 22.0403 4.31124 21.7719 4.64772C23.4478 6.75039 24.4664 9.41666 24.5072 12.3199C24.5516 10.5394 25.2512 8.8717 26.4925 7.60761C27.7754 6.3009 29.4813 5.58144 31.2956 5.58144C31.4409 5.58144 31.6304 5.58854 31.7735 5.59775" fill="#25C7FA"/>
<path fill-rule="evenodd" clip-rule="evenodd" d="M29.5882 2.29838C29.3069 3.80691 30.3065 5.31123 31.7875 5.59775C31.8487 5.60297 33.9258 5.60618 35.7692 7.30011C35.8209 7.34629 35.8696 7.39558 35.9198 7.44331C36.6941 8.17821 37.3022 9.09205 37.6738 10.1229C38.2696 11.5072 39.138 13.4491 43.4076 14.3871C43.4993 13.7681 43.548 13.1383 43.548 12.5007C43.548 9.69007 42.6307 7.09374 41.0854 5.00528C40.6366 4.42058 40.0355 3.74419 39.2222 2.99298C37.2646 1.29717 34.7789 0.216248 32.055 0.0456238C30.8578 0.141205 29.823 1.03895 29.5882 2.29838Z" fill="#2EE2ED"/>
<path fill-rule="evenodd" clip-rule="evenodd" d="M71.9887 9.71949C72.0459 9.85182 72.0988 9.98637 72.148 10.1229C72.1615 10.1541 72.1749 10.1852 72.1886 10.2169C72.2511 10.3616 72.3174 10.5117 72.3905 10.6656C72.4204 10.7287 72.4518 10.7925 72.4846 10.8568C72.5173 10.9211 72.5515 10.9859 72.5871 11.0511C72.6101 11.0933 72.6338 11.1357 72.6583 11.1783C72.7072 11.2633 72.7592 11.3489 72.8147 11.4348C72.9535 11.6496 73.1162 11.8712 73.3067 12.086C73.3186 12.0994 73.3318 12.1172 73.3439 12.1306C73.3943 12.1861 73.4466 12.2415 73.5012 12.2966C73.7192 12.5172 73.9708 12.7423 74.2673 12.9514C74.3414 13.0037 74.4083 13.0456 74.488 13.0969C74.6873 13.2249 74.9045 13.3493 75.1417 13.4691C75.3195 13.559 75.5187 13.6561 75.7201 13.7403C75.871 13.8036 76.0289 13.865 76.1938 13.9246C76.3176 13.9693 76.4454 14.013 76.5776 14.0555C76.7096 14.0979 76.8458 14.1392 76.9864 14.1794C77.2677 14.2595 77.5665 14.3349 77.8841 14.4046C77.9757 13.7857 78.0222 13.1383 78.0222 12.5007C78.0222 8.6711 76.3192 5.23941 73.6447 2.94824C71.3291 6.13405 71.8704 9.1883 71.9887 9.71949Z" fill="#1775FA"/>
<path fill-rule="evenodd" clip-rule="evenodd" d="M76.4599 6.46376C76.4603 6.46464 76.4669 6.42679 76.4673 6.42768C76.6411 6.74717 76.7477 7.03635 76.8288 7.20798C77.1511 7.87427 77.4505 8.41656 78.197 8.92721C77.8157 8.59073 77.6221 8.11938 77.6221 7.52602C77.6221 6.60785 77.9892 5.94467 78.724 5.53648C79.4575 5.1284 80.2083 4.92403 80.9745 4.92403C81.9727 4.92403 83.2155 5.09365 83.7769 5.57744C84.6663 6.34375 84.4507 6.59508 85.3303 7.07609C85.583 7.19221 86.9773 7.81621 88.3108 6.68323C88.4091 6.59608 89.4197 5.78104 89.167 3.94002C89.1249 3.8239 88.8488 2.76519 87.6605 1.97956C87.0287 1.56194 86.4007 1.14287 85.6675 0.868559C84.1665 0.307286 82.6506 0.0268707 81.1182 0.0268707C79.9688 0.0268707 78.835 0.180066 77.7184 0.485681C76.6005 0.791961 75.6108 1.26898 74.7491 1.91451C74.4018 2.17483 73.6426 2.93981 73.645 2.97922C74.7858 3.96722 75.6213 5.083 76.1821 5.98019C76.2856 6.14582 76.3827 6.2686 76.4664 6.42601" fill="#4D3FF6"/>
<path fill-rule="evenodd" clip-rule="evenodd" d="M78.1297 8.87581C78.1302 8.87625 78.1848 8.91866 78.1863 8.91977C78.22 8.94286 78.2563 8.96562 78.2918 8.98837C78.3169 9.00458 78.3406 9.02101 78.3668 9.037C78.4298 9.07574 78.4956 9.11393 78.5645 9.15156L78.5719 9.15567C78.663 9.20529 78.7723 9.24381 78.8745 9.29177C78.8796 9.29421 78.8849 9.29665 78.8901 9.29909C78.9918 9.3465 79.1033 9.38102 79.217 9.42676C79.2227 9.42909 79.2285 9.43142 79.2344 9.43375C79.2852 9.45407 79.3372 9.47416 79.3906 9.49414C79.3989 9.49736 79.4071 9.50047 79.4155 9.50358C79.4752 9.52578 79.5363 9.54776 79.5992 9.56963C79.6001 9.56985 79.6011 9.57018 79.602 9.57052C79.6613 9.59105 79.7225 9.61126 79.7846 9.63146C79.7981 9.6359 79.8117 9.64023 79.8254 9.64456C79.8867 9.66421 79.9492 9.68364 80.0136 9.70295C80.0166 9.70384 80.0195 9.70484 80.0226 9.70573C80.09 9.72582 80.1594 9.74569 80.2302 9.76556C80.2464 9.77012 80.263 9.77456 80.2794 9.77911C80.3374 9.79509 80.3967 9.81108 80.4571 9.82684C80.4727 9.83095 80.4881 9.83506 80.504 9.83905C80.5773 9.85804 80.6523 9.8768 80.729 9.89534C80.7443 9.899 80.76 9.90266 80.7754 9.90633C80.8388 9.92142 80.9034 9.93652 80.9692 9.9514C80.9916 9.9565 81.0141 9.96161 81.0368 9.96672C81.117 9.98459 81.1983 10.0024 81.2819 10.0199C81.283 10.0201 81.2839 10.0203 81.2851 10.0206C81.4498 10.0551 81.6131 10.0903 81.774 10.1258C81.9886 10.1732 82.199 10.2213 82.4034 10.2692C82.71 10.3413 83.0028 10.4131 83.2755 10.4824C83.3663 10.5056 83.4549 10.5283 83.541 10.5507C83.8426 10.6293 84.1134 10.7034 84.3433 10.769C84.6716 10.8628 84.9164 10.9394 85.047 10.9878C85.1886 11.0418 85.3425 11.0994 85.5053 11.1626C85.5596 11.1837 85.6149 11.2054 85.6711 11.2278C85.8958 11.3174 86.1349 11.4176 86.3807 11.5329C87.5482 12.08 88.8686 12.9616 89.54 14.6028C89.6106 14.7755 89.6741 14.9567 89.7294 15.1467C89.8125 15.4319 89.8772 15.7371 89.9206 16.064C89.965 16.4 89.995 16.7992 89.9994 17.227C90.0018 17.4621 89.9965 17.706 89.9815 17.9528C89.9667 18.1995 89.9422 18.4492 89.9064 18.6961C89.8348 19.1899 89.7178 19.6723 89.5406 20.0976C89.4862 20.2632 89.3743 20.5854 89.1657 20.9899C89.0788 21.1586 88.9752 21.3414 88.8519 21.5332C88.8026 21.6099 88.7501 21.6881 88.6944 21.7673C88.2762 22.3617 87.6717 23.0171 86.8045 23.5887C86.689 23.6649 86.5686 23.7396 86.4435 23.8125C86.1307 23.9947 85.7876 24.1654 85.4114 24.3193C85.1856 24.4116 84.948 24.498 84.6978 24.5769C84.6145 24.6033 84.5297 24.6289 84.4434 24.6535C84.2711 24.703 84.093 24.749 83.909 24.7913C83.0815 24.9816 82.1357 25.0965 81.0553 25.1048C80.4551 25.1093 79.8132 25.0809 79.127 25.0142C78.7152 24.9741 78.2876 24.9203 77.8433 24.8516C77.6537 24.8226 77.4553 24.7914 77.2501 24.7561C77.0963 24.7296 76.9387 24.7008 76.7784 24.6691C76.618 24.6371 76.4549 24.6022 76.2899 24.5634C76.18 24.5375 76.0691 24.5099 75.9579 24.4803C75.8465 24.4508 75.7346 24.4193 75.6226 24.3855C75.3983 24.3182 75.1732 24.242 74.9492 24.1553C74.8373 24.1119 74.7257 24.0658 74.6145 24.017C74.448 23.9435 74.2828 23.8637 74.1198 23.7765C73.9977 23.7111 73.8767 23.6417 73.7576 23.5678C73.6981 23.5309 73.6389 23.4928 73.5802 23.4536C73.4334 23.3557 73.2896 23.2505 73.1496 23.1376C73.0797 23.081 73.0106 23.0227 72.9426 22.9622C72.8746 22.9017 72.8224 22.8536 72.7566 22.7889C72.7673 22.7813 72.7794 22.7724 72.7903 22.7644C72.89 22.6928 73.0035 22.6088 73.1276 22.5128C73.1523 22.4936 73.178 22.4734 73.2036 22.4532C73.2528 22.4145 73.3105 22.3689 73.3626 22.3267C73.3652 22.3246 73.3677 22.3226 73.3702 22.3206C73.3736 22.318 73.377 22.3152 73.3806 22.3124C73.3995 22.2969 73.4193 22.2803 73.4387 22.2643C73.4444 22.2597 73.4507 22.2542 73.4564 22.2495C73.8027 21.9667 74.1151 21.6571 74.4335 21.3327C74.5994 21.1639 74.758 20.9896 74.9131 20.8129C74.9184 20.8069 74.9237 20.8007 74.929 20.7947C75.0031 20.7105 75.0771 20.6237 75.151 20.535C75.226 20.4443 75.3004 20.3532 75.3727 20.2607C75.3868 20.2428 75.4008 20.2246 75.4149 20.2065C75.4431 20.1702 75.4715 20.1348 75.4996 20.0977C75.567 20.0089 75.6338 19.9182 75.7 19.8254C75.7693 19.7284 75.8415 19.6353 75.9093 19.5333C75.9241 19.5111 75.939 19.4893 75.9538 19.4669C75.9538 19.4669 75.9499 19.4592 75.95 19.4591V19.459C75.951 19.4575 75.9558 19.4636 75.9567 19.4623C75.9648 19.45 75.9728 19.4375 75.9808 19.4253C75.9863 19.4168 75.9918 19.4082 75.9974 19.3997C76.0542 19.3122 76.1285 19.2125 76.1762 19.1368C76.2091 19.0842 76.2411 19.0314 76.2731 18.9772C76.2796 18.9661 76.2864 18.9555 76.2931 18.9443C76.4091 19.0457 76.5571 19.1914 76.775 19.3703C76.993 19.5491 77.2674 19.7482 77.6088 19.9308C77.7551 20.009 77.9138 20.0842 78.0855 20.1535C78.2 20.1996 78.3204 20.2432 78.447 20.2832C78.5734 20.3233 78.706 20.3598 78.8449 20.392C79.1227 20.4563 79.426 20.5033 79.7568 20.5258C80.1908 20.5555 80.6719 20.5433 81.205 20.4736C81.3827 20.4504 81.566 20.4209 81.7554 20.3842C81.8137 20.3683 81.8992 20.3458 82.0039 20.3145C82.1086 20.2832 82.2324 20.2432 82.3672 20.192C82.4684 20.1536 82.5758 20.1089 82.6859 20.0571C82.7227 20.0398 82.7597 20.0217 82.797 20.0028C82.9086 19.9461 83.0219 19.8818 83.1336 19.809C83.7661 19.3964 84.3433 18.7105 84.2455 17.5749C84.2423 17.5615 84.2397 17.5369 84.2358 17.5031C84.2301 17.4523 84.2217 17.3808 84.2047 17.2946C84.182 17.1798 84.1443 17.039 84.0777 16.8872C83.9614 16.6213 83.7567 16.3217 83.3904 16.0677C83.3129 16.014 83.2357 15.9621 83.1577 15.9123C83.0796 15.8623 83.0007 15.8142 82.9197 15.768C82.8389 15.7217 82.7559 15.6773 82.6698 15.6343C82.5835 15.5916 82.4942 15.5504 82.4005 15.5107C82.1194 15.3921 81.7991 15.2876 81.4084 15.1949C81.2781 15.164 81.14 15.1344 80.9929 15.1061C80.8114 15.0581 80.6153 15.009 80.4137 14.9599C80.2926 14.9305 80.1697 14.9012 80.0465 14.8723C79.9644 14.853 79.8823 14.8339 79.8008 14.815C79.7191 14.7964 79.6382 14.7778 79.5582 14.7596C79.3185 14.7053 79.0888 14.6546 78.8847 14.6101C78.4084 14.5063 78.0688 14.4449 78.0688 14.4449C78.0036 14.4314 77.9424 14.4168 77.8789 14.403C77.9705 13.784 78.0222 13.1462 78.0222 12.5085C78.0222 12.5085 78.028 10.9723 77.7016 9.67487C77.6876 9.62658 77.47 8.66555 77.093 7.73572C77.0906 7.72962 77.0599 7.65291 77.0573 7.64691C77.0643 7.65613 77.0697 7.66778 77.0697 7.66778C77.0697 7.66778 77.3765 8.32308 78.1297 8.87581Z" fill="#007AFF"/>
<path fill-rule="evenodd" clip-rule="evenodd" d="M64.0624 2.29838C63.7811 3.80691 64.7619 5.31123 66.2429 5.59775C66.3459 5.64859 68.3718 5.61629 70.22 7.28601C70.263 7.32497 70.3276 7.3797 70.37 7.41945C71.053 8.06154 71.6088 8.84172 71.9887 9.71949C71.8704 9.1883 71.3291 6.13404 73.6447 2.94824C71.6949 1.27818 69.229 0.214694 66.5292 0.0456238C65.332 0.141205 64.2972 1.03895 64.0624 2.29838Z" fill="#1982FB"/>
</svg>
