<svg width="522" height="116" viewBox="0 0 522 116" fill="none" xmlns="http://www.w3.org/2000/svg">
<path d="M123.637 23.4783L97.585 89.2271L75.545 37.4911L53.505 89.2271L27.4533 23.4783C23.2 12.7599 12.5183 5.66071 0.531647 5.66071L37.41 94.0991C41.5183 103.982 51.5233 110.478 62.64 110.478L75.5933 79.6223L88.4983 110.478C99.615 110.478 109.572 103.982 113.728 94.0991L150.607 5.66071C138.62 5.66071 127.89 12.7599 123.637 23.4783Z" fill="#101828"/>
<path d="M197.828 110.525V110.525V22.9679C197.828 13.4095 205.9 5.66071 215.857 5.66071V5.66071V93.2175C215.857 102.776 207.785 110.525 197.828 110.525Z" fill="#101828"/>
<path d="M352.882 110.525L298.458 34.1503V110.525H281.348V22.0863C281.348 12.9919 289.033 5.66071 298.458 5.66071V5.66071L352.882 82.0351V5.66071H370.185V93.9135C370.185 103.101 362.452 110.525 352.882 110.525V110.525Z" fill="#101828"/>
<path d="M486.088 112.613C448.243 112.613 427.122 91.4544 427.122 58.0928C427.122 24.7312 448.243 3.57281 486.088 3.57281C490.487 3.57281 495.658 4.03681 500.782 4.77922C510.255 6.17122 517.215 14.1056 517.215 23.3392V23.3392C507.742 20.5552 496.093 18.6064 486.088 18.6064C459.698 18.6064 445.875 31.8768 445.875 58.0928C445.875 84.3088 459.698 97.5792 486.088 97.5792C490.438 97.5792 495.175 97.0688 499.718 96.1872V81.8496C499.718 72.5696 507.548 65.0992 517.167 65.0992V65.0992V107.926C508.515 110.525 495.562 112.613 486.088 112.613Z" fill="#101828"/>
</svg>
